<svg width="410" height="448" viewBox="0 0 410 448" fill="none" xmlns="http://www.w3.org/2000/svg">
<g opacity="0.25">
<g clip-path="url(#clip0_165_128)">
<path d="M103.853 265.505C110.148 292.757 121.222 318.648 131.321 341.063C152.513 389.901 168.236 424.125 152.191 447.073C110.553 448.195 68.5922 433.994 35.4356 404.498C32.936 402.281 30.4915 399.964 28.093 397.572L0 369.446L103.853 265.505Z" fill="#361D5C"/>
<path d="M233.181 268.936L314.464 350.288L280.489 384.291C272.577 359.421 261.65 335.167 251.477 312.32C243.666 295.443 237.362 281.168 233.171 268.936H233.181Z" fill="#27B1A6"/>
<path d="M542.617 121.94L280.489 384.291C272.576 359.42 261.65 335.167 251.477 312.32C243.666 295.442 237.361 281.168 233.171 268.935L380.041 121.94C402.492 99.4708 431.908 88.2406 461.324 88.2314C490.741 88.2314 520.157 99.4708 542.608 121.94H542.617Z" fill="#361D5C"/>
<path d="M245.917 300.134C245.66 299.555 245.403 298.966 245.146 298.387C245.32 298.764 245.476 299.141 245.651 299.518C245.743 299.73 245.835 299.923 245.917 300.134Z" fill="white"/>
<path d="M241.92 291.056C241.598 290.329 241.286 289.603 240.973 288.876C241.12 289.225 241.286 289.566 241.433 289.915C241.589 290.292 241.754 290.679 241.92 291.047V291.056Z" fill="white"/>
<path d="M239.926 286.375C239.522 285.427 239.136 284.498 238.759 283.588C239.31 284.922 239.88 286.292 240.468 287.672C240.284 287.239 240.1 286.807 239.926 286.375Z" fill="white"/>
<path d="M236.259 277.325C235.671 275.816 235.11 274.335 234.586 272.873C234.816 273.462 235.028 274.069 235.257 274.657C235.413 275.08 235.57 275.513 235.744 275.945C235.91 276.396 236.084 276.856 236.268 277.325H236.259Z" fill="white"/>
<path d="M237.132 217.062C250.062 204.121 267.614 204.066 287.152 214.919L372.092 129.906C289.495 62.8287 199.886 65.9742 139.831 126.071C96.1338 169.805 93.2482 219.61 103.862 265.505C110.157 292.758 121.231 318.649 131.331 341.063C152.522 389.902 168.246 424.126 152.2 447.074C193.949 445.97 235.377 429.46 267.237 397.563L280.498 384.291C272.586 359.421 261.659 335.167 251.486 312.321C250.861 310.959 250.246 309.626 249.639 308.301C249.474 307.934 249.299 307.575 249.143 307.216C248.61 306.048 248.086 304.889 247.562 303.749C247.48 303.565 247.397 303.381 247.314 303.197C246.836 302.167 246.377 301.146 245.917 300.134C245.66 299.555 245.403 298.966 245.145 298.386C245.127 298.368 245.118 298.34 245.109 298.322C244.704 297.402 244.3 296.492 243.905 295.6L243.427 294.523C243.353 294.349 243.271 294.183 243.197 294.018C242.839 293.208 242.49 292.408 242.15 291.617C242.094 291.488 242.039 291.36 241.984 291.231C241.957 291.176 241.938 291.12 241.92 291.065C241.598 290.339 241.286 289.612 240.973 288.885C240.799 288.481 240.633 288.076 240.468 287.671C239.88 286.292 239.31 284.921 238.758 283.588C238.731 283.514 238.713 283.44 238.676 283.367C238.492 282.916 238.308 282.484 238.134 282.042C237.858 281.38 237.591 280.736 237.343 280.083C237.159 279.633 236.985 279.173 236.81 278.731C236.617 278.271 236.433 277.802 236.259 277.333C235.671 275.825 235.11 274.344 234.586 272.882C234.43 272.44 234.265 271.99 234.108 271.557C233.943 271.125 233.787 270.684 233.64 270.242C233.493 269.81 233.327 269.377 233.18 268.945C229.137 257.136 227.051 247.23 227.519 238.75C227.988 230.27 231.002 223.206 237.132 217.071V217.062Z" fill="#27B1A6"/>
<path d="M547.23 300.805C582.923 265.082 582.923 206.963 547.23 171.24C542.231 166.236 534.125 166.236 529.126 171.24C524.127 176.243 524.127 184.356 529.126 189.359C554.839 215.094 554.839 256.952 529.126 282.686C503.413 308.421 461.582 308.421 435.878 282.686C430.879 277.683 422.773 277.683 417.774 282.686L359.328 341.183C354.328 346.186 354.328 354.298 359.328 359.302C364.327 364.305 372.432 364.305 377.431 359.302L427.469 309.221C463.309 336.244 514.606 333.457 547.23 300.805Z" fill="#F6C370"/>
</g>
</g>
<defs>
<clipPath id="clip0_165_128">
<rect width="574" height="447.138" fill="white"/>
</clipPath>
</defs>
</svg>
