<svg width="427" height="349" viewBox="0 0 427 349" fill="none" xmlns="http://www.w3.org/2000/svg">
<g opacity="0.25">
<path d="M367.973 202.359C335.239 169.646 282.159 169.646 249.424 202.359C224.629 227.137 191.724 226.684 169.188 204.163C146.652 181.642 145.745 148.305 170.539 123.527L186.77 107.307L121.412 41.9929L-58.8933 0.550568C-96.9923 38.6242 -77.4594 103.75 -24.6957 114.617L62.3597 132.538C38.0184 185.694 48.8415 246.956 88.0528 286.141C149.355 347.403 239.508 346.505 308.031 278.036L375.87 210.242L367.982 202.359H367.973Z" fill="#761449"/>
<path d="M-54.6372 348.556L-63.6878 339.511C-94.766 308.454 -94.766 258.019 -63.6878 226.962L121.408 41.9895L186.771 107.309L-54.6372 348.556Z" fill="#27B1A6"/>
<path d="M423.509 162.627C428.164 167.278 428.164 174.819 423.509 179.471C418.855 184.122 411.309 184.122 406.654 179.471C352.641 125.494 264.756 125.494 210.752 179.471C206.097 184.122 198.551 184.122 193.897 179.471C189.242 174.819 189.242 167.278 193.897 162.627C257.201 99.3646 360.205 99.3646 423.509 162.627Z" fill="#F6C370"/>
<path d="M197.14 19.3948C190.378 19.3948 184.897 24.8727 184.897 31.63C184.897 38.3873 190.378 43.8652 197.14 43.8652C203.902 43.8652 209.383 38.3873 209.383 31.63C209.383 24.8727 203.902 19.3948 197.14 19.3948Z" fill="#761449"/>
</g>
</svg>
