<?xml version="1.0" encoding="UTF-8"?><svg id="Layer_1" xmlns="http://www.w3.org/2000/svg" xmlns:xlink="http://www.w3.org/1999/xlink" viewBox="0 0 557.09 141.17"><defs><style>.cls-1{fill:none;}.cls-2{fill:url(#linear-gradient);}.cls-3{fill:#252d2f;}.cls-4{fill:url(#linear-gradient-3);}.cls-5{fill:url(#linear-gradient-4);}.cls-6{fill:url(#linear-gradient-2);}.cls-7{fill:url(#linear-gradient-6);}.cls-8{fill:url(#linear-gradient-5);}.cls-9{fill:#95d5e7;opacity:.8;}</style><linearGradient id="linear-gradient" x1="-7.98" y1="66.6" x2="50.33" y2="8.29" gradientUnits="userSpaceOnUse"><stop offset="0" stop-color="#0e223e"/><stop offset="1" stop-color="#144660"/></linearGradient><linearGradient id="linear-gradient-2" x1="50.87" y1="54.4" x2="84.79" y2="20.48" gradientUnits="userSpaceOnUse"><stop offset="0" stop-color="#144660"/><stop offset=".65" stop-color="#1f5f6e"/><stop offset="1" stop-color="#267077"/></linearGradient><linearGradient id="linear-gradient-3" x1="72.84" y1="90.74" x2="16.17" y2="34.07" gradientUnits="userSpaceOnUse"><stop offset="0" stop-color="#153058"/><stop offset=".66" stop-color="#18496e"/><stop offset="1" stop-color="#1b597b"/></linearGradient><linearGradient id="linear-gradient-4" x1="72.6" y1="64.48" x2="16.41" y2="8.29" xlink:href="#linear-gradient-3"/><linearGradient id="linear-gradient-5" x1="52.28" y1="92.49" x2="-7.76" y2="32.45" gradientUnits="userSpaceOnUse"><stop offset="0" stop-color="#1b597b"/><stop offset=".6" stop-color="#267286"/><stop offset="1" stop-color="#2f8790"/></linearGradient><linearGradient id="linear-gradient-6" x1="83.93" y1="79.66" x2="49.56" y2="45.29" xlink:href="#linear-gradient-3"/></defs><g><path class="cls-3" d="M252.9,109.32h5.76v2.56h-5.76v20.02h-3.02v-20.02h-3.55v-2.56h3.55v-2.79c0-4.23,2.79-6.79,6.7-6.79,1.17,0,2.12,.18,2.88,.58v2.66c-.72-.32-1.53-.54-2.47-.54-2.34,0-4.09,1.3-4.09,4.18v2.7Z"/><path class="cls-3" d="M284.22,120.57c0,6.61-4.9,11.88-11.56,11.88s-11.61-5.26-11.61-11.88,4.95-11.83,11.61-11.83,11.56,5.26,11.56,11.83Zm-20.07,0c0,4.9,3.51,9,8.5,9s8.46-4.09,8.46-9-3.51-8.95-8.46-8.95-8.5,4.09-8.5,8.95Z"/><path class="cls-3" d="M293.3,113.82c1.22-3.42,3.87-5.08,6.93-5.08,.45,0,.94,.04,1.26,.13v2.97c-.27-.04-.67-.09-.94-.09-4.27,0-7.15,3.19-7.15,8.5v11.65h-3.02v-22.63h2.92v4.54Z"/><path class="cls-3" d="M317.16,109.27h2.92v4.37c1.44-2.97,4.95-4.9,8.32-4.9,6.07,0,10.8,5.08,10.8,11.88s-4.72,11.83-10.89,11.83c-3.38,0-6.61-1.85-8.15-4.54v13h-3.01v-31.63Zm10.8,20.38c4.54,0,8.19-3.87,8.19-9.04s-3.65-9.09-8.15-9.09c-4,0-8.01,3.15-8.01,9.09s4.09,9.04,7.96,9.04Z"/><path class="cls-3" d="M348.52,100.27v13.23c1.35-2.65,4.09-4.77,7.96-4.77,5.09,0,8.55,3.73,8.55,9.22v13.95h-3.01v-13.81c0-4.05-2.52-6.57-6.12-6.57-4.77,0-7.38,4.09-7.38,8.28v12.1h-3.02v-31.63h3.02Z"/><path class="cls-3" d="M380.2,108.73c5.13,0,8.82,3.01,8.82,8.37v14.8h-2.79v-4.45c-1.62,3.1-4.54,4.99-8.05,4.99-4.09,0-7.24-2.7-7.24-6.48s2.92-6.12,8.28-6.88l6.84-1.03v-.99c0-3.69-2.56-5.53-6.07-5.53-2.88,0-5.71,1.31-7.47,2.7v-3.11c1.94-1.4,4.77-2.38,7.69-2.38Zm5.89,13.59v-1.85l-6.39,.85c-3.82,.5-5.85,2.07-5.85,4.46s2.02,4.05,4.72,4.05c4.27,0,7.51-3.73,7.51-7.51Z"/><path class="cls-3" d="M399.73,113.82c1.22-3.42,3.87-5.08,6.93-5.08,.45,0,.94,.04,1.26,.13v2.97c-.27-.04-.67-.09-.94-.09-4.27,0-7.15,3.19-7.15,8.5v11.65h-3.02v-22.63h2.92v4.54Z"/><path class="cls-3" d="M416.06,109.27v4.46c1.35-2.92,4.09-4.99,8.05-4.99s6.75,2.2,7.92,5.53c1.85-3.46,4.59-5.53,8.59-5.53,5.17,0,8.55,3.73,8.55,9.22v13.95h-3.01v-13.81c0-4.05-2.52-6.57-6.12-6.57-4.77,0-7.38,4.36-7.38,8.55v11.83h-3.02v-13.81c0-4.05-2.52-6.57-6.12-6.57-4.77,0-7.38,4.36-7.38,8.55v11.83h-3.01v-22.63h2.92Z"/><path class="cls-3" d="M464.3,108.73c5.13,0,8.82,3.01,8.82,8.37v14.8h-2.79v-4.45c-1.62,3.1-4.54,4.99-8.05,4.99-4.09,0-7.24-2.7-7.24-6.48s2.92-6.12,8.28-6.88l6.84-1.03v-.99c0-3.69-2.56-5.53-6.08-5.53-2.88,0-5.71,1.31-7.47,2.7v-3.11c1.93-1.4,4.77-2.38,7.69-2.38Zm5.9,13.59v-1.85l-6.39,.85c-3.83,.5-5.85,2.07-5.85,4.46s2.02,4.05,4.73,4.05c4.27,0,7.51-3.73,7.51-7.51Z"/><path class="cls-3" d="M496.88,113.28c-1.57-1.13-4-1.66-6.03-1.66-5.08,0-8.73,3.82-8.73,9s3.51,8.95,8.82,8.95c2.02,0,4.54-.54,6.16-1.75v3.15c-1.71,1.08-4.36,1.48-6.39,1.48-6.66,0-11.7-5.13-11.7-11.83s4.95-11.88,11.65-11.88c2.11,0,4.54,.49,6.21,1.48v3.06Z"/><path class="cls-3" d="M507.28,102.07c0,1.22-.95,2.21-2.16,2.21s-2.21-.99-2.21-2.21,.99-2.2,2.21-2.2,2.16,.94,2.16,2.2Zm-3.69,7.2h3.01v22.63h-3.01v-22.63Z"/><path class="cls-3" d="M534.28,119.17c0,.72-.09,1.53-.18,2.02h-18c.27,5.44,4.05,8.46,8.86,8.46,2.83,0,5.9-.99,7.87-2.7v3.19c-2.56,1.8-5.53,2.29-8.28,2.29-7.11,0-11.65-5.17-11.65-11.88s4.63-11.83,11.2-11.83c6.17,0,10.17,4.59,10.17,10.44Zm-18.09-.5h15.07c-.18-4.41-3.24-7.2-7.24-7.2s-7.29,2.97-7.83,7.2Z"/><path class="cls-3" d="M553.72,110.8v3.15c-1.98-1.58-4.09-2.48-6.57-2.48-3.15,0-4.99,1.53-4.99,3.55,0,2.16,2.02,3.06,5.4,4.14,3.73,1.13,7.29,2.43,7.29,6.61s-3.19,6.66-8.05,6.66c-2.79,0-5.63-.9-7.83-2.65v-3.38c2.2,2.07,4.72,3.28,7.65,3.28,3.33,0,5.31-1.62,5.31-3.87s-2.16-3.19-5.67-4.27c-3.65-1.17-7.07-2.48-7.07-6.34s3.19-6.48,7.88-6.48c2.47,0,4.95,.76,6.66,2.07Z"/></g><g><polygon class="cls-9" points="42.32 23.69 0 48.08 0 50.23 42.32 25.84 42.32 23.69"/><polygon class="cls-9" points="46.69 23.69 46.69 25.84 89.01 50.23 89.01 48.08 46.69 23.69"/><path class="cls-2" d="M0,74.58l37.45-21.62,4.87-2.74V25.84L0,50.23v24.35ZM0,24.7v23.38L42.32,23.69V.27L0,24.7Z"/><path class="cls-6" d="M46.69,50.22l42.32,24.36v-24.35L46.69,25.84v24.38ZM46.69,.27V23.69l42.32,24.39V24.7L46.69,.27Z"/><path class="cls-1" d="M48.71,47.89s-4.16,2.44-4.21,2.46l-2.51-1.48-4.54-2.55L0,24.7v49.88l44.5,25.69,44.5-25.69V24.7l-40.29,23.19Z"/><g><polygon class="cls-4" points="44.5 75.89 44.25 75.74 0 50.23 0 74.58 44.5 100.27 89.01 74.58 89.01 50.23 44.5 75.89 44.5 75.89"/><path class="cls-5" d="M48.71,47.89s-4.16,2.44-4.21,2.46l-2.51-1.48-4.54-2.55L0,24.7v23.38l44.5,25.65h0s44.5-25.65,44.5-25.65V24.7l-40.29,23.19Z"/></g><polygon class="cls-9" points="44.5 73.73 0 48.08 0 50.23 44.5 75.89 89.01 50.23 89.01 48.08 44.5 73.73"/><path class="cls-8" d="M41.99,48.87l-4.54-2.55L0,24.7v23.38l44.5,25.65v-23.38l-2.51-1.48ZM0,50.23v24.34l44.5,25.69v-24.38l-.25-.14L0,50.23Z"/><path class="cls-7" d="M48.71,47.89s-4.16,2.44-4.21,2.46v23.38h0s44.5-25.65,44.5-25.65V24.7l-40.29,23.19Zm-4.21,28v24.38l44.5-25.69v-24.34l-44.5,25.65h0Z"/></g><g><path class="cls-3" d="M143.14,18.99h8.71v54.21h27.37v7.92h-36.08V18.99Z"/><path class="cls-3" d="M221.99,21.9v9.06c-4.31-2.99-10.03-4.84-15.05-4.84-6.34,0-11.53,2.9-11.53,8.45,0,5.02,4.14,7.48,12.32,10.91,9.24,3.96,17.6,7.74,17.6,18.39,0,11.18-9.06,18.22-21.65,18.22-7.13,0-13.64-2.29-17.78-5.19v-9.86c4.49,3.87,11.09,6.86,17.42,6.86,6.86,0,12.58-3.61,12.58-9.68,0-5.46-4.75-7.83-13.64-11.7-8.1-3.43-16.1-7.3-16.1-17.42s8.62-17.16,20.5-17.16c5.98,0,11.44,1.67,15.31,3.96Z"/><path class="cls-3" d="M302.06,77.6c-4.14,2.99-9.94,4.58-16.81,4.58-18.48,0-32.38-13.64-32.38-32.03s14.26-33,33-33c5.9,0,11.35,1.32,15.49,3.7v15.22c-3.87-2.82-8.98-4.49-14.08-4.49-10.91,0-18.39,7.39-18.39,18.13s7.66,17.86,18.04,17.86c5.37,0,10.91-1.85,15.14-5.1v15.14Z"/><path class="cls-3" d="M351.7,56.57c0,1.67-.18,4.05-.44,5.19h-28.6c.88,5.63,6.25,7.74,12.14,7.74,5.46,0,11.09-1.85,13.64-3.7v13.38c-3.87,2.02-9.94,2.99-15.58,2.99-14.78,0-25.87-8.27-25.87-23.67,0-13.38,9.77-23.67,23.14-23.67s21.56,9.94,21.56,21.74Zm-29.22-2.99h15.05c-.44-3.87-3.08-6.6-7.48-6.6s-6.95,2.73-7.57,6.6Z"/><path class="cls-3" d="M386.9,34.83c10.91,0,17.78,6.95,17.78,18.74v27.54h-15.31v-24.82c0-5.46-2.82-8.1-7.04-8.1-5.28,0-7.66,4.31-7.66,9.06v23.85h-15.31V35.89h14.61v5.28c2.55-3.87,6.95-6.34,12.94-6.34Z"/><path class="cls-3" d="M442.95,80.15c-2.02,1.06-5.46,2.02-9.94,2.02-9.94,0-16.37-5.9-16.37-16.46v-18.04h-5.72v-11.79h6.16v-9.86l14.87-3.26v13.11h9.94v11.79h-9.94v15.58c0,3.96,2.46,5.54,5.81,5.54,1.67,0,3.7-.53,5.19-1.5v12.85Z"/><path class="cls-3" d="M465.66,43.55c2.46-5.54,6.6-8.71,12.76-8.71,1.06,0,2.29,.18,2.82,.35v14.7c-.44-.09-1.94-.44-3.34-.44-8.27,0-12.14,5.37-12.14,14.43v17.25h-15.31V35.89h15.22v7.66Z"/><path class="cls-3" d="M503.94,34.83c11.53,0,21.56,5.63,21.56,18.48v27.81h-14.26v-5.37c-2.29,3.61-6.69,6.42-12.32,6.42-8.54,0-14.7-5.37-14.7-12.67s5.63-12.58,15.58-14.08l10.91-1.5v-.7c0-3.43-3.26-5.37-8.1-5.37-6.07,0-11.7,2.38-15.05,4.75v-13.73c4.14-2.46,10.3-4.05,16.37-4.05Zm6.86,28.34v-.88l-7.13,.97c-3.34,.44-5.28,1.94-5.28,4.22s1.76,3.7,4.58,3.7c3.96,0,7.83-3.26,7.83-8.01Z"/><path class="cls-3" d="M535,18.29h15.31v46.46c0,2.82,.97,4.31,3.78,4.31,1.06,0,2.11-.18,2.99-.53v12.5c-1.67,.7-4.14,1.14-7.04,1.14-9.15,0-15.05-4.84-15.05-14.61V18.29Z"/></g></svg>