<?xml version="1.0" encoding="UTF-8"?><svg id="a" xmlns="http://www.w3.org/2000/svg" xmlns:xlink="http://www.w3.org/1999/xlink" viewBox="0 0 573.98 100"><defs><style>.g{fill:url(#e);}.h{fill:url(#d);}.i{fill:url(#f);}.j{fill:url(#c);}.k{fill:url(#b);}.l{fill:#252d2f;}</style><linearGradient id="b" x1="14128.8" y1="-3374.11" x2="14187.11" y2="-3315.8" gradientTransform="translate(3366.13 14195.13) rotate(-90)" gradientUnits="userSpaceOnUse"><stop offset="0" stop-color="#4b2e18"/><stop offset="1" stop-color="#80460b"/></linearGradient><linearGradient id="c" x1="14128.8" y1="-3269.15" x2="14187.11" y2="-3327.46" gradientTransform="translate(3366.13 14195.13) rotate(-90)" gradientUnits="userSpaceOnUse"><stop offset="0" stop-color="#854a03"/><stop offset="1" stop-color="#b06510"/></linearGradient><linearGradient id="d" x1="9.78" y1="84.09" x2="79.22" y2="14.64" gradientTransform="matrix(1, 0, 0, 1, 0, 0)" gradientUnits="userSpaceOnUse"><stop offset="0" stop-color="#b06510"/><stop offset=".75" stop-color="#be7118"/><stop offset="1" stop-color="#c5761c"/></linearGradient><linearGradient id="e" x1="14102.91" y1="-3313.85" x2="14162.94" y2="-3373.89" gradientTransform="translate(3366.13 14195.13) rotate(-90)" gradientUnits="userSpaceOnUse"><stop offset="0" stop-color="#ca7a1f"/><stop offset="1" stop-color="#d18254"/></linearGradient><linearGradient id="f" x1="14115.74" y1="-3282.21" x2="14150.11" y2="-3316.57" gradientTransform="translate(3366.13 14195.13) rotate(-90)" xlink:href="#d"/></defs><g><g><path class="k" d="M42.31,49.95V0L0,24.43v49.88l37.45-21.62,4.87-2.74c-.46-.8-1.93,.84,0,0Z"/><path class="j" d="M46.68,0V49.95c1.93,.84,.46-.8,0,0l42.32,24.36V24.43L46.68,0Z"/></g><path class="h" d="M48.71,47.62s-4.16,2.44-4.21,2.46l-2.51-1.48-4.54-2.55L0,24.43v49.88l44.5,25.69,44.5-25.69V24.43l-40.29,23.19Z"/><g><polygon class="g" points="44.5 50.08 44.5 100 0 74.31 0 24.43 37.45 46.05 41.98 48.6 44.5 50.08"/><path class="i" d="M44.5,100V50.08c.05-.02,4.21-2.46,4.21-2.46l40.29-23.19v49.88l-44.5,25.69Z"/></g></g><g><path class="l" d="M143.14,18.73h8.71v54.21h27.37v7.92h-36.08V18.73Z"/><path class="l" d="M221.98,21.63v9.06c-4.31-2.99-10.03-4.84-15.05-4.84-6.34,0-11.53,2.9-11.53,8.45,0,5.02,4.14,7.48,12.32,10.91,9.24,3.96,17.6,7.74,17.6,18.39,0,11.18-9.06,18.22-21.65,18.22-7.13,0-13.64-2.29-17.78-5.19v-9.86c4.49,3.87,11.09,6.86,17.42,6.86,6.86,0,12.58-3.61,12.58-9.68,0-5.46-4.75-7.83-13.64-11.7-8.1-3.43-16.1-7.3-16.1-17.42s8.62-17.16,20.5-17.16c5.98,0,11.44,1.67,15.31,3.96Z"/><path class="l" d="M256.04,17.93h41.27v13.38h-25.87v11.44h20.94v12.94h-20.94v11.79h27.1v13.38h-42.5V17.93Z"/><path class="l" d="M333.39,80.85l-7.57-12.58-7.66,12.58h-16.46l15.49-22.97-15.14-22.26h16.37l7.39,11.79,7.3-11.79h16.46l-15.22,22.26,15.49,22.97h-16.46Z"/><path class="l" d="M354.95,35.62h13.99v5.72c2.11-3.43,6.95-6.78,13.29-6.78,10.91,0,20.77,9.24,20.77,23.67s-9.5,23.67-21.03,23.67c-5.1,0-9.5-1.94-11.79-5.02v21.56h-15.22V35.62Zm23.76,33.09c5.1,0,9.15-4.05,9.15-10.3s-4.05-10.3-9.15-10.3-9.24,4.05-9.24,10.3,4.05,10.3,9.24,10.3Z"/><path class="l" d="M426.05,43.28c2.46-5.54,6.6-8.71,12.76-8.71,1.06,0,2.29,.18,2.82,.35v14.7c-.44-.09-1.94-.44-3.34-.44-8.27,0-12.14,5.37-12.14,14.43v17.25h-15.31V35.62h15.22v7.66Z"/><path class="l" d="M489.67,56.3c0,1.67-.18,4.05-.44,5.19h-28.6c.88,5.63,6.25,7.74,12.14,7.74,5.46,0,11.09-1.85,13.64-3.7v13.38c-3.87,2.02-9.94,2.99-15.58,2.99-14.78,0-25.87-8.27-25.87-23.67,0-13.38,9.77-23.67,23.14-23.67s21.56,9.94,21.56,21.74Zm-29.21-2.99h15.05c-.44-3.87-3.08-6.6-7.48-6.6s-6.95,2.73-7.57,6.6Z"/><path class="l" d="M528.83,38v12.85c-3.52-2.73-8.71-4.4-13.64-4.4-3.87,0-5.81,.97-5.81,2.73,0,1.85,2.02,2.82,7.04,4.05,7.57,1.76,15.4,4.4,15.4,13.9,0,8.98-7.3,14.78-19.71,14.78-6.6,0-12.32-1.5-16.19-3.96v-13.64c4.05,3.43,8.98,5.72,15.4,5.72,4.22,0,6.6-1.06,6.6-2.9,0-2.11-3.34-3.08-8.62-4.66-6.86-1.94-13.99-5.02-13.99-13.2s7.3-14.7,19.18-14.7c5.37,0,10.74,1.32,14.34,3.43Z"/><path class="l" d="M570.98,38v12.85c-3.52-2.73-8.71-4.4-13.64-4.4-3.87,0-5.81,.97-5.81,2.73,0,1.85,2.02,2.82,7.04,4.05,7.57,1.76,15.4,4.4,15.4,13.9,0,8.98-7.3,14.78-19.71,14.78-6.6,0-12.32-1.5-16.19-3.96v-13.64c4.05,3.43,8.98,5.72,15.4,5.72,4.22,0,6.6-1.06,6.6-2.9,0-2.11-3.34-3.08-8.62-4.66-6.86-1.94-13.99-5.02-13.99-13.2s7.3-14.7,19.18-14.7c5.37,0,10.74,1.32,14.34,3.43Z"/></g></svg>