<?xml version="1.0" encoding="UTF-8"?><svg id="Layer_1" xmlns="http://www.w3.org/2000/svg" xmlns:xlink="http://www.w3.org/1999/xlink" viewBox="0 0 398.77 100"><defs><style>.cls-1{fill:url(#linear-gradient);}.cls-2{fill:#252d2f;}.cls-3{fill:url(#linear-gradient-3);}.cls-4{fill:url(#linear-gradient-4);}.cls-5{fill:url(#linear-gradient-2);}</style><linearGradient id="linear-gradient" x1="12619.2" y1="-1864.51" x2="12677.51" y2="-1806.2" gradientTransform="translate(1856.53 12685.53) rotate(-90)" gradientUnits="userSpaceOnUse"><stop offset="0" stop-color="#406620"/><stop offset="1" stop-color="#5e833e"/></linearGradient><linearGradient id="linear-gradient-2" x1="12619.2" y1="-1759.54" x2="12677.51" y2="-1817.86" gradientTransform="translate(1856.53 12685.53) rotate(-90)" gradientUnits="userSpaceOnUse"><stop offset="0" stop-color="#5e833e"/><stop offset="1" stop-color="#729752"/></linearGradient><linearGradient id="linear-gradient-3" x1="12593.31" y1="-1804.25" x2="12653.34" y2="-1864.29" gradientTransform="translate(1856.53 12685.53) rotate(-90)" gradientUnits="userSpaceOnUse"><stop offset="0" stop-color="#96b665"/><stop offset="1" stop-color="#c9dd82"/></linearGradient><linearGradient id="linear-gradient-4" x1="12606.14" y1="-1772.6" x2="12640.51" y2="-1806.97" gradientTransform="translate(1856.53 12685.53) rotate(-90)" gradientUnits="userSpaceOnUse"><stop offset="0" stop-color="#82a251"/><stop offset="1" stop-color="#96b665"/></linearGradient></defs><g><path class="cls-2" d="M143.14,18.73h8.71v54.21h27.37v7.92h-36.08V18.73Z"/><path class="cls-2" d="M221.98,21.63v9.06c-4.31-2.99-10.03-4.84-15.05-4.84-6.34,0-11.53,2.9-11.53,8.45,0,5.02,4.14,7.48,12.32,10.91,9.24,3.96,17.6,7.74,17.6,18.39,0,11.18-9.06,18.21-21.65,18.21-7.13,0-13.64-2.29-17.78-5.19v-9.86c4.49,3.87,11.09,6.86,17.42,6.86,6.86,0,12.58-3.61,12.58-9.68,0-5.46-4.75-7.83-13.64-11.7-8.1-3.43-16.1-7.3-16.1-17.42s8.62-17.16,20.5-17.16c5.98,0,11.44,1.67,15.31,3.96Z"/><path class="cls-2" d="M271.44,80.85h-15.4V17.93h24.38c12.67,0,22.17,9.24,22.17,21.74s-9.5,21.82-22.09,21.82h-9.06v19.36Zm6.95-32.56c4.75,0,8.36-3.7,8.36-8.62s-3.61-8.36-8.36-8.36h-6.95v16.98h6.95Z"/><path class="cls-2" d="M324.68,34.57c11.53,0,21.56,5.63,21.56,18.48v27.81h-14.26v-5.37c-2.29,3.61-6.69,6.42-12.32,6.42-8.54,0-14.7-5.37-14.7-12.67s5.63-12.58,15.58-14.08l10.91-1.5v-.7c0-3.43-3.26-5.37-8.1-5.37-6.07,0-11.7,2.38-15.05,4.75v-13.73c4.14-2.46,10.3-4.05,16.37-4.05Zm6.86,28.33v-.88l-7.13,.97c-3.34,.44-5.28,1.94-5.28,4.22s1.76,3.7,4.58,3.7c3.96,0,7.83-3.26,7.83-8.01Z"/><path class="cls-2" d="M351.08,85.25c2.29,1.06,4.75,1.41,6.69,1.41,4.66,0,7.48-2.46,8.8-7.92l-17.69-43.12h15.84l9.5,28.25,9.15-28.25h15.4l-18.74,47.34c-4.4,11.26-10.21,16.54-20.24,16.54-2.82,0-6.25-.62-8.71-1.67v-12.58Z"/></g><g><g><path class="cls-1" d="M42.31,49.95v-7.35s0-42.6,0-42.6L0,24.43v49.88s37.45-21.62,37.45-21.62l4.87-2.74c-.46-.8-1.93,.84,0,0Z"/><path class="cls-5" d="M46.69,0V49.95c1.93,.84,.46-.8,0,0l42.32,24.36V24.43S46.69,0,46.69,0Z"/></g><g><polygon class="cls-3" points="44.5 50.08 44.5 100 0 74.31 0 24.43 37.45 46.05 41.99 48.6 44.5 50.08"/><path class="cls-4" d="M44.5,100V50.08c.05-.02,4.21-2.46,4.21-2.46l40.29-23.19v49.88s-44.5,25.69-44.5,25.69Z"/></g></g></svg>