<svg width="16" height="16" viewBox="0 0 16 16" fill="none" xmlns="http://www.w3.org/2000/svg">
<circle cx="7.99951" cy="8" r="6.56201" stroke="white" stroke-width="1.33"/>
<path d="M5.24953 7.43772C5.40438 7.59257 5.48181 7.78002 5.48181 8.00006C5.48181 8.22011 5.40438 8.40756 5.24953 8.56241C5.09469 8.71725 4.90724 8.79468 4.68719 8.79468C4.46715 8.79468 4.2797 8.71725 4.12485 8.56241C3.97 8.40756 3.89258 8.22011 3.89258 8.00006C3.89258 7.78002 3.97 7.59257 4.12485 7.43772C4.2797 7.28287 4.46715 7.20545 4.68719 7.20545C4.90724 7.20545 5.09469 7.28287 5.24953 7.43772ZM12.1077 7.36437L12.1077 8.64798L6.20307 8.64798L6.20307 7.36437L12.1077 7.36437Z" fill="white"/>
</svg>
