<svg width="300" height="229" viewBox="0 0 300 229" fill="none" xmlns="http://www.w3.org/2000/svg">
<g opacity="0.25">
<path d="M38.7197 132.379C60.1923 110.921 95.011 110.921 116.484 132.379C132.748 148.632 154.333 148.335 169.116 133.562C183.899 118.789 184.493 96.9216 168.229 80.668L157.582 70.0286L200.455 27.185L318.728 0.000335693C343.72 24.9752 330.907 67.6955 296.296 74.8239L239.191 86.5795C255.158 121.448 248.058 161.633 222.337 187.337C182.125 227.522 122.988 226.933 78.0394 182.02L33.5396 137.55L38.7141 132.379H38.7197Z" fill="#761449"/>
<path d="M315.936 228.277L321.872 222.344C342.259 201.972 342.259 168.889 321.872 148.516L200.456 27.1815L157.581 70.0284L315.936 228.277Z" fill="#27B1A6"/>
<path d="M2.28982 106.315C-0.763272 109.366 -0.763272 114.313 2.28982 117.364C5.3429 120.415 10.2929 120.415 13.346 117.364C48.7764 81.9573 106.426 81.9573 141.851 117.364C144.904 120.415 149.854 120.415 152.907 117.364C155.96 114.313 155.96 109.366 152.907 106.315C111.382 64.8176 43.8152 64.8176 2.28982 106.315Z" fill="#F6C370"/>
<path d="M150.78 12.3604C155.215 12.3604 158.811 15.9537 158.811 20.3863C158.811 24.8188 155.215 28.4121 150.78 28.4121C146.344 28.4121 142.749 24.8188 142.749 20.3863C142.749 15.9537 146.344 12.3604 150.78 12.3604Z" fill="#761449"/>
</g>
</svg>
