<svg width="241" height="64" viewBox="0 0 241 64" fill="none" xmlns="http://www.w3.org/2000/svg">
<path d="M6.62993 7.7883V18.5538H14.0572C14.4261 18.5538 14.7328 18.8605 14.7328 19.2281V24.0783C14.7328 24.4459 14.4261 24.7524 14.0572 24.7524H6.62993V40.506C6.62993 40.8736 6.32317 41.1803 5.95429 41.1803H0.675647C0.308059 41.1803 0 40.8736 0 40.506V2.07994C0 1.71105 0.308059 1.4043 0.675647 1.4043H17.6166C17.9858 1.4043 18.2926 1.71105 18.2926 2.07994V7.11266C18.2926 7.48155 17.9858 7.7883 17.6166 7.7883H6.62993Z" fill="white"/>
<path d="M43.3538 35.47V40.504C43.3538 40.8713 43.047 41.1784 42.6781 41.1784H26.6194C26.3126 41.1784 26.0059 40.8713 26.0059 40.504V2.07669C26.0059 1.7091 26.3126 1.40234 26.6815 1.40234H31.8372C32.2048 1.40234 32.5128 1.7091 32.5128 2.07669V34.7944H42.6781C43.047 34.7944 43.3538 35.1008 43.3538 35.47Z" fill="white"/>
<path d="M72.5928 40.5017C72.5928 40.871 72.286 41.1774 71.9171 41.1774H66.6388C66.2696 41.1774 66.0858 40.9315 65.9629 40.5017L64.8588 33.8113H57.1235L56.0194 40.5017C55.8965 40.9315 55.7127 41.1774 55.3434 41.1774H50.0648C49.6962 41.1774 49.3892 40.871 49.3892 40.5017L56.6329 2.07604C56.7559 1.70715 56.9397 1.40039 57.3086 1.40039H64.6737C65.0426 1.40039 65.2264 1.70715 65.2885 2.07604L72.5928 40.5017ZM63.7537 27.5503L60.9913 10.6698L58.1684 27.5503H63.7537Z" fill="white"/>
<path d="M101.564 2.07604V40.5021C101.564 40.8706 101.257 41.1777 100.888 41.1777H96.1004C95.7936 41.1777 95.1801 40.6855 95.1193 40.4409L86.0336 16.7471V40.5021C86.0336 40.8706 85.789 41.1777 85.4201 41.1777H80.632C80.2644 41.1777 79.958 40.8706 79.958 40.5021V2.07604C79.958 1.70845 80.2644 1.40039 80.632 1.40039H85.4822C85.8498 1.40039 86.1566 1.64632 86.219 2.01521L95.4868 26.9972V2.07604C95.4868 1.70845 95.7328 1.40039 96.1004 1.40039H100.888C101.257 1.40072 101.564 1.70877 101.564 2.07604Z" fill="white"/>
<path d="M132.229 2.07604V40.5021C132.229 40.8706 131.922 41.1777 131.554 41.1777H126.766C126.459 41.1777 125.845 40.6855 125.784 40.4409L116.698 16.7471V40.5021C116.698 40.8706 116.454 41.1777 116.085 41.1777H111.297C110.929 41.1777 110.621 40.8706 110.621 40.5021V2.07604C110.621 1.70845 110.929 1.40039 111.297 1.40039H116.146C116.515 1.40039 116.821 1.64632 116.883 2.01521L126.151 26.9972V2.07604C126.151 1.70845 126.397 1.40039 126.766 1.40039H131.554C131.922 1.40072 132.229 1.70877 132.229 2.07604Z" fill="white"/>
<path d="M148.042 7.7844V18.5499H155.469C155.837 18.5499 156.144 18.8566 156.144 19.2255V24.0744C156.144 24.4433 155.837 24.7501 155.469 24.7501H148.042V34.7937H159.029C159.398 34.7937 159.704 35.1005 159.704 35.4681V40.5021C159.704 40.8697 159.398 41.1764 159.029 41.1764H142.088C141.72 41.1764 141.412 40.8697 141.412 40.5021V2.07604C141.412 1.70715 141.72 1.40039 142.088 1.40039H159.029C159.398 1.40039 159.704 1.70715 159.704 2.07604V7.10875C159.704 7.47764 159.398 7.7844 159.029 7.7844H148.042Z" fill="white"/>
<path d="M189.5 35.9563V40.6839C189.5 40.9907 189.254 41.1741 188.885 41.1741C181.948 41.1741 180.66 35.7729 180.66 31.5375C180.66 27.2399 179.739 24.8467 175.995 24.8467H174.276V40.4985C174.276 40.868 173.969 41.1741 173.602 41.1741H168.322C167.954 41.1741 167.648 40.868 167.648 40.4985V2.07278C167.648 1.7052 167.954 1.39844 168.322 1.39844H176.425C183.237 1.39844 187.781 4.83523 187.781 12.999C187.781 18.8924 185.081 21.8383 182.809 22.2075C187.413 23.5575 187.228 27.7929 187.228 31.0456C187.228 34.9742 188.333 35.0361 188.947 35.2202C189.193 35.2807 189.5 35.5269 189.5 35.9563ZM181.274 13.1219C181.274 10.6057 180.539 7.72064 176.425 7.72064H174.277V18.4627H176.425C180.539 18.4627 181.274 16.0073 181.274 13.1219Z" fill="white"/>
<path d="M240.467 31.4163C240.467 37.6777 236.171 41.8519 230.155 41.8519C224.078 41.8519 220.088 37.6777 220.088 31.4163V28.4701C220.088 28.1015 220.395 27.7944 220.764 27.7944H225.982C226.349 27.7944 226.656 28.1015 226.656 28.4701V31.7839C226.656 34.5463 228.314 35.652 230.278 35.652C232.856 35.652 233.9 33.9332 233.9 31.7839C233.9 27.9177 234.452 26.2606 229.909 23.2526C224.323 19.1402 220.825 17.7889 220.825 11.0373C220.825 4.77589 224.446 0.724609 230.524 0.724609C236.539 0.724609 240.407 4.89918 240.407 11.1602V13.4926C240.407 13.7994 240.16 14.1061 239.793 14.1061H234.574C234.267 14.1061 233.961 13.7994 233.961 13.4926V10.7913C233.961 7.96806 232.61 6.92482 230.647 6.92482C228.682 6.92482 227.33 7.96806 227.33 10.7913C227.33 14.167 228.436 14.3521 236.355 20.1213C241.142 23.6823 240.467 27.9177 240.467 31.4163Z" fill="white"/>
<path d="M215.796 0.0130016C214.131 0.476554 209.831 1.86168 207.997 6.7441C206.577 10.5244 207.351 14.2621 207.937 16.154C207.985 16.3297 208.01 16.5151 208.01 16.7054C208.01 16.9068 207.982 17.1029 207.928 17.2867C207.927 17.2919 207.925 17.2975 207.925 17.3027C207.828 17.626 207.71 17.9393 207.556 18.2392C207.417 18.5082 207.256 18.7652 207.095 19.0206C207.04 19.1068 206.456 19.9988 205.994 20.1988L198.703 1.92121C198.578 1.60892 198.275 1.40366 197.937 1.40366H192.751C192.26 1.40366 192.137 1.71042 192.26 2.078C192.26 2.078 200.729 24.1746 200.729 24.2355V40.5619C200.729 40.8687 201.036 41.1754 201.405 41.1754H206.682C207.051 41.1754 207.358 40.869 207.358 40.5619V24.8438C207.361 24.5842 207.365 24.3246 207.377 24.065C207.396 23.634 207.43 23.2043 207.488 22.7771C207.545 22.3585 207.625 21.9421 207.742 21.5355C207.838 21.1949 207.96 20.8611 208.113 20.542C208.176 20.4112 208.242 20.2785 208.307 20.1487C208.436 19.8963 208.569 19.6461 208.695 19.3921C208.843 19.0922 208.972 18.7841 209.077 18.4666C209.16 18.2177 209.22 17.9624 209.269 17.7041L209.27 17.7054C209.373 17.2028 209.666 16.7692 210.073 16.4852V16.4839C211.715 15.3473 212.985 13.7878 213.86 12.1418C215.864 8.70533 214.775 5.466 215.382 3.16158C215.524 2.22374 215.934 1.02664 216.183 0.357494C216.263 0.145399 216.037 -0.0533595 215.796 0.0130016Z" fill="white"/>
<path d="M19.0349 58.6931C19.0349 59.277 18.9252 59.8268 18.7076 60.3401C18.4887 60.8541 18.1875 61.3023 17.8023 61.6836C17.4159 62.0664 16.9643 62.3677 16.4468 62.5892C15.9276 62.8111 15.3655 62.9213 14.7588 62.9213C14.1505 62.9213 13.5858 62.8107 13.0643 62.5892C12.5425 62.3673 12.0884 62.0664 11.7033 61.6836C11.3181 61.3023 11.0153 60.8541 10.798 60.3401C10.5803 59.8268 10.4707 59.2767 10.4707 58.6931C10.4707 58.1095 10.5803 57.5594 10.798 57.0461C11.0153 56.5321 11.3181 56.0839 11.7033 55.7026C12.0884 55.3217 12.5425 55.0188 13.0643 54.797C13.5858 54.5754 14.1505 54.4648 14.7588 54.4648C15.3655 54.4648 15.9276 54.5754 16.4468 54.797C16.9643 55.0192 17.4159 55.3217 17.8023 55.7026C18.1875 56.0839 18.4887 56.5321 18.7076 57.0461C18.9252 57.5594 19.0349 58.1095 19.0349 58.6931ZM17.2467 58.6931C17.2467 58.304 17.1846 57.9413 17.0603 57.6066C16.9347 57.2715 16.7617 56.9791 16.5401 56.7312C16.3183 56.481 16.0548 56.2852 15.7506 56.1405C15.4481 55.9977 15.117 55.9241 14.7588 55.9241C14.3925 55.9241 14.0575 55.9977 13.7533 56.1405C13.4495 56.2852 13.1873 56.4814 12.9654 56.7312C12.7439 56.9794 12.5695 57.2715 12.4453 57.6066C12.3207 57.9413 12.2589 58.304 12.2589 58.6931C12.2589 59.0821 12.3207 59.4449 12.4453 59.7799C12.5695 60.115 12.7439 60.4071 12.9654 60.655C13.1873 60.9054 13.4495 61.101 13.7533 61.2457C14.0575 61.3905 14.3925 61.462 14.7588 61.462C15.117 61.462 15.4481 61.3905 15.7506 61.2457C16.0548 61.101 16.3183 60.9051 16.5401 60.655C16.7617 60.4068 16.9347 60.115 17.0603 59.7799C17.1846 59.4449 17.2467 59.0825 17.2467 58.6931Z" fill="white"/>
<path d="M24.0337 54.6058C24.361 54.6058 24.7016 54.6507 25.0555 54.7395C25.411 54.8286 25.7337 54.9721 26.0259 55.1666C26.3176 55.3611 26.5571 55.6139 26.7435 55.9259C26.9315 56.2368 27.0245 56.6148 27.0245 57.0582C27.0245 57.377 26.9731 57.6623 26.8733 57.9112C26.7718 58.1613 26.6394 58.3786 26.4757 58.565C26.3124 58.753 26.1231 58.9085 25.9084 59.0328C25.6947 59.1574 25.4745 59.2582 25.2487 59.337C25.4286 59.5939 25.6326 59.8815 25.8622 60.2006C26.0922 60.5207 26.3232 60.8398 26.5571 61.1586C26.791 61.4784 27.0125 61.7816 27.2233 62.0711C27.4328 62.359 27.6084 62.5965 27.749 62.7829H25.6459L23.4026 59.5233H23.1108V62.7829H21.4404V54.6055H24.0337V54.6058ZM23.1108 58.1099H23.765C24.1853 58.1099 24.5366 58.0302 24.8164 57.8708C25.0974 57.7111 25.2367 57.4518 25.2367 57.0937C25.2367 56.7664 25.1218 56.5052 24.8922 56.3113C24.6622 56.1165 24.361 56.0195 23.9865 56.0195H23.1108V58.1099Z" fill="white"/>
<path d="M33.5977 59.4758V58.062H37.2303V61.2516C36.8019 61.8283 36.2788 62.2499 35.6597 62.5189C35.041 62.788 34.3761 62.9217 33.6679 62.9217C33.045 62.9217 32.4679 62.8189 31.938 62.6123C31.4084 62.4054 30.9488 62.1175 30.5597 61.7473C30.1703 61.3784 29.8649 60.9338 29.6433 60.4162C29.4218 59.8986 29.3096 59.3245 29.3096 58.6931C29.3096 58.0932 29.4244 57.5363 29.6541 57.023C29.884 56.5081 30.196 56.0608 30.5893 55.6795C30.9826 55.2966 31.4435 54.9996 31.9731 54.7849C32.503 54.5715 33.0678 54.4648 33.6679 54.4648C34.3611 54.4648 34.9939 54.6024 35.5667 54.8783C36.1383 55.1555 36.6503 55.5536 37.1018 56.0757L35.9463 57.0812C35.6571 56.7458 35.3221 56.4703 34.9408 56.2514C34.5599 56.0338 34.1354 55.9245 33.6679 55.9245C33.2935 55.9245 32.9516 55.996 32.6397 56.1408C32.3287 56.2849 32.0571 56.4814 31.8274 56.7309C31.5977 56.9797 31.4191 57.2715 31.291 57.6066C31.1625 57.9416 31.0974 58.3037 31.0974 58.6931C31.0974 59.1052 31.1582 59.4813 31.2786 59.8203C31.399 60.1595 31.5733 60.4504 31.7988 60.6904C32.0245 60.9325 32.2948 61.1218 32.611 61.2568C32.9259 61.3934 33.2789 61.462 33.6679 61.462C34.003 61.462 34.3368 61.3976 34.6721 61.2691C35.0072 61.1406 35.3032 60.9513 35.5599 60.7025V59.4758H33.5977Z" fill="white"/>
<path d="M44.8202 62.7832L44.2946 61.2644H41.3864L40.8376 62.7832H38.9795L42.3216 54.6055H43.6755L46.749 62.7832H44.8202ZM41.8769 59.8981H43.8284L42.8808 57.1522H42.8701L41.8769 59.8981Z" fill="white"/>
<path d="M54.2676 62.7832L50.5176 57.6665V62.7832H48.8472V54.6055H50.3188L54.1043 59.7345V54.6055H55.7744V62.7832H54.2676Z" fill="white"/>
<path d="M58.7817 62.7832V59.5588V54.6055H60.4522V57.2911V62.7832H58.7817Z" fill="white"/>
<path d="M64.8492 58.6931C64.8492 59.1065 64.9074 59.4826 65.0249 59.8203C65.141 60.1595 65.3102 60.45 65.533 60.6908C65.7545 60.9324 66.0248 61.1218 66.3453 61.2584C66.6641 61.3934 67.0222 61.4624 67.4194 61.4624C67.7304 61.4624 68.0371 61.4041 68.3371 61.2867C68.6357 61.1702 68.9099 61.003 69.1601 60.7841L70.0953 61.9988C69.6981 62.3029 69.2668 62.5326 68.8032 62.6874C68.3397 62.8446 67.8547 62.9217 67.3491 62.9217C66.7343 62.9217 66.1654 62.8192 65.6436 62.6123C65.1221 62.407 64.6693 62.1162 64.2884 61.7421C63.9071 61.369 63.6072 60.9227 63.3883 60.4042C63.1707 59.8866 63.061 59.3164 63.061 58.6931C63.061 58.0929 63.1762 57.536 63.4059 57.0223C63.6355 56.5094 63.9478 56.0608 64.3411 55.6792C64.7341 55.297 65.195 54.9993 65.7249 54.7846C66.2545 54.5715 66.8196 54.4648 67.4194 54.4648C67.8872 54.4648 68.3208 54.5351 68.7222 54.6743C69.1236 54.8149 69.5264 55.0094 69.9317 55.2592L69.1249 56.5555C68.8748 56.3688 68.6087 56.2163 68.325 56.0998C68.0397 55.984 67.7385 55.9241 67.4194 55.9241C67.045 55.9241 66.7034 55.9977 66.3911 56.1405C66.0801 56.2852 65.8085 56.4814 65.5789 56.7312C65.3492 56.9794 65.1706 57.2715 65.0424 57.6066C64.9136 57.9416 64.8492 58.304 64.8492 58.6931Z" fill="white"/>
<path d="M83.0612 63.1094L81.6598 61.8592C81.3706 62.2255 81.0193 62.4939 80.6016 62.6647C80.1856 62.8364 79.7516 62.923 79.2991 62.923C78.9029 62.923 78.5246 62.854 78.1664 62.7174C77.8083 62.5824 77.4947 62.393 77.226 62.1514C76.957 61.9106 76.7449 61.6309 76.5894 61.316C76.4339 61.0014 76.3555 60.6608 76.3555 60.2945C76.3555 59.897 76.4651 59.5132 76.6827 59.143C76.9003 58.7728 77.2204 58.4563 77.6407 58.1918C77.3841 57.9186 77.2029 57.6632 77.0975 57.4251C76.9921 57.1889 76.9394 56.9147 76.9394 56.6027C76.9394 56.2839 77.0109 55.9918 77.1557 55.727C77.3001 55.4622 77.4882 55.2365 77.7217 55.0488C77.9556 54.862 78.2204 54.7173 78.5164 54.6161C78.8125 54.5146 79.1124 54.4648 79.4165 54.4648C80.0232 54.4648 80.5219 54.62 80.9113 54.9323C81.3017 55.243 81.5733 55.6756 81.7301 56.2283L80.234 56.6609C80.195 56.4271 80.1029 56.2351 79.9598 56.0822C79.815 55.9313 79.6192 55.8555 79.369 55.8555C79.1436 55.8555 78.9517 55.9287 78.791 56.0774C78.6313 56.2247 78.5516 56.4124 78.5516 56.6378C78.5516 56.7543 78.576 56.8721 78.6218 56.9882C78.6693 57.1056 78.7409 57.2273 78.8382 57.3558C78.9354 57.4856 79.0626 57.6274 79.2178 57.7829C79.3733 57.9384 79.5639 58.1141 79.7893 58.3079L78.8788 59.3596L78.6218 59.1378C78.411 59.2624 78.2516 59.4172 78.1433 59.6056C78.034 59.792 77.98 59.9988 77.98 60.2246C77.98 60.411 78.0165 60.5837 78.0909 60.7435C78.1638 60.9042 78.2611 61.0421 78.3827 61.1582C78.5031 61.2753 78.6449 61.368 78.8082 61.4328C78.9719 61.4988 79.1475 61.5323 79.3339 61.5323C79.5841 61.5323 79.815 61.4783 80.0301 61.369C80.2435 61.2597 80.4285 61.1045 80.584 60.9016L79.7435 60.1312L80.6436 59.0675L83.972 62.0456L83.0612 63.1094Z" fill="white"/>
<path d="M96.2148 59.8392H96.2376L97.6162 54.6055H99.4867L97.1377 62.7829H95.4784L93.9956 57.4096H93.9716L92.4417 62.7829H90.8402L88.5508 54.6055H90.42L91.7631 59.8392H91.7875L93.2471 54.6055H94.8135L96.2148 59.8392Z" fill="white"/>
<path d="M106.717 62.7832V59.279H103.248V62.7832H101.578V54.6055H103.248V57.8656H106.717V54.6055H108.387V62.7832H106.717Z" fill="white"/>
<path d="M119.44 58.6931C119.44 59.277 119.33 59.8268 119.113 60.3401C118.894 60.8541 118.592 61.3023 118.207 61.6836C117.821 62.0664 117.369 62.3677 116.852 62.5892C116.333 62.8111 115.771 62.9213 115.164 62.9213C114.556 62.9213 113.991 62.8107 113.469 62.5892C112.948 62.3673 112.494 62.0664 112.108 61.6836C111.723 61.3023 111.421 60.8541 111.203 60.3401C110.985 59.8268 110.876 59.2767 110.876 58.6931C110.876 58.1095 110.985 57.5594 111.203 57.0461C111.421 56.5321 111.723 56.0839 112.108 55.7026C112.494 55.3217 112.948 55.0188 113.469 54.797C113.991 54.5754 114.556 54.4648 115.164 54.4648C115.771 54.4648 116.333 54.5754 116.852 54.797C117.369 55.0192 117.821 55.3217 118.207 55.7026C118.592 56.0839 118.894 56.5321 119.113 57.0461C119.331 57.5594 119.44 58.1095 119.44 58.6931ZM117.652 58.6931C117.652 58.304 117.59 57.9413 117.466 57.6066C117.34 57.2715 117.167 56.9791 116.945 56.7312C116.724 56.481 116.46 56.2852 116.156 56.1405C115.853 55.9977 115.522 55.9241 115.164 55.9241C114.798 55.9241 114.462 55.9977 114.159 56.1405C113.854 56.2852 113.592 56.4814 113.371 56.7312C113.149 56.9794 112.975 57.2715 112.85 57.6066C112.726 57.9413 112.664 58.304 112.664 58.6931C112.664 59.0821 112.726 59.4449 112.85 59.7799C112.975 60.115 113.149 60.4071 113.371 60.655C113.592 60.9054 113.854 61.101 114.159 61.2457C114.462 61.3905 114.798 61.462 115.164 61.462C115.522 61.462 115.853 61.3905 116.156 61.2457C116.46 61.101 116.724 60.9051 116.945 60.655C117.167 60.4068 117.34 60.115 117.466 59.7799C117.59 59.4449 117.652 59.0825 117.652 58.6931Z" fill="white"/>
<path d="M121.905 62.7832V54.6055H123.575V61.3697H126.928V62.7832H121.905Z" fill="white"/>
<path d="M129.277 62.7832V54.6055H134.522V56.0195H130.947V57.8656H134.522V59.279H130.947V61.3697H134.522V62.7832H129.277Z" fill="white"/>
<path d="M139.101 59.4882V62.7829H137.43V54.6055H141.964V56.0192H139.101V58.0741H141.964V59.4882H139.101Z" fill="white"/>
<path d="M152.609 58.6931C152.609 59.277 152.501 59.8268 152.282 60.3401C152.063 60.8541 151.762 61.3023 151.377 61.6836C150.991 62.0664 150.54 62.3677 150.023 62.5892C149.503 62.8111 148.942 62.9213 148.333 62.9213C147.727 62.9213 147.162 62.8107 146.64 62.5892C146.119 62.3677 145.665 62.0664 145.279 61.6836C144.893 61.3023 144.591 60.8541 144.374 60.3401C144.156 59.8268 144.047 59.2767 144.047 58.6931C144.047 58.1095 144.156 57.5594 144.374 57.0461C144.591 56.5321 144.893 56.0839 145.279 55.7026C145.665 55.3217 146.118 55.0188 146.64 54.797C147.162 54.5754 147.727 54.4648 148.333 54.4648C148.942 54.4648 149.504 54.5754 150.023 54.797C150.54 55.0192 150.992 55.3217 151.377 55.7026C151.762 56.0839 152.063 56.5321 152.282 57.0461C152.501 57.5594 152.609 58.1095 152.609 58.6931ZM150.823 58.6931C150.823 58.304 150.759 57.9413 150.635 57.6066C150.511 57.2715 150.338 56.9791 150.114 56.7312C149.893 56.481 149.631 56.2852 149.326 56.1405C149.022 55.9977 148.692 55.9241 148.333 55.9241C147.967 55.9241 147.633 55.9977 147.329 56.1405C147.025 56.2852 146.763 56.4814 146.54 56.7312C146.318 56.9794 146.145 57.2715 146.021 57.6066C145.895 57.9413 145.833 58.304 145.833 58.6931C145.833 59.0821 145.895 59.4449 146.021 59.7799C146.145 60.115 146.318 60.4071 146.54 60.655C146.763 60.9054 147.025 61.101 147.329 61.2457C147.633 61.3905 147.967 61.462 148.333 61.462C148.692 61.462 149.022 61.3905 149.326 61.2457C149.631 61.101 149.893 60.9051 150.114 60.655C150.338 60.4068 150.511 60.115 150.635 59.7799C150.759 59.4449 150.823 59.0825 150.823 58.6931Z" fill="white"/>
<path d="M162.972 58.6931C162.972 59.277 162.864 59.8268 162.645 60.3401C162.428 60.8541 162.125 61.3023 161.74 61.6836C161.355 62.0664 160.904 62.3677 160.386 62.5892C159.867 62.8111 159.305 62.9213 158.698 62.9213C158.09 62.9213 157.525 62.8107 157.003 62.5892C156.482 62.3677 156.028 62.0664 155.643 61.6836C155.257 61.3023 154.955 60.8541 154.737 60.3401C154.519 59.8268 154.41 59.2767 154.41 58.6931C154.41 58.1095 154.519 57.5594 154.737 57.0461C154.955 56.5321 155.258 56.0839 155.643 55.7026C156.028 55.3217 156.482 55.0188 157.003 54.797C157.525 54.5754 158.09 54.4648 158.698 54.4648C159.305 54.4648 159.867 54.5754 160.386 54.797C160.904 55.0192 161.355 55.3217 161.74 55.7026C162.125 56.0839 162.428 56.5321 162.645 57.0461C162.864 57.5594 162.972 58.1095 162.972 58.6931ZM161.186 58.6931C161.186 58.304 161.123 57.9413 160.998 57.6066C160.875 57.2715 160.701 56.9791 160.478 56.7312C160.256 56.481 159.994 56.2852 159.69 56.1405C159.387 55.9977 159.055 55.9241 158.698 55.9241C158.33 55.9241 157.997 55.9977 157.692 56.1405C157.388 56.2852 157.126 56.4814 156.903 56.7312C156.681 56.9794 156.508 57.2715 156.384 57.6066C156.258 57.9413 156.196 58.304 156.196 58.6931C156.196 59.0821 156.258 59.4449 156.384 59.7799C156.508 60.115 156.681 60.4071 156.903 60.655C157.126 60.9054 157.388 61.101 157.692 61.2457C157.997 61.3905 158.33 61.462 158.698 61.462C159.055 61.462 159.387 61.3905 159.69 61.2457C159.994 61.101 160.256 60.9051 160.478 60.655C160.701 60.4068 160.875 60.115 160.998 59.7799C161.122 59.4449 161.186 59.0825 161.186 58.6931Z" fill="white"/>
<path d="M165.145 54.6055H167.528C168.056 54.6055 168.589 54.6774 169.122 54.8218C169.655 54.9659 170.136 55.1985 170.565 55.5215C170.993 55.8458 171.342 56.2635 171.61 56.7785C171.88 57.2918 172.013 57.919 172.013 58.6597C172.013 59.415 171.88 60.0542 171.61 60.5812C171.342 61.1066 170.991 61.5327 170.559 61.8597C170.127 62.1869 169.636 62.4227 169.088 62.5665C168.538 62.711 167.984 62.7829 167.423 62.7829H165.145V54.6055ZM166.815 61.3694H167.003C167.477 61.3694 167.912 61.3242 168.311 61.2357C168.708 61.1453 169.049 60.9976 169.332 60.791C169.618 60.5842 169.837 60.3168 169.993 59.9856C170.149 59.6541 170.226 59.2475 170.226 58.7634C170.226 57.8611 169.973 57.177 169.466 56.7134C168.961 56.2502 168.249 56.0189 167.328 56.0189H166.815V61.3694Z" fill="white"/>
<path d="M184.117 62.7832H182.925L180.542 56.7899V62.7832H178.872V54.6055H181.337L183.533 60.306L185.812 54.6055H188.229V62.7832H186.559V56.8136L184.117 62.7832Z" fill="white"/>
<path d="M196.169 62.7832L195.643 61.2644H192.734L192.185 62.7832H190.328L193.669 54.6055H195.023L198.098 62.7832H196.169ZM193.224 59.8981H195.175L194.23 57.1522H194.219L193.224 59.8981Z" fill="white"/>
<path d="M202.852 54.6058C203.18 54.6058 203.521 54.6507 203.875 54.7395C204.229 54.8286 204.551 54.9721 204.844 55.1666C205.136 55.3611 205.376 55.6139 205.563 55.9259C205.749 56.2368 205.843 56.6148 205.843 57.0582C205.843 57.377 205.792 57.6623 205.691 57.9112C205.589 58.1613 205.457 58.3786 205.294 58.565C205.13 58.753 204.941 58.9085 204.727 59.0328C204.513 59.1574 204.292 59.2582 204.068 59.337C204.247 59.5939 204.452 59.8815 204.68 60.2006C204.91 60.5207 205.141 60.8398 205.376 61.1586C205.61 61.4784 205.832 61.7816 206.041 62.0711C206.252 62.359 206.427 62.5965 206.567 62.7829H204.464L202.221 59.5233H201.929V62.7829H200.259V54.6055H202.852V54.6058ZM201.929 58.1099H202.583C203.004 58.1099 203.354 58.0302 203.634 57.8708C203.915 57.7111 204.056 57.4518 204.056 57.0937C204.056 56.7664 203.941 56.5052 203.71 56.3113C203.482 56.1165 203.18 56.0195 202.805 56.0195H201.929V58.1099H201.929Z" fill="white"/>
<path d="M212.396 57.9112L215.236 62.7829H213.286L211.264 59.2436L210.389 60.2826V62.7829H208.716V54.6055H210.389V57.9583L213.145 54.6055H215.166L212.396 57.9112Z" fill="white"/>
<path d="M217.293 62.7832V54.6055H222.538V56.0195H218.963V57.8656H222.538V59.279H218.963V61.3697H222.538V62.7832H217.293Z" fill="white"/>
<path d="M228.088 56.0195V62.7832H226.418V56.0195H224.48V54.6055H230.029V56.0195H228.088Z" fill="white"/>
</svg>
