<svg width="330" height="250" viewBox="0 0 330 250" fill="none" xmlns="http://www.w3.org/2000/svg">
<g opacity="0.25">
<path d="M287.699 104.769C264.24 128.212 226.201 128.212 202.742 104.769C184.974 87.0124 161.392 87.3372 145.242 103.477C129.092 119.616 128.442 143.506 146.211 161.263L157.842 172.887L111.004 219.693L-18.209 249.392C-45.5121 222.107 -31.5142 175.436 6.29822 167.648L68.6853 154.805C51.2414 116.712 58.9977 72.8093 87.0979 44.7279C131.029 0.825664 195.636 1.46903 244.742 50.5366L293.358 99.12L287.705 104.769H287.699Z" fill="#361D5C"/>
<path d="M-15.1587 0L-21.6447 6.48166C-43.9165 28.7386 -43.9165 64.8816 -21.6447 87.1385L111.002 219.696L157.843 172.886L-15.1587 0Z" fill="#27B1A6"/>
<path d="M327.498 133.243C330.834 129.909 330.834 124.505 327.498 121.172C324.163 117.839 318.755 117.839 315.42 121.172C276.712 159.854 213.73 159.854 175.029 121.172C171.693 117.839 166.285 117.839 162.95 121.172C159.614 124.505 159.614 129.909 162.95 133.243C208.316 178.579 282.132 178.579 327.498 133.243Z" fill="#F6C370"/>
<path d="M165.274 235.888C160.428 235.888 156.5 231.962 156.5 227.12C156.5 222.277 160.428 218.352 165.274 218.352C170.12 218.352 174.048 222.277 174.048 227.12C174.048 231.962 170.12 235.888 165.274 235.888Z" fill="#361D5C"/>
</g>
</svg>
