<?xml version="1.0" encoding="UTF-8"?><svg id="Layer_1" xmlns="http://www.w3.org/2000/svg" viewBox="0 0 100 100"><defs><style>.cls-1{fill:none;stroke:#361d5c;stroke-linecap:round;stroke-linejoin:round;}.cls-2{fill:#361d5c;}</style></defs><line class="cls-1" x1="5" y1="95" x2="95" y2="95"/><polyline class="cls-1" points="12.94 51.38 12.94 95 87.06 95 87.06 51.57"/><rect class="cls-1" x="20.36" y="58.64" width="19.93" height="36.36"/><rect class="cls-1" x="50.91" y="59.17" width="33.52" height="31.64" transform="translate(142.66 7.32) rotate(90)"/><line class="cls-1" x1="48.1" y1="26" x2="39.71" y2="26"/><line class="cls-1" x1="58.27" y1="26" x2="56.35" y2="26"/><polyline class="cls-1" points="36.46 26 19.76 26 5 38.3 95 38.3 79.26 26 63.45 26"/><rect class="cls-1" x="23.77" y="62.01" width="5.32" height="5.32"/><rect class="cls-1" x="31.56" y="62.01" width="5.32" height="5.32"/><rect class="cls-1" x="23.77" y="70.16" width="5.32" height="5.32"/><rect class="cls-1" x="31.56" y="70.16" width="5.32" height="5.32"/><rect class="cls-1" x="23.77" y="78.3" width="5.32" height="5.32"/><rect class="cls-1" x="31.56" y="78.3" width="5.32" height="5.32"/><rect class="cls-1" x="5" y="38.3" width="90" height="6.84"/><rect class="cls-1" x="78.14" y="76.99" width="5.35" height="14.76"/><rect class="cls-1" x="64.78" y="84.84" width="2.5" height="6.9"/><path class="cls-1" d="m67.99,81.52h-4.93l-3.66-11.37h-2.54l4.73,14.69h9.73c0-1.84-1.49-3.32-3.32-3.32Z"/><polyline class="cls-1" points="68.67 81.59 67.19 76.99 61.6 76.99"/><polyline class="cls-1" points="75.15 88.3 70.83 88.3 69.72 84.84"/><path class="cls-2" d="m36.1,11.31l.49,20.2c0,.27.23.48.5.48h2.48c.27,0,.49-.21.5-.48l.49-20.2,1.93-3.86h0c.03-.07.05-.15.05-.22,0-2.19-1.78-3.96-3.96-3.96h-.5c-2.19,0-3.96,1.78-3.96,3.96,0,.08.02.15.05.22l1.93,3.86Zm2.98,19.69h-1.51l-.41-16.84h2.33l-.41,16.84Zm.43-17.83h-2.38l-.04-1.49h2.45l-.04,1.49Zm-1.44-8.92h.5c1.6,0,2.91,1.26,2.97,2.86l-1.49,2.97v-1.86h-.99v2.48h-1.49v-3.47h-.99v2.86l-1.49-2.97c.06-1.6,1.37-2.86,2.97-2.86h0Z"/><path class="cls-2" d="m42.29,29.02v2.48c0,.13.05.26.14.35s.22.14.35.14h4.71v-.99h-4.21v-1.49h12.38v1.49h-5.2v.99h5.7c.13,0,.26-.05.35-.14s.14-.22.14-.35v-2.48c0-.19-.11-.36-.28-.44,0-.01.02-.02.03-.03,1.32-1.62-.1-4.87-3.23-7.41-3.12-2.54-6.6-3.27-7.92-1.65s.1,4.87,3.23,7.41h0c.78.63,1.62,1.18,2.52,1.63h-8.22c-.27,0-.5.22-.5.5h0Zm6.83-2.89c-2.83-2.3-3.9-5.02-3.08-6.02h0c.36-.36.86-.54,1.37-.49,1.31,0,3.24.73,5.15,2.28,2.83,2.3,3.9,5.02,3.08,6.02-.41.51-1.31.64-2.46.36h0c-1.49-.41-2.88-1.15-4.06-2.15h0Z"/><path class="cls-2" d="m48.48,31h.99v.99h-.99v-.99Z"/><path class="cls-2" d="m54.47,27.42c.27-.03.47-.27.45-.54-.06-.66-.76-2.4-2.99-4.22-1.88-1.53-3.62-2.08-4.53-2.08-.07,0-.14,0-.21,0-.27.03-.47.27-.44.53.06.67.76,2.4,2.99,4.22,1.88,1.53,3.62,2.07,4.53,2.07.08,0,.15,0,.21,0h0Zm-4.11-2.83c-1.02-.79-1.86-1.79-2.44-2.94,1.25.34,2.4.95,3.38,1.79,1.02.79,1.86,1.79,2.44,2.94-1.25-.34-2.4-.95-3.38-1.79h0Z"/><path class="cls-2" d="m59.38,32.07h2.97c.82,0,1.49-.66,1.49-1.49v-9c0-.13-.05-.26-.14-.35s-.22-.14-.35-.14v-4.95c0-.13-.05-.26-.14-.35s-.22-.14-.35-.14v-3.06c0-.6-.36-1.14-.92-1.37-.55-.23-1.19-.1-1.62.32l-.99.99c-.28.28-.44.66-.44,1.05v2.07c-.27,0-.5.22-.5.5v4.95c-.27,0-.5.22-.5.5v9c0,.82.66,1.49,1.49,1.49h0Zm.5-18.49c0-.13.05-.26.14-.35l.99-.99c.14-.14.36-.18.54-.11.19.08.31.26.31.46v3.06h-1.98v-2.07Zm-.5,3.06h2.97v4.46h-2.97v-4.46Zm-.5,5.45h3.96v8.5c0,.13-.05.26-.14.35-.09.09-.22.14-.35.14h-2.97c-.27,0-.5-.22-.5-.5v-8.5Z"/><path class="cls-2" d="m60.86,23.57h.99v4.46h-.99v-4.46Z"/><path class="cls-2" d="m60.86,29.02h.99v.99h-.99v-.99Z"/><line class="cls-1" x1="51.69" y1="26" x2="54.04" y2="26"/><path class="cls-1" d="m17.86,45.14c0,3.55-2.88,6.43-6.43,6.43s-6.43-2.88-6.43-6.43"/><path class="cls-1" d="m30.71,45.14c0,3.55-2.88,6.43-6.43,6.43s-6.43-2.88-6.43-6.43"/><path class="cls-1" d="m43.57,45.14c0,3.55-2.88,6.43-6.43,6.43s-6.43-2.88-6.43-6.43"/><path class="cls-1" d="m56.43,45.14c0,3.55-2.88,6.43-6.43,6.43s-6.43-2.88-6.43-6.43"/><path class="cls-1" d="m69.29,45.14c0,3.55-2.88,6.43-6.43,6.43s-6.43-2.88-6.43-6.43"/><path class="cls-1" d="m82.14,45.14c0,3.55-2.88,6.43-6.43,6.43s-6.43-2.88-6.43-6.43"/><path class="cls-1" d="m95,45.14c0,3.55-2.88,6.43-6.43,6.43s-6.43-2.88-6.43-6.43"/></svg>