<?xml version="1.0" encoding="UTF-8"?><svg id="Layer_2" xmlns="http://www.w3.org/2000/svg" viewBox="0 0 82.03 86.51"><defs><style>.cls-1{fill:none;stroke:#361d5c;stroke-linecap:round;stroke-linejoin:round;}.cls-2{fill:#361d5c;}</style></defs><g id="Layer_1-2"><circle class="cls-1" cx="61.69" cy="72.15" r="2.74"/><circle class="cls-1" cx="61.69" cy="72.15" r="13.86"/><circle class="cls-1" cx="18.88" cy="72.15" r="2.74"/><circle class="cls-1" cx="18.88" cy="72.15" r="13.86"/><polyline class="cls-1" points="61.69 72.15 50.23 45.39 60.16 45.39"/><path class="cls-1" d="m60.16,45.39c1.95,0,3.52,1.58,3.52,3.52,0,1.22-.62,2.29-1.55,2.92"/><circle class="cls-1" cx="40.32" cy="72.15" r="3.96"/><line class="cls-1" x1="21.62" y1="72.15" x2="36.36" y2="72.15"/><polyline class="cls-1" points="19.74 69.55 28.54 52.66 53.27 52.66"/><line class="cls-1" x1="43.17" y1="69.41" x2="52.18" y2="52.66"/><line class="cls-1" x1="37.67" y1="69.41" x2="25.3" y2="46.43"/><line class="cls-1" x1="30.36" y1="46.43" x2="19.4" y2="46.43"/><path class="cls-2" d="m67.65,2.24c-9,0-14.38,5.37-14.38,14.38,0,2.96.89,5.8,2.58,8.22.09.13.24.21.41.21h2.87s3.04,1.21,3.04,1.21l6.47,3.81v.43c0,.27.22.5.5.5v2.48c0,.27.22.5.5.5h1.98c.27,0,.5-.22.5-.5v-2.48c.27,0,.5-.22.5-.5v-2.97c0-.27-.22-.5-.5-.5v-4.88s.86-2.58.86-2.58c.87-.12,1.4-.65,1.91-1.18.64-.66,1.25-1.28,2.68-1.28h3.97c.27,0,.5-.22.5-.5,0-9-5.37-14.38-14.38-14.38h0Zm-13.06,10.91c.07-.34.14-.67.23-.99h1.43c.27,0,.5.22.5.5,0,.27-.22.5-.5.5h-1.66s0,0,0,0Zm25.9-.99c.09.32.16.65.23.99h-2.65c-.27,0-.5-.22-.5-.5,0-.27.22-.5.5-.5h2.42s0,0,0,0Zm-10.36,18.84h.99v1.98h-.99v-1.98Zm-.5-2.97h1.98v1.98h-1.98v-1.98Zm.5-.99v-4.46h.99v4.46h-.99Zm-.8-7.44h2.59s-.66,1.98-.66,1.98h-1.27s-.66-1.98-.66-1.98Zm-5.11,4.44s0,0,0-.01l-1.52-2.58v-.86c0-.55.44-.99.99-.99h4.6s.85,2.56.85,2.56v4.83s-4.92-2.95-4.92-2.95Zm-.86,1.78l.54-.81,4.74,2.85v1.07s-5.28-3.11-5.28-3.11Zm-2.33-1.07c.68-.34,1.22-.93,1.48-1.65l.69,1.17-.71,1.07-1.46-.58Zm-4.51-.68c-1.11-1.65-1.82-3.51-2.11-5.45h1.84c.82,0,1.49-.67,1.49-1.49s-.67-1.49-1.49-1.49h-1.96c.02-.51.07-1.01.13-1.49h1.82c.82,0,1.49-.67,1.49-1.49s-.67-1.49-1.49-1.49h-1.13c1.76-5.05,6.17-7.93,12.53-7.93s10.77,2.88,12.53,7.93h-2.12c-.82,0-1.49.67-1.49,1.49,0,.82.67,1.49,1.49,1.49h2.81c.08.64.14,1.3.15,1.98h-3.46c-1.85,0-2.7.87-3.39,1.58-.51.52-.89.9-1.57.9h-8.92c-1.09,0-1.98.89-1.98,1.98v1.49c0,1.09-.89,1.98-1.98,1.98h-3.2s0,0,0,0Zm-2.22-6.45c-.02-.33-.04-.66-.04-.99h1.98c.27,0,.5.22.5.5s-.22.5-.5.5h-1.95Z"/><path class="cls-2" d="m66.16,7.2v1.49c0,.82.67,1.49,1.49,1.49s1.49-.67,1.49-1.49v-1.49c0-.82-.67-1.49-1.49-1.49s-1.49.67-1.49,1.49Zm.99,0c0-.27.22-.5.5-.5s.5.22.5.5v1.49c0,.27-.22.5-.5.5s-.5-.22-.5-.5v-1.49Z"/><path class="cls-2" d="m70.57,7.26l.99.99c.28.28.65.44,1.05.44s.77-.15,1.05-.44c.58-.58.58-1.52,0-2.1l-.99-.99c-.56-.56-1.54-.56-2.1,0-.58.58-.58,1.52,0,2.1Zm.7-.7c-.19-.19-.19-.51,0-.7.09-.09.22-.15.35-.15s.26.05.35.15l.99.99c.19.19.19.51,0,.7-.19.19-.51.19-.7,0l-.99-.99h0Z"/><path class="cls-2" d="m61.64,6.14c-.58.58-.58,1.52,0,2.1.28.28.65.44,1.05.44s.77-.15,1.05-.44l.99-.99c.58-.58.58-1.52,0-2.1-.56-.56-1.54-.56-2.1,0l-.99.99Zm.7,1.4c-.19-.19-.19-.51,0-.7l.99-.99c.09-.09.22-.15.35-.15s.26.05.35.15c.19.19.19.51,0,.7l-.99.99c-.19.19-.51.19-.7,0h0Z"/><path class="cls-2" d="m70.13,17.11c0-.66.99-.66.99,0,0,.66-.99.66-.99,0"/><path class="cls-2" d="m59.72,22.57c0-.66.99-.66.99,0s-.99.66-.99,0"/><rect class="cls-1" x=".38" y="3.3" width="11.33" height="2.8" transform="translate(-1.57 3.93) rotate(-32.11)"/><rect class="cls-1" x="6.54" y="9.44" width="6.7" height="2.8" transform="translate(-4.25 6.92) rotate(-32.11)"/><rect class="cls-1" x="13.44" y="10.56" width="4.57" height="19.13" transform="translate(-8.29 11.44) rotate(-32.11)"/><rect class="cls-1" x="17.96" y="28.01" width="7.27" height="2.96" transform="translate(-12.37 15.99) rotate(-32.11)"/><line class="cls-1" x1="6.79" y1="5.88" x2="8.99" y2="9.39"/><path class="cls-1" d="m23.29,26.49s-6.51-13.39,2.98-17.62"/><rect class="cls-1" x="23.21" y="9.46" width="2.43" height=".95" transform="translate(-1.54 14.5) rotate(-32.11)"/></g></svg>