<?xml version="1.0" encoding="UTF-8"?><svg id="Layer_1" xmlns="http://www.w3.org/2000/svg" viewBox="0 0 100 100"><defs><style>.cls-1,.cls-2{fill:none;stroke:#361d5c;stroke-linecap:round;stroke-linejoin:round;}.cls-2{fill-rule:evenodd;}</style></defs><path class="cls-2" d="m41.51,85.16c-3.01-3.35-8.84-3.26-13.01-3.26-2.32.3-4.72,1.42-7.17,3.35-2.79.69-5.58,1.42-8.37,2.1-1.55,1.72-1.2,2.88-1.07,4.94h3.65c.34,1.07,1.37,1.85,2.58,1.85s2.19-.77,2.53-1.89l12.02-.04c.34,1.12,1.37,1.93,2.58,1.93s2.23-.82,2.58-1.93h4.42c.34-2.36.73-4.94-.73-7.04h0Z"/><path class="cls-2" d="m88.16,85.16c-3.01-3.35-8.84-3.26-13.01-3.26-2.32.3-4.72,1.42-7.17,3.35-2.79.69-5.58,1.42-8.37,2.1-1.55,1.72-1.2,2.88-1.07,4.94h3.65c.34,1.07,1.37,1.85,2.58,1.85s2.19-.77,2.53-1.89l12.02-.04c.34,1.12,1.37,1.93,2.58,1.93s2.23-.82,2.58-1.93h4.42c.34-2.36.73-4.94-.73-7.04h0Z"/><rect class="cls-1" x="21.53" y="41.3" width="35.23" height="11.67"/><rect class="cls-1" x="45.83" y="74.23" width="10.53" height="16.28"/><circle class="cls-1" cx="50.54" cy="78.18" r="1.06"/><line class="cls-1" x1="50.54" y1="79.24" x2="50.54" y2="90.51"/><circle class="cls-1" cx="26.1" cy="78.18" r="1.06"/><line class="cls-1" x1="26.1" y1="79.24" x2="26.1" y2="82.51"/><circle class="cls-1" cx="26.1" cy="48.19" r="1.06"/><line class="cls-1" x1="26.1" y1="49.25" x2="26.1" y2="52.53"/><path class="cls-2" d="m50.54,80.47s.12,3.6,1.97,4.07"/><path class="cls-2" d="m50.54,84.87s-1.09,5.64-2.65,5.64"/><circle class="cls-1" cx="82.57" cy="78.18" r="1.06"/><line class="cls-1" x1="82.57" y1="79.24" x2="82.57" y2="82.37"/><path class="cls-2" d="m12.96,87.35c2.79-.69,5.58-1.42,8.37-2.1,2.45-1.93,4.85-3.05,7.17-3.35,1.21,0,2.56,0,3.95.07v-7.73H11v16.28h.77c-.03-1.1.15-2,1.19-3.16Z"/><path class="cls-2" d="m12.96,87.35c2.79-.69,5.58-1.42,8.37-2.1.07-.05.13-.1.2-.15v-10.87h-10.53v16.28h.77c-.03-1.1.15-2,1.19-3.16Z"/><path class="cls-2" d="m59.6,87.35c2.56-.63,5.12-1.29,7.68-1.93v-11.19h-21.45v16.28h12.58c-.03-1.1.15-2,1.19-3.16Z"/><path class="cls-1" d="m58.41,90.51c-.03-1.1.15-2,1.19-3.16,2.79-.69,5.58-1.42,8.37-2.1,1.8-1.42,3.57-2.39,5.31-2.93V31.19H5v59.32h6.77c-.03-1.1.15-2,1.19-3.16,2.79-.69,5.58-1.42,8.37-2.1,2.45-1.93,4.85-3.05,7.17-3.35,4.16,0,10-.09,13.01,3.26h0c1.12,1.61,1.15,3.5.95,5.35h15.95Z"/><path class="cls-1" d="m15.67,19.61h18.74c2.23,0,4.03-1.8,4.03-4.03,0-2.01-1.48-3.68-3.41-3.97.03-.26.06-.53.06-.8,0-3.47-2.81-6.28-6.29-6.28-2.25,0-4.22,1.18-5.33,2.96-.59-.25-1.24-.38-1.92-.38-2.61,0-4.75,2-4.98,4.55-.29-.07-.59-.1-.9-.1-2.22,0-4.03,1.8-4.03,4.03s1.8,4.03,4.03,4.03h0Z"/><path class="cls-1" d="m64.85,14.14h10.8c1.28,0,2.32-1.04,2.32-2.32,0-1.16-.85-2.12-1.97-2.29.02-.15.03-.3.03-.46,0-2-1.62-3.62-3.62-3.62-1.3,0-2.43.68-3.07,1.7-.34-.14-.71-.22-1.11-.22-1.51,0-2.74,1.15-2.87,2.62-.17-.04-.34-.06-.52-.06-1.28,0-2.32,1.04-2.32,2.32s1.04,2.32,2.32,2.32h0Z"/><path class="cls-2" d="m26.1,50.48s-2.03.89-2.09,2.5"/><circle class="cls-1" cx="38.64" cy="48.19" r="1.06"/><line class="cls-1" x1="38.64" y1="49.25" x2="38.64" y2="52.53"/><path class="cls-2" d="m38.64,50.48s2.03.89,2.09,2.5"/><g><line class="cls-1" x1="34.73" y1="41.3" x2="34.73" y2="52.97"/><line class="cls-1" x1="43.56" y1="41.3" x2="43.56" y2="52.97"/></g><rect class="cls-1" x="5" y="26.43" width="68.28" height="4.76"/><rect class="cls-1" x="73.28" y="60.26" width="24.71" height="7.34"/><line class="cls-1" x1="96.32" y1="67.6" x2="96.32" y2="90.51"/><path class="cls-1" d="m79.59,58.37h3.16c.98,0,1.77.79,1.77,1.77h-6.7c0-.98.79-1.77,1.77-1.77Z"/><path class="cls-1" d="m81.48,52.09h1.11c.93,0,1.69.76,1.69,1.69h-1.11c-.93,0-1.69-.76-1.69-1.69h0Z" transform="translate(-13.16 74.11) rotate(-45)"/><path class="cls-1" d="m79.86,52.09h1.11c0,.93-.76,1.69-1.69,1.69h-1.11c0-.93.76-1.69,1.69-1.69Z" transform="translate(98.4 146.63) rotate(-135)"/><path class="cls-1" d="m81.4,47.61h2.28c.93,0,1.69.76,1.69,1.69v.7h-2.28c-.93,0-1.69-.76-1.69-1.69v-.7h0Z" transform="translate(-10.08 73.26) rotate(-45)"/><path class="cls-1" d="m78.66,47.61h2.28v.7c0,.93-.76,1.69-1.69,1.69h-2.28v-.7c0-.93.76-1.69,1.69-1.69Z" transform="translate(100.27 139.14) rotate(-135)"/><rect class="cls-1" x="80.12" y="44.9" width="2.1" height="3.88" rx="1.05" ry="1.05"/><line class="cls-1" x1="81.17" y1="48.78" x2="81.17" y2="58.37"/><path class="cls-1" d="m91.55,58.37h3.16c.98,0,1.77.79,1.77,1.77h-6.7c0-.98.79-1.77,1.77-1.77Z"/><path class="cls-1" d="m93.44,52.09h1.11c.93,0,1.69.76,1.69,1.69h-1.11c-.93,0-1.69-.76-1.69-1.69h0Z" transform="translate(-9.65 82.57) rotate(-45)"/><path class="cls-1" d="m91.82,52.09h1.11c0,.93-.76,1.69-1.69,1.69h-1.11c0-.93.76-1.69,1.69-1.69Z" transform="translate(118.82 155.09) rotate(-135)"/><path class="cls-1" d="m93.36,47.61h2.28c.93,0,1.69.76,1.69,1.69v.7h-2.28c-.93,0-1.69-.76-1.69-1.69v-.7h0Z" transform="translate(-6.58 81.72) rotate(-45)"/><path class="cls-1" d="m90.62,47.61h2.28v.7c0,.93-.76,1.69-1.69,1.69h-2.28v-.7c0-.93.76-1.69,1.69-1.69Z" transform="translate(120.69 147.6) rotate(-135)"/><rect class="cls-1" x="92.08" y="44.9" width="2.1" height="3.88" rx="1.05" ry="1.05"/><line class="cls-1" x1="93.13" y1="48.78" x2="93.13" y2="58.37"/></svg>