<?xml version="1.0" encoding="UTF-8"?>
<svg id="Layer_1" data-name="Layer 1" xmlns="http://www.w3.org/2000/svg" viewBox="0 0 100 100">
  <defs>
    <style>
      .cls-1 {
        fill: none;
        stroke: #361d5c;
        stroke-linecap: round;
        stroke-linejoin: round;
      }
    </style>
  </defs>
  <line class="cls-1" x1="5" y1="95" x2="95" y2="95"/>
  <polyline class="cls-1" points="12.94 45.31 12.94 95 87.06 95 87.06 45.31"/>
  <rect class="cls-1" x="24.73" y="58.64" width="19.93" height="36.36"/>
  <rect class="cls-1" x="58.7" y="54.63" width="15.02" height="22.23" transform="translate(131.95 -.46) rotate(90)"/>
  <polyline class="cls-1" points="34.7 21.06 19.76 21.06 5 34.39 95 34.39 79.26 21.06 65.3 21.06"/>
  <path class="cls-1" d="m5,34.39h12.86v4.62c0,3.48-2.82,6.3-6.3,6.3h-.26c-3.48,0-6.3-2.82-6.3-6.3v-4.62h0Z"/>
  <path class="cls-1" d="m82.14,34.39h12.86v4.62c0,3.48-2.82,6.3-6.3,6.3h-.26c-3.48,0-6.3-2.82-6.3-6.3v-4.62h0Z"/>
  <path class="cls-1" d="m69.29,34.39h12.86v4.62c0,3.48-2.82,6.3-6.3,6.3h-.26c-3.48,0-6.3-2.82-6.3-6.3v-4.62h0Z"/>
  <path class="cls-1" d="m56.43,34.39h12.86v4.62c0,3.48-2.82,6.3-6.3,6.3h-.26c-3.48,0-6.3-2.82-6.3-6.3v-4.62h0Z"/>
  <path class="cls-1" d="m43.57,34.39h12.86v4.62c0,3.48-2.82,6.3-6.3,6.3h-.26c-3.48,0-6.3-2.82-6.3-6.3v-4.62h0Z"/>
  <path class="cls-1" d="m30.71,34.39h12.86v4.62c0,3.48-2.82,6.3-6.3,6.3h-.26c-3.48,0-6.3-2.82-6.3-6.3v-4.62h0Z"/>
  <path class="cls-1" d="m17.86,34.39h12.86v4.62c0,3.48-2.82,6.3-6.3,6.3h-.26c-3.48,0-6.3-2.82-6.3-6.3v-4.62h0Z"/>
  <g>
    <line class="cls-1" x1="47.59" y1="9.31" x2="40.96" y2="9.31"/>
    <line class="cls-1" x1="47.59" y1="12.75" x2="40.96" y2="12.75"/>
    <line class="cls-1" x1="47.59" y1="16.18" x2="40.96" y2="16.18"/>
    <line class="cls-1" x1="47.59" y1="19.62" x2="40.96" y2="19.62"/>
    <g>
      <path class="cls-1" d="m38.55,5h8.45c1.66,0,3,1.34,3,3v15.26h-11.45V5h0Z"/>
      <path class="cls-1" d="m50,5h11.45v15.26c0,1.66-1.34,3-3,3h-8.45V5h0Z" transform="translate(111.45 28.26) rotate(-180)"/>
    </g>
    <line class="cls-1" x1="52.41" y1="9.31" x2="59.04" y2="9.31"/>
    <line class="cls-1" x1="52.41" y1="12.75" x2="59.04" y2="12.75"/>
    <line class="cls-1" x1="52.41" y1="16.18" x2="59.04" y2="16.18"/>
    <line class="cls-1" x1="52.41" y1="19.62" x2="59.04" y2="19.62"/>
    <polyline class="cls-1" points="38.55 9.19 34.7 9.19 34.7 26.34 65.3 26.34 65.3 9.19 61.45 9.19"/>
  </g>
</svg>