<?xml version="1.0" encoding="UTF-8"?><svg id="Layer_1" xmlns="http://www.w3.org/2000/svg" viewBox="0 0 100 100"><defs><style>.cls-1{fill:none;stroke:#361d5c;stroke-linecap:round;stroke-linejoin:round;}</style></defs><rect class="cls-1" x="5.87" y="37.25" width="88.26" height="56.88"/><rect class="cls-1" x="18.02" y="5.87" width="9.35" height="17.8"/><rect class="cls-1" x="45.32" y="5.87" width="9.35" height="17.8"/><rect class="cls-1" x="72.63" y="5.87" width="9.35" height="17.8"/><rect class="cls-1" x="11.11" y="43.27" width="14.96" height="14.96"/><rect class="cls-1" x="31.45" y="43.27" width="14.96" height="14.96"/><polyline class="cls-1" points="26.07 73 26.07 82.16 11.11 82.16 11.11 67.2 24.34 67.2"/><rect class="cls-1" x="51.79" y="67.2" width="14.96" height="14.96"/><rect class="cls-1" x="72.14" y="67.2" width="14.96" height="14.96"/><polyline class="cls-1" points="16.11 73.41 19.15 76.45 26.07 69.54"/><polyline class="cls-1" points="46.41 73 46.41 82.16 31.45 82.16 31.45 67.2 44.68 67.2"/><polyline class="cls-1" points="36.45 73.41 39.5 76.45 46.41 69.54"/><polyline class="cls-1" points="66.75 49.06 66.75 58.23 51.79 58.23 51.79 43.27 65.03 43.27"/><polyline class="cls-1" points="56.8 49.47 59.84 52.52 66.75 45.61"/><polyline class="cls-1" points="87.1 49.06 87.1 58.23 72.14 58.23 72.14 43.27 85.37 43.27"/><polyline class="cls-1" points="77.14 49.47 80.19 52.52 87.1 45.61"/><polygon class="cls-1" points="81.98 11.86 81.98 23.67 72.63 23.67 72.63 11.86 54.68 11.86 54.68 23.67 45.32 23.67 45.32 11.86 27.37 11.86 27.37 23.67 18.02 23.67 18.02 11.86 5.87 11.86 5.87 37.25 94.13 37.25 94.13 11.86 81.98 11.86"/></svg>