<?xml version="1.0" encoding="UTF-8"?><svg id="Layer_1" xmlns="http://www.w3.org/2000/svg" viewBox="0 0 100 100"><defs><style>.cls-1{fill:none;stroke:#361d5c;stroke-linecap:round;stroke-linejoin:round;}</style></defs><line class="cls-1" x1="5" y1="95" x2="95" y2="95"/><polyline class="cls-1" points="12.94 45.31 12.94 95 87.06 95 87.06 45.31"/><rect class="cls-1" x="24.73" y="58.64" width="19.93" height="36.36"/><rect class="cls-1" x="58.7" y="54.63" width="15.02" height="22.23" transform="translate(131.95 -.46) rotate(90)"/><polygon class="cls-1" points="79.26 28.75 19.76 28.75 5 34.39 95 34.39 79.26 28.75"/><rect class="cls-1" x="5" y="34.39" width="90" height="9.84"/><circle class="cls-1" cx="49.49" cy="15" r="10.72"/><path class="cls-1" d="m52.33,8.98c-1.42,0-2.32.74-2.84,1.41-.52-.67-1.42-1.41-2.84-1.41-2.42,0-4.04,2.4-4.04,4.64,0,3.27,5.85,7.64,6.52,8.13.11.08.24.12.36.12s.25-.04.36-.12c.67-.49,6.52-4.86,6.52-8.13,0-2.24-1.63-4.64-4.04-4.64h0Z"/><path class="cls-1" d="m60.21,15c0,5.92-4.8,10.72-10.72,10.72s-10.72-4.8-10.72-10.72h-20.03v13.75h61.51v-13.75h-20.03Z"/></svg>