<?xml version="1.0" encoding="UTF-8"?><svg id="Layer_1" xmlns="http://www.w3.org/2000/svg" viewBox="0 0 100 100"><defs><style>.cls-1{fill:none;stroke:#361d5c;stroke-linecap:round;stroke-linejoin:round;}</style></defs><g><path class="cls-1" d="m48.06,81.02c0-2.93-1.42-5.53-3.6-7.15v-12.73c0-1.26-.97-2.36-2.23-2.4s-2.37,1.01-2.37,2.3v11.11c-.23-.02-.45-.03-.68-.03-2.96,0-5.58,1.44-7.19,3.66h-3.4c-1.62-2.22-4.24-3.66-7.19-3.66-.23,0-.46.01-.68.03v-1.13l9.56-3.37,9.59,3.38v-3.5l-4.62-1.63,4.6-1.62.03-3.51-9.59,3.38-9.58-3.38c-.14-1.25-1.28-2.2-2.61-2.02-1.15.16-1.98,1.2-1.98,2.37v12.74c-2.19,1.62-3.6,4.22-3.6,7.15,0,1.85.57,3.57,1.54,5,.65.96.98,2.1.98,3.26v2.87h30.54v-2.88c0-1.16.33-2.3.98-3.26.97-1.42,1.53-3.14,1.53-4.99Zm-22.77-15.11l-4.6,1.62v-3.27.03s4.6,1.62,4.6,1.62Z"/><path class="cls-1" d="m28.97,85.66c.52-.85.9-1.79,1.11-2.8"/><path class="cls-1" d="m30.46,82.86c.21,1,.59,1.95,1.11,2.8"/><line class="cls-1" x1="35.22" y1="65.91" x2="30.26" y2="67.66"/><line class="cls-1" x1="25.29" y1="65.91" x2="30.26" y2="64.16"/><line class="cls-1" x1="20.68" y1="60.79" x2="20.68" y2="72.16"/><line class="cls-1" x1="15" y1="89.28" x2="21.35" y2="89.28"/><line class="cls-1" x1="39.15" y1="89.28" x2="45.5" y2="89.28"/></g><g><rect class="cls-1" x="61.84" y="22.75" width="31.4" height="71.76"/><path class="cls-1" d="m61.84,22.75h7.38v6.65c0,3.76-3.05,6.81-6.81,6.81h-.57v-13.45h0Z"/><path class="cls-1" d="m85.86,22.75h.57c3.76,0,6.81,3.05,6.81,6.81v6.65h-7.38v-13.45h0Z" transform="translate(179.11 58.95) rotate(180)"/><rect class="cls-1" x="61.84" y="22.75" width="31.4" height="2.8"/><line class="cls-1" x1="77.54" y1="22.75" x2="77.54" y2="36.2"/><line class="cls-1" x1="77.54" y1="43.47" x2="77.54" y2="94.51"/><line class="cls-1" x1="61.84" y1="90.52" x2="65.53" y2="90.52"/><line class="cls-1" x1="89.55" y1="90.52" x2="93.25" y2="90.52"/><line class="cls-1" x1="68.77" y1="90.52" x2="72.46" y2="90.52"/><line class="cls-1" x1="82.63" y1="90.52" x2="86.32" y2="90.52"/><line class="cls-1" x1="75.7" y1="90.52" x2="79.39" y2="90.52"/></g><path class="cls-1" d="m36.8,4.28s-.31,5.28-6.53,5.28-6.52-5.28-6.52-5.28C11.47,4.28,3.7,18.11,3.7,18.11l9.48,6.06,3.42-4.2v30.61h13.67s13.67,0,13.67,0v-30.61l3.42,4.2,9.48-6.06s-7.77-13.83-20.04-13.83h0Z"/></svg>