<?xml version="1.0" encoding="UTF-8"?><svg id="Layer_1" xmlns="http://www.w3.org/2000/svg" viewBox="0 0 100 100"><defs><style>.cls-1{fill:none;stroke:#361d5c;stroke-linecap:round;stroke-linejoin:round;}</style></defs><g><path class="cls-1" d="m60.31,68.21c0,4.86-3.94,8.79-8.79,8.79s-8.79-3.94-8.79-8.79c0-14.57,11.81-26.38,26.38-26.38s26.38,11.81,26.38,26.38c0,4.86-3.94,8.79-8.79,8.79s-8.79-3.94-8.79-8.79c0,4.86-3.94,8.79-8.79,8.79s-8.79-3.94-8.79-8.79Z"/><path class="cls-1" d="m86.69,77c-4.86,0-8.79-3.94-8.79-8.79,0,4.86-3.94,8.79-8.79,8.79s-8.79-3.94-8.79-8.79c0,4.58-3.51,8.34-7.98,8.75l3.6,18.04h27.76l3.6-18.03c-.2.01-.4.03-.6.03Z"/><line class="cls-1" x1="69.81" y1="95" x2="69.81" y2="81.64"/><line class="cls-1" x1="62.33" y1="95" x2="60.19" y2="81.64"/><line class="cls-1" x1="77.29" y1="95" x2="79.43" y2="81.64"/></g><rect class="cls-1" x="14.44" y="91.34" width="31.35" height="3.66"/><polyline class="cls-1" points="51.07 48.96 51.8 35.77 8.42 35.77 11.52 91.34 48.71 91.34 49.52 76.77"/><polygon class="cls-1" points="4.1 35.77 56.13 35.77 52.41 21.91 7.81 21.91 4.1 35.77"/><polygon class="cls-1" points="10.96 17.12 9.96 21.91 50.26 21.91 49.27 17.12 10.96 17.12"/><line class="cls-1" x1="6.47" y1="26.92" x2="32.01" y2="26.92"/><line class="cls-1" x1="35.41" y1="26.92" x2="40.36" y2="26.92"/><line class="cls-1" x1="42.79" y1="26.92" x2="53.3" y2="26.92"/><path class="cls-1" d="m35.05,14.54c2.4-1.91,1.65-4.13,1.03-5.91-.62-1.81-.93-2.97.21-4.31"/><path class="cls-1" d="m39.12,8.63c-.14-.4-.26-.76-.35-1.11-.33-1.22-.33-2.16.56-3.2"/><path class="cls-1" d="m38.09,14.54c1.09-.87,1.53-1.8,1.63-2.73"/><path class="cls-1" d="m41.14,14.54c2.4-1.91,1.65-4.13,1.03-5.91-.62-1.81-.93-2.97.21-4.31"/></svg>