<?xml version="1.0" encoding="UTF-8"?><svg id="Layer_1" xmlns="http://www.w3.org/2000/svg" viewBox="0 0 100 100"><defs><style>.cls-1{fill:none;stroke:#361d5c;stroke-linecap:round;stroke-linejoin:round;}.cls-2{fill:#361d5c;}</style></defs><g><rect class="cls-1" x="5" y="62.1" width="65.8" height="32.9"/><polyline class="cls-1" points="70.8 62.1 37.9 48.33 5 62.1"/><rect class="cls-1" x="5" y="68.73" width="65.8" height="9.82"/><circle class="cls-2" cx="10.74" cy="83.36" r="1.24"/><circle class="cls-2" cx="34.02" cy="83.36" r="1.24"/><circle class="cls-2" cx="41.7" cy="83.36" r="1.24"/><path class="cls-1" d="m48.64,78.55h4.64v4.7c0,1.19-.96,2.15-2.15,2.15h-.35c-1.19,0-2.15-.96-2.15-2.15v-4.7h0Z"/><path class="cls-1" d="m58.76,78.55h4.64v2.21c0,1.19-.96,2.15-2.15,2.15h-.35c-1.19,0-2.15-.96-2.15-2.15v-2.21h0Z"/><path class="cls-1" d="m64.32,68.73h6.48v3.09c0,1.66-1.34,3-3,3h-.48c-1.66,0-3-1.34-3-3v-3.09h0Z"/><path class="cls-1" d="m57.73,68.73h6.48v3.09c0,1.66-1.34,3-3,3h-.48c-1.66,0-3-1.34-3-3v-3.09h0Z"/><path class="cls-1" d="m51.14,68.73h6.48v3.09c0,1.66-1.34,3-3,3h-.48c-1.66,0-3-1.34-3-3v-3.09h0Z"/><path class="cls-1" d="m44.55,68.73h6.48v3.09c0,1.66-1.34,3-3,3h-.48c-1.66,0-3-1.34-3-3v-3.09h0Z"/><path class="cls-1" d="m37.96,68.73h6.48v3.09c0,1.66-1.34,3-3,3h-.48c-1.66,0-3-1.34-3-3v-3.09h0Z"/><path class="cls-1" d="m31.37,68.73h6.48v3.09c0,1.66-1.34,3-3,3h-.48c-1.66,0-3-1.34-3-3v-3.09h0Z"/><path class="cls-1" d="m24.77,68.73h6.48v3.09c0,1.66-1.34,3-3,3h-.48c-1.66,0-3-1.34-3-3v-3.09h0Z"/><path class="cls-1" d="m18.18,68.73h6.48v3.09c0,1.66-1.34,3-3,3h-.48c-1.66,0-3-1.34-3-3v-3.09h0Z"/><path class="cls-1" d="m11.59,68.73h6.48v3.09c0,1.66-1.34,3-3,3h-.48c-1.66,0-3-1.34-3-3v-3.09h0Z"/><path class="cls-1" d="m5,68.73h6.48v3.09c0,1.66-1.34,3-3,3h-.48c-1.66,0-3-1.34-3-3v-3.09h0Z"/><circle class="cls-1" cx="37.9" cy="41.29" r="4.1"/><line class="cls-1" x1="37.9" y1="45.39" x2="37.9" y2="55.21"/><g><polygon class="cls-1" points="12.25 78.55 5 78.55 5 87.77 18.75 87.77 12.25 78.55"/><polygon class="cls-1" points="29.52 78.55 23.02 87.77 70.8 87.77 70.8 78.55 29.52 78.55"/></g><polygon class="cls-1" points="20.89 78.55 12.25 78.55 20.89 90.81 29.52 78.55 20.89 78.55"/></g><g><rect class="cls-1" x="56.66" y="4.12" width="21.71" height="56.73" rx="10.19" ry="10.19" transform="translate(-3.2 57.25) rotate(-45)"/><path class="cls-1" d="m40.03,12.43c2.05,2.05,5.38,2.05,7.43,0,2.05-2.05,2.05-5.38,0-7.43l-7.43,7.43Z"/><path class="cls-1" d="m95,52.54c-2.05-2.05-5.38-2.05-7.43,0-2.05,2.05-2.05,5.38,0,7.43l7.43-7.43Z"/><path class="cls-1" d="m53.57,18.63l2.7-9.32c-3.15-.33-6.41.7-8.82,3.11s-3.45,5.68-3.11,8.83l9.22-2.62-2.59,12.65,11.87-3.37-2.59,12.65,11.87-3.37-2.59,12.65,11.87-3.37-1.89,9.22c2.9.1,5.84-.94,8.06-3.16s3.26-5.14,3.16-8.04l-9.32,1.97,3.47-11.97-12.75,2.69,3.47-11.97-12.75,2.69,3.47-11.97-12.75,2.69Z"/></g></svg>