<?xml version="1.0" encoding="UTF-8"?>
<svg id="Layer_1" data-name="Layer 1" xmlns="http://www.w3.org/2000/svg" viewBox="0 0 100 100">
  <defs>
    <style>
      .cls-1 {
        fill: #361d5c;
      }
    </style>
  </defs>
  <path class="cls-1" d="m59.71,56.31c-1.03-.56-2.25-.68-3.37-.32l-4.66,1.47.39,1.23,4.62-1.46c.79-.25,1.64-.17,2.36.23.75.4,1.3,1.07,1.56,1.88.25.81.18,1.68-.2,2.44-.37.73-1.01,1.28-1.78,1.54l-23.38,7.3c-1.9.59-8.1.39-10.29.26-1.09-.14-2.11-.59-2.95-1.29-.84-.7-1.46-1.63-1.79-2.68l-2.36-7.55,3.09-.31c.59-.06,1.18.13,1.61.54l1.75,1.68h0c2.71,2.61,6.55,3.68,10.22,2.86l.38-.1-.28-1.26-.36.08c-3.25.76-6.67-.19-9.07-2.5l-1.74-1.7c-.71-.66-1.68-.98-2.64-.87l-4.31.44c-.18.02-.29.19-.24.36l2.72,8.7c.41,1.29,1.18,2.43,2.22,3.29,1.04.86,2.3,1.41,3.64,1.57.18,0,2.63.15,5.22.15,1.87.07,3.74-.08,5.58-.45l23.34-7.32c1.12-.34,2.05-1.12,2.58-2.16.55-1.05.66-2.27.31-3.4-.35-1.13-1.12-2.08-2.16-2.64h0Z"/>
  <path class="cls-1" d="m39.71,65.47l-6.59-11.58,1.63-.51h0c1.01-.31,2.11-.12,2.96.52l12.06,8.97.78-1.08-12.06-8.95c-1.19-.87-2.72-1.13-4.12-.68l-2.7.85c-.24.07-.34.35-.22.56l7.15,12.53,1.12-.63Z"/>
  <path class="cls-1" d="m86.66,59.06h-2.45c-.07,0-.12-.05-.12-.12v-26.41c0-1.34-.41-2.64-1.15-3.75-.74-1.11-1.79-1.99-3.02-2.51-1.01-.43-1.86-1.15-2.46-2.06s-.92-1.98-.92-3.08V6.93c0-.41-.33-.74-.74-.74h-8.53c-.36,0-.66.3-.66.66v14.22c.01,1.1-.31,2.18-.91,3.11s-1.47,1.65-2.48,2.08c-.83.36-1.58.88-2.21,1.53-.02.02-.05.03-.08.03h-6.93c-.07,0-.12-.05-.12-.12v-6.43c0-4.08-1.49-8.08-4.42-10.91-5.75-5.55-14.75-5.55-20.5,0-2.93,2.83-4.42,6.84-4.42,10.91v6.38c0,.07-.05.12-.12.12h-15.03c-.58,0-1.05.46-1.07,1.03l-2.09,63.91c-.02.59.46,1.08,1.05,1.08h85.46c.59,0,1.06-.48,1.06-1.06v-21.16c0-.36-.29-.65-.65-.65h-5.7c-.07,0-.12-.05-.12-.12v-11.08c0-.37-.3-.67-.67-.67ZM68.03,7.49h7.1c.07,0,.12.05.12.12v7.1c0,.07-.05.12-.12.12h-7.1c-.07,0-.12-.05-.12-.12v-7.1c0-.07.05-.12.12-.12Zm-4.28,19.91c1.24-.53,2.29-1.41,3.03-2.54.74-1.12,1.13-2.44,1.13-3.79v-4.83c0-.07.05-.12.12-.12h7.1c.07,0,.12.05.12.12v4.83c0,1.35.39,2.66,1.13,3.79.74,1.12,1.79,2.01,3.03,2.53,1.01.43,1.86,1.15,2.46,2.06.6.91.92,1.98.92,3.08v9.15c0,.07-.05.12-.12.12h-7.86v1.29h7.86c.07,0,.12.05.12.12v6.02c0,.07-.05.12-.12.12h-5.71v1.29h5.71c.07,0,.12.05.12.12v8.18c0,.07-.05.12-.12.12h-11.47c-.06,0-.12-.05-.12-.11l-1.04-30.14c-.02-.57-.49-1.03-1.06-1.03h-5.96c.23-.15.47-.27.72-.38h0Zm-37.91-6.03c0-4.72,2.23-9.27,6.21-11.8,4.38-2.78,9.96-2.78,14.33,0,3.98,2.53,6.21,7.08,6.21,11.8v6.29c0,.07-.05.12-.12.12h-26.52c-.07,0-.12-.05-.12-.12v-6.29Zm28.05,14.24c1.21.22,2.24,1.03,2.72,2.16.49,1.13.37,2.44-.31,3.47-.68,1.03-1.83,1.65-3.06,1.65s-2.38-.62-3.06-1.65c-.68-1.03-.79-2.33-.31-3.47.49-1.13,1.51-1.95,2.72-2.16h1.29Zm-28.05,0c1.21.22,2.24,1.03,2.72,2.16.49,1.13.37,2.44-.31,3.47-.68,1.03-1.83,1.65-3.06,1.65s-2.38-.62-3.06-1.65c-.68-1.03-.79-2.33-.31-3.47.49-1.13,1.51-1.95,2.72-2.16h1.29Zm34.19,56.9H7.63c-.07,0-.12-.06-.12-.12l2.15-63.2c0-.06.05-.11.12-.11h14.63c.07,0,.12.05.12.12v5.03c0,.06-.04.1-.1.11-1.64.25-3.05,1.3-3.75,2.81-.72,1.54-.6,3.33.31,4.76.91,1.43,2.49,2.3,4.19,2.3s3.27-.87,4.19-2.3c.91-1.43,1.03-3.23.31-4.76-.7-1.51-2.11-2.56-3.75-2.81-.06,0-.1-.06-.1-.11v-5.03c0-.07.05-.12.12-.12h26.52c.07,0,.12.05.12.12v5.03c0,.06-.04.1-.1.11-1.64.25-3.05,1.3-3.75,2.81-.72,1.54-.6,3.33.31,4.76.91,1.43,2.49,2.3,4.19,2.3s3.27-.87,4.19-2.3c.91-1.43,1.03-3.23.31-4.76-.7-1.51-2.11-2.56-3.75-2.81-.06,0-.1-.06-.1-.11v-5.03c0-.07.05-.12.12-.12h14.68c.06,0,.12.05.12.12l1,29.75c0,.07-.05.12-.12.12h-2.41c-.36,0-.65.29-.65.65v11.09c0,.07-.05.12-.12.12h-5.72c-.35,0-.64.29-.64.64v20.82c0,.07-.05.12-.12.12Zm32.49-20.16v20.04c0,.07-.05.12-.12.12h-30.83c-.07,0-.12-.05-.12-.12v-20.04c0-.07.05-.12.12-.12h10.02v-1.29h-3.55c-.07,0-.12-.05-.12-.12v-10.33c0-.07.05-.12.12-.12h17.89c.07,0,.12.05.12.12v10.33c0,.07-.05.12-.12.12h-8.94v1.29h15.42c.07,0,.12.05.12.12Z"/>
  <path class="cls-1" d="m69.42,78.48h15.1v1.29h-15.1v-1.29Z"/>
  <path class="cls-1" d="m71.58,84.95h10.79v1.29h-10.79v-1.29Z"/>
</svg>