<?xml version="1.0" encoding="UTF-8"?>
<svg id="Layer_1" data-name="Layer 1" xmlns="http://www.w3.org/2000/svg" viewBox="0 0 100 100">
  <defs>
    <style>
      .cls-1 {
        fill: none;
        stroke: #361d5c;
        stroke-linecap: round;
        stroke-linejoin: round;
      }

      .cls-2 {
        fill: #361d5c;
      }
    </style>
  </defs>
  <g>
    <path class="cls-1" d="m53.85,25.24c.05,1.99-.52,5.71-.47,7.7-1.71-.1-3.42-.35-5.09-.74.3,1.09-2.27,1.68-1.17,3.04.88,1.1-1.78,2.18-2.67,3.27,1.81.88,3.66,1.76,5.65,1.99,1.17.13,2.43.05,3.45.65s1.46,2.29.46,2.91c-.44.27-.98.24-1.49.2-1.03-.08-2.06-.16-3.08-.23-2.1-.16-4.25-.31-6.3.16s-4.05,1.69-4.94,3.6-.34,4.54,1.52,5.54c1.42.77,3.22.48,4.69,1.15,1.65.75,2.56,2.57,2.94,4.34s.36,3.62.79,5.38c.08.32.18.65.43.87.18.17.42.25.66.32,1.12.36,2.27.7,3.45.66s2.39-.53,3.05-1.5c1.08-1.59.33-3.75.66-5.64.28-1.63,1.45-3.08,2.98-3.72.47-.19,1.05-.41,1.11-.91.03-.26-.1-.52-.24-.75-.6-.99-1.34-1.9-2.19-2.68-.47-.43-1.02-.92-.98-1.56.05-.9,1.19-1.27,2.09-1.21s1.89.3,2.62-.22c-.4-.65-.81-1.33-.92-2.09s.15-1.63.82-2c.8-.44,1.78-.04,2.64.26,2.96,1.04,3.93,1.38,6.73-.03"/>
    <path class="cls-1" d="m43.35,25.09c.31,1.32-.1,2.74-.89,3.83s-1.94,1.89-3.16,2.49c-.52.25-1.08.48-1.49.89s-1.83,2.22-1.58,2.75"/>
    <path class="cls-1" d="m31.84,27.8c-.12,1.37.04,3.78,0,5.16s-.4,2.82-1.38,3.77c-1.34,1.3-3.59,1.43-4.76,2.89-.27.33-.46.72-.73,1.05-1.09,1.34-3.38,2.34-4.48,1.01"/>
    <path class="cls-1" d="m19.46,45.65c2.05.11,5.36,2.1,6.05,4.03.47,1.32.4,2.81.99,4.08.48,1.04,1.37,1.85,1.95,2.84,1.22,2.09.94,4.69.63,7.09-.12.94-.25,1.89-.64,2.75s-1.1,1.62-2.02,1.85"/>
    <path class="cls-1" d="m61.25,62.28c.47.25,1.07.08,1.47-.28s.63-.85.86-1.33c.46-.98.92-1.99.93-3.07"/>
    <path class="cls-1" d="m71.77,50.23c0,7.88-3.45,14.95-8.93,19.77H27.99c-5.48-4.82-8.93-11.89-8.93-19.77,0-1.57.14-3.09.41-4.58.23-1.37.57-2.69,1.01-3.97,3.55-10.37,13.38-17.81,24.94-17.81,2.95,0,5.79.49,8.44,1.39,8.5,2.85,15.05,9.93,17.18,18.74.49,1.99.74,4.07.74,6.23Z"/>
  </g>
  <path class="cls-2" d="m37.52,10.31c-.82-.39-1.75-.42-2.6-.1l-3.51,1.33.35.93,3.48-1.32c.59-.23,1.25-.2,1.82.07.59.27,1.05.77,1.28,1.37.23.61.21,1.28-.05,1.88-.25.58-.72,1.03-1.3,1.26l-17.63,6.64c-1.43.54-6.2.66-7.89.65-.84-.06-1.65-.36-2.32-.86-.68-.5-1.19-1.19-1.49-1.98l-2.15-5.69,2.36-.38c.45-.07.91.05,1.26.34l1.42,1.21h0c2.2,1.88,5.19,2.54,7.97,1.74l.29-.09-.27-.96-.27.07c-2.46.72-5.13.15-7.08-1.52l-1.41-1.23c-.58-.47-1.33-.68-2.07-.55l-3.29.53c-.13.02-.21.16-.17.29l2.48,6.56c.37.97,1.01,1.81,1.85,2.43.84.62,1.83.98,2.87,1.05.14,0,2.03,0,4.02-.12,1.44-.03,2.87-.23,4.26-.59l17.59-6.65c.84-.31,1.52-.95,1.88-1.77.37-.83.41-1.77.09-2.62-.32-.85-.95-1.54-1.77-1.93h0Z"/>
  <path class="cls-2" d="m22.56,18.22l-5.57-8.6,1.23-.46h0c.76-.28,1.62-.18,2.29.27l9.66,6.35.55-.86-9.66-6.34c-.95-.62-2.14-.74-3.19-.34l-2.04.77c-.18.07-.25.28-.14.44l6.05,9.3.83-.53Z"/>
  <polyline class="cls-1" points="74.02 72.49 74.02 80.07 87.52 80.07"/>
  <rect class="cls-1" x="54.4" y="75.01" width="7.49" height="5.07"/>
  <rect class="cls-1" x="41.87" y="75.01" width="7.49" height="5.07"/>
  <rect class="cls-1" x="29.34" y="75.01" width="7.49" height="5.07"/>
  <path class="cls-1" d="m6.45,69.99h56.39c24.76,2.14,28.83,14.56,28.83,16.69v.68c0,.16-.12.29-.27.29H12.99c-1.2,0-2.17.97-2.17,2.17s.97,2.17,2.17,2.17h82.77"/>
</svg>