<?xml version="1.0" encoding="UTF-8"?>
<svg id="Layer_1" data-name="Layer 1" xmlns="http://www.w3.org/2000/svg" viewBox="0 0 100 100">
  <defs>
    <style>
      .cls-1 {
        fill: none;
        stroke-linecap: round;
        stroke-linejoin: round;
      }

      .cls-1, .cls-2 {
        stroke: #361d5c;
      }

      .cls-2 {
        fill: #361d5c;
        stroke-miterlimit: 10;
        stroke-width: .25px;
      }
    </style>
  </defs>
  <g>
    <path class="cls-2" d="m60.1,79.44c-.4-.42-.96-.65-1.54-.65h-2.41s0,.63,0,.63h2.39c.41,0,.8.17,1.08.46.29.3.45.7.45,1.12,0,.42-.16.82-.46,1.12-.28.29-.67.45-1.07.46l-12.1-.04c-.98,0-3.88-1.02-4.89-1.41-.49-.23-.91-.59-1.2-1.05-.29-.46-.44-.99-.44-1.53v-3.91s1.51.31,1.51.31c.29.06.53.24.68.49l.57,1.05h0c.89,1.63,2.54,2.71,4.39,2.87h.19s.06-.63.06-.63l-.18-.02c-1.65-.13-3.11-1.08-3.9-2.53l-.56-1.06c-.24-.42-.64-.71-1.12-.81l-2.1-.44c-.09-.02-.17.05-.17.13v4.51c-.01.67.18,1.32.54,1.88.36.56.87,1.01,1.48,1.28.09.03,1.22.46,2.44.85.87.31,1.78.52,2.7.62l12.09.03c.58,0,1.13-.22,1.54-.63.41-.41.65-.97.65-1.55,0-.58-.22-1.15-.62-1.57h0Z"/>
    <path class="cls-2" d="m49.31,80.77l-1.38-6.44h.84s0,0,0,0c.52,0,1.01.26,1.32.68l4.35,6.02.53-.39-4.35-6.02c-.43-.59-1.11-.94-1.84-.93h-1.4c-.12,0-.21.11-.19.23l1.5,6.97.62-.13Z"/>
  </g>
  <rect class="cls-1" x="3.34" y="54.32" width="93.31" height="8.58" rx=".75" ry=".75"/>
  <path class="cls-1" d="m12.75,95.34h74.41c.52,0,.95-.43.95-.95l5.56-30.53c0-.52-.43-.95-.95-.95H7.27c-.52,0-.95.43-.95.95l5.48,30.53c0,.52.43.95.95.95Z"/>
  <g>
    <path class="cls-1" d="m61.17,48.64v5.68h-22.33v-5.68c0-5.03,4.12-9.15,9.15-9.15h4.03c5.03,0,9.15,4.12,9.15,9.15Z"/>
    <circle class="cls-1" cx="50" cy="32.2" r="6.67"/>
  </g>
  <path class="cls-1" d="m12.5,44.38h10.82c1.4,0,2.53,1.13,2.53,2.53v7.41h-15.88v-7.41c0-1.4,1.13-2.53,2.53-2.53Z"/>
  <line class="cls-1" x1="11.02" y1="88.78" x2="29.82" y2="88.78"/>
  <line class="cls-1" x1="70.06" y1="88.78" x2="88.86" y2="88.78"/>
  <circle class="cls-1" cx="49.84" cy="78.62" r="15.72"/>
  <line class="cls-1" x1="3.34" y1="14.73" x2="96.66" y2="14.73"/>
  <line class="cls-1" x1="8.72" y1="4.66" x2="8.72" y2="11.91"/>
  <line class="cls-1" x1="18.06" y1="4.66" x2="18.06" y2="11.91"/>
  <line class="cls-1" x1="27.25" y1="4.66" x2="27.25" y2="11.91"/>
  <line class="cls-1" x1="36.6" y1="4.66" x2="36.6" y2="11.91"/>
  <line class="cls-1" x1="45.21" y1="4.66" x2="45.21" y2="11.91"/>
  <line class="cls-1" x1="54.56" y1="4.66" x2="54.56" y2="11.91"/>
  <line class="cls-1" x1="63.75" y1="4.66" x2="63.75" y2="11.91"/>
  <line class="cls-1" x1="73.09" y1="4.66" x2="73.09" y2="11.91"/>
  <line class="cls-1" x1="81.94" y1="4.66" x2="81.94" y2="11.91"/>
  <line class="cls-1" x1="91.28" y1="4.66" x2="91.28" y2="11.91"/>
  <line class="cls-1" x1="8.72" y1="27.17" x2="8.72" y2="34.42"/>
  <line class="cls-1" x1="18.06" y1="27.17" x2="18.06" y2="34.42"/>
  <line class="cls-1" x1="27.25" y1="27.17" x2="27.25" y2="34.42"/>
  <line class="cls-1" x1="36.6" y1="27.17" x2="36.6" y2="34.42"/>
  <line class="cls-1" x1="63.75" y1="27.17" x2="63.75" y2="34.42"/>
  <line class="cls-1" x1="73.09" y1="27.17" x2="73.09" y2="34.42"/>
  <line class="cls-1" x1="81.94" y1="27.17" x2="81.94" y2="34.42"/>
  <line class="cls-1" x1="91.28" y1="27.17" x2="91.28" y2="34.42"/>
  <line class="cls-1" x1="96.66" y1="37.24" x2="60.72" y2="37.24"/>
  <line class="cls-1" x1="39.28" y1="37.43" x2="3.34" y2="37.43"/>
</svg>