<?xml version="1.0" encoding="UTF-8"?><svg id="Layer_1" xmlns="http://www.w3.org/2000/svg" viewBox="0 0 100 100"><defs><style>.cls-1{fill:none;stroke:#361d5c;stroke-linecap:round;stroke-linejoin:round;}</style></defs><polyline class="cls-1" points="90.55 64.45 90.55 82.92 56.22 82.92 56.22 25.19 90.55 25.19 90.55 44.17"/><line class="cls-1" x1="71.96" y1="30.92" x2="79.12" y2="30.92"/><line class="cls-1" x1="56.22" y1="35.15" x2="90.55" y2="35.15"/><line class="cls-1" x1="66.35" y1="41.56" x2="66.35" y2="67.31"/><line class="cls-1" x1="56.22" y1="74.28" x2="90.55" y2="74.28"/><line class="cls-1" x1="70.52" y1="78.63" x2="76.26" y2="78.63"/><line class="cls-1" x1="69.1" y1="60.16" x2="70.97" y2="60.16"/><line class="cls-1" x1="74.83" y1="60.16" x2="83.34" y2="60.16"/><line class="cls-1" x1="66.35" y1="50.14" x2="94.95" y2="50.14"/><line class="cls-1" x1="67.67" y1="30.92" x2="69.1" y2="30.92"/><rect class="cls-1" x="66.35" y="44.17" width="28.61" height="20.28"/><rect class="cls-1" x="5.05" y="25.19" width="47.4" height="41.46"/><line class="cls-1" x1="52.44" y1="58.11" x2="5.05" y2="58.11"/><line class="cls-1" x1="15.17" y1="62.4" x2="8.14" y2="62.4"/><polyline class="cls-1" points="10.94 33.78 15.17 33.78 18.1 46.66 30.93 46.66 33.88 36.64 15.82 36.64"/><rect class="cls-1" x="40.63" y="33.03" width="11.81" height="6.49"/><rect class="cls-1" x="40.63" y="43.8" width="11.81" height="6.49"/><line class="cls-1" x1="15.23" y1="82.92" x2="46.72" y2="82.92"/><g><line class="cls-1" x1="21" y1="82.92" x2="23.77" y2="66.65"/><line class="cls-1" x1="38.17" y1="66.65" x2="40.95" y2="82.92"/></g><g><circle class="cls-1" cx="20.45" cy="49.83" r="1.38"/><circle class="cls-1" cx="28.62" cy="49.83" r="1.38"/></g></svg>