<?xml version="1.0" encoding="UTF-8"?><svg id="Layer_1" xmlns="http://www.w3.org/2000/svg" viewBox="0 0 100 100"><defs><style>.cls-1{fill:none;stroke:#361d5c;stroke-linecap:round;stroke-linejoin:round;}</style></defs><g><rect class="cls-1" x="44.49" y="36.81" width="50.29" height="58.33"/><rect class="cls-1" x="44.49" y="36.81" width="50.29" height="13.34"/><rect class="cls-1" x="44.49" y="90.09" width="50.29" height="5.06"/><circle class="cls-1" cx="69.63" cy="70" r="14.38"/><circle class="cls-1" cx="69.63" cy="70" r="9.53"/><line class="cls-1" x1="60.1" y1="70" x2="79.17" y2="70"/><line class="cls-1" x1="60.58" y1="43.85" x2="78.69" y2="43.85"/><g><circle class="cls-1" cx="52.54" cy="43.85" r="2.61"/><circle class="cls-1" cx="86.73" cy="43.85" r="2.61"/></g></g><g><rect class="cls-1" x="55.08" y="24.46" width="4.81" height="12.35"/><path class="cls-1" d="m83.22,24.46v-7.54c0-7.5-6.08-13.59-13.59-13.59,0,0,0,0,0,0h0c-7.5,0-13.59,6.08-13.59,13.59v7.54"/><g><path class="cls-1" d="m55.3,24.46h4.55v12.35h-4.55c-3.41,0-6.17-2.77-6.17-6.17h0c0-3.41,2.77-6.17,6.17-6.17Z"/><rect class="cls-1" x="55.04" y="24.46" width="4.81" height="12.35"/></g><g><path class="cls-1" d="m85.59,24.46h4.55v12.35h-4.55c-3.41,0-6.17-2.77-6.17-6.17h0c0-3.41,2.77-6.17,6.17-6.17Z" transform="translate(169.56 61.28) rotate(180)"/><rect class="cls-1" x="79.42" y="24.46" width="4.81" height="12.35" transform="translate(163.65 61.28) rotate(180)"/></g><path class="cls-1" d="m81.85,24.46v-7.5c0-6.75-5.47-12.21-12.21-12.21,0,0,0,0,0,0h0c-6.75,0-12.21,5.47-12.21,12.21v7.5"/></g><line class="cls-1" x1="24.4" y1="95" x2="4.25" y2="95"/><path class="cls-1" d="m32.17,12.26c0-4.93-4-8.92-8.92-8.92-4.93,0-8.92,4-8.92,8.92v82.74"/><polygon class="cls-1" points="20.64 26.4 43.71 26.4 38.37 12.29 25.98 12.29 20.64 26.4"/></svg>