<?xml version="1.0" encoding="UTF-8"?><svg id="Layer_1" xmlns="http://www.w3.org/2000/svg" viewBox="0 0 100 100"><defs><style>.cls-1{fill:none;stroke:#361d5c;stroke-linecap:round;stroke-linejoin:round;}</style></defs><circle class="cls-1" cx="68.39" cy="18.1" r="3.36"/><g><g><line class="cls-1" x1="55.47" y1="5.16" x2="66.03" y2="15.71"/><circle class="cls-1" cx="68.39" cy="18.1" r="3.36"/><line class="cls-1" x1="70.78" y1="20.47" x2="81.31" y2="30.99"/></g><line class="cls-1" x1="55.9" y1="30.53" x2="65.98" y2="20.44"/></g><g><g><line class="cls-1" x1="5.22" y1="30.99" x2="15.78" y2="20.44"/><circle class="cls-1" cx="18.16" cy="18.07" r="3.36"/><line class="cls-1" x1="20.53" y1="15.69" x2="31.06" y2="5.16"/></g><line class="cls-1" x1="30.59" y1="30.57" x2="20.5" y2="20.48"/></g><g><g><line class="cls-1" x1="31.06" y1="81.37" x2="20.5" y2="70.82"/><circle class="cls-1" cx="18.14" cy="68.44" r="3.36"/><line class="cls-1" x1="15.75" y1="66.07" x2="5.22" y2="55.54"/></g><line class="cls-1" x1="30.63" y1="56.01" x2="20.55" y2="66.1"/></g><rect class="cls-1" x="42.17" y="37.67" width="52.61" height="57.16"/><path class="cls-1" d="m67.92,54.29c0-3.63-2.14-6.76-5.22-8.21v6.41c0,2.13-1.73,3.86-3.86,3.86s-3.86-1.73-3.86-3.86v-6.41c-3.08,1.45-5.22,4.58-5.22,8.21,0,3.29,1.76,6.17,4.38,7.76h0v28.06c0,2.61,2.12,4.73,4.73,4.73s4.73-2.12,4.73-4.73v-28.06h-.05c2.62-1.59,4.38-4.47,4.38-7.76Z"/><rect class="cls-1" x="77.93" y="77.04" width="9.52" height="17.8"/><path class="cls-1" d="m82.69,72.25h0c1.84,0,3.34,1.5,3.34,3.34v1.46h-6.67v-1.46c0-1.84,1.5-3.34,3.34-3.34Z"/><polygon class="cls-1" points="86.03 56.76 79.36 56.76 80.31 47.36 85.08 47.36 86.03 56.76"/><polyline class="cls-1" points="81.5 72.49 81.5 56.76 83.89 56.76 83.89 72.49"/><path class="cls-1" d="m42.17,37.67h20.72c-.27-.37-.56-.72-.89-1.05l-12.03-12.03c-3.67-3.67-9.61-3.67-13.28,0l-12.03,12.03c-3.67,3.67-3.67,9.61,0,13.28l12.03,12.03c1.54,1.54,3.48,2.42,5.48,2.67v-26.93Z"/><polygon class="cls-1" points="42.17 37.67 43.53 37.67 39.13 33.27 33.33 39.06 42.17 47.9 42.17 37.67"/></svg>