<?xml version="1.0" encoding="UTF-8"?>
<svg width="1200pt" height="1200pt" version="1.1" viewBox="0 0 1200 1200" xmlns="http://www.w3.org/2000/svg">
 <g>
  <path d="m278.58 703.22c52.359 43.781 118.83 67.922 187.22 67.969 64.359 0 125.34-20.578 177.14-60 2.4844-1.875 4.9219-3.7969 7.2656-5.7188 15.328-12.422 29.438-26.531 41.812-41.812 1.9688-2.3906 3.7969-4.7812 6.2344-7.9688 38.953-50.906 59.531-111.94 59.531-176.48-0.09375-161.02-131.06-292.03-292.03-292.03-161.02 0-292.03 131.02-292.03 292.03 0 62.062 19.219 121.36 55.641 171.42l30.328-22.031c-31.734-43.641-48.469-95.297-48.469-149.39 0-140.34 114.19-254.53 254.53-254.53 140.26 0 254.44 114.19 254.53 254.53 0 56.25-17.906 109.36-52.406 154.45-1.5938 2.1094-3.1875 4.1719-4.9219 6.2812-10.875 13.359-23.109 25.641-36.469 36.469-2.1094 1.7344-4.2656 3.375-7.0312 5.5312-44.484 33.891-97.594 51.75-153.66 51.75-59.578-0.046874-117.56-21.047-163.18-59.25z"/>
  <path d="m621.1 367.08 30.375-21.938c-42.984-59.484-112.41-95.016-185.76-95.016v37.5c61.359 0 119.44 29.719 155.39 79.453z"/>
  <path d="m1113.4 986.11-85.125-85.125-26.531 26.531 85.125 85.125c4.3125 4.3125 6.7031 10.078 6.7031 16.219s-2.3906 11.906-6.7031 16.219l-55.266 55.266c-8.9531 8.9531-23.531 8.9531-32.438 0l-213.1-213.74 87.703-87.141 68.156 68.156 26.531-26.531-68.156-68.156c-13.734-13.734-35.391-14.531-50.25-2.7188l-83.531-83.531c42.469-60.984 65.062-132.28 65.062-207.52-0.046875-77.766-24.141-152.02-69.703-214.74l-30.328 22.031c40.875 56.25 62.531 122.9 62.578 192.71 0 72.516-23.109 141.05-67.406 198.94-2.1562 2.8125-4.2188 5.5781-6.5156 8.3438-13.969 17.203-29.766 33-47.062 47.062-3 2.4375-6.0469 4.7812-9.0938 7.0781-57.328 43.688-125.86 66.797-198.19 66.797-181.08-0.09375-328.31-147.32-328.31-328.22 0-180.98 147.24-328.26 328.26-328.26 81.188 0 159.14 29.906 219.47 84.234l25.078-27.891c-67.219-60.516-154.08-93.891-244.55-93.891-201.66 0-365.76 164.06-365.76 365.76 0 201.56 164.06 365.63 365.76 365.72 75.047 0 146.29-22.594 207.42-64.969l83.578 83.578c-11.766 14.859-10.969 36.516 2.7656 50.25l213.14 213.14c11.391 11.391 26.578 17.719 42.75 17.719 16.125 0 31.312-6.2812 42.75-17.719l55.266-55.266c11.391-11.391 17.719-26.578 17.719-42.75-0.09375-16.125-6.375-31.312-17.812-42.703zm-407.58-231.28c6.3281-5.4844 12.516-11.109 18.422-17.016 0.046875-0.046874 0.09375-0.046874 0.09375-0.09375 5.9531-5.9531 11.578-12.141 17.109-18.469 0.70312-0.79687 1.5-1.5469 2.1562-2.3438l79.594 79.547-40.219 40.219-79.594-79.594c0.84375-0.70313 1.5938-1.5 2.4375-2.25z"/>
 </g>
</svg>
