<?xml version="1.0" encoding="UTF-8"?>
<svg id="Layer_1" data-name="Layer 1" xmlns="http://www.w3.org/2000/svg" viewBox="0 0 100 100">
  <defs>
    <style>
      .cls-1 {
        fill: none;
        stroke: #361d5c;
        stroke-linecap: round;
        stroke-linejoin: round;
      }
    </style>
  </defs>
  <line class="cls-1" x1="5" y1="95" x2="95" y2="95"/>
  <polyline class="cls-1" points="12.94 49.31 12.94 95 87.06 95 87.06 49.31"/>
  <rect class="cls-1" x="24.73" y="60.64" width="19.93" height="34.36"/>
  <rect class="cls-1" x="51.15" y="64.17" width="30.11" height="22.23" transform="translate(141.5 9.08) rotate(90)"/>
  <polyline class="cls-1" points="35.97 38.39 5 38.39 19.76 15.37 65.34 15.37 70.31 15.37 79.26 15.37 95 38.39 64.03 38.39"/>
  <path class="cls-1" d="m5,38.39h12.86v4.62c0,3.48-2.82,6.3-6.3,6.3h-.26c-3.48,0-6.3-2.82-6.3-6.3v-4.62h0Z"/>
  <path class="cls-1" d="m82.14,38.39h12.86v4.62c0,3.48-2.82,6.3-6.3,6.3h-.26c-3.48,0-6.3-2.82-6.3-6.3v-4.62h0Z"/>
  <path class="cls-1" d="m69.29,38.39h12.86v4.62c0,3.48-2.82,6.3-6.3,6.3h-.26c-3.48,0-6.3-2.82-6.3-6.3v-4.62h0Z"/>
  <path class="cls-1" d="m17.86,38.39h12.86v4.62c0,3.48-2.82,6.3-6.3,6.3h-.26c-3.48,0-6.3-2.82-6.3-6.3v-4.62h0Z"/>
  <path class="cls-1" d="m56.44,38.9c-.34-.2-.87-.37-1.47-.5.61-.14,1.13-.31,1.47-.5,1.42-.82,1.95-2.57,1.18-3.9s-2.55-1.75-3.97-.93c-.34.2-.75.57-1.17,1.02.19-.59.3-1.13.3-1.53,0-1.64-1.25-2.97-2.79-2.97s-2.79,1.33-2.79,2.97c0,.39.11.93.3,1.53-.42-.46-.83-.83-1.17-1.02-1.42-.82-3.2-.41-3.97.93s-.24,3.08,1.18,3.9c.34.2.87.37,1.47.5-.61.14-1.13.31-1.47.5-1.42.82-1.95,2.57-1.18,3.9s2.55,1.75,3.97.93c.34-.2.75-.57,1.17-1.02-.19.59-.3,1.13-.3,1.53,0,1.64,1.25,2.97,2.79,2.97s2.79-1.33,2.79-2.97c0-.39-.11-.93-.3-1.53.42.46.83.83,1.17,1.02,1.42.82,3.2.41,3.97-.93s.24-3.08-1.18-3.9Z"/>
  <circle class="cls-1" cx="50" cy="38.39" r="14.03"/>
  <path class="cls-1" d="m64.03,38.39h5.26v4.62c0,3.48-2.82,6.3-6.3,6.3h-.26c-1.1,0-2.14-.28-3.04-.78"/>
  <path class="cls-1" d="m40.31,48.53c-.9.5-1.94.78-3.04.78h-.26c-3.48,0-6.3-2.82-6.3-6.3v-4.62h5.26"/>
  <line class="cls-1" x1="60.97" y1="82.38" x2="71.45" y2="82.38"/>
  <line class="cls-1" x1="66.21" y1="82.38" x2="66.21" y2="90.18"/>
  <rect class="cls-1" x="69.59" y="86.84" width="5.32" height="3.34"/>
  <rect class="cls-1" x="57.58" y="86.84" width="5.32" height="3.34"/>
  <line class="cls-1" x1="57.58" y1="86.84" x2="57.58" y2="78.63"/>
  <line class="cls-1" x1="74.91" y1="86.84" x2="74.91" y2="78.63"/>
  <path class="cls-1" d="m66.21,71.31h0c1.69,0,3.06,1.37,3.06,3.06v.63h-6.12v-.63c0-1.69,1.37-3.06,3.06-3.06Z"/>
  <line class="cls-1" x1="66.21" y1="71.31" x2="66.21" y2="60.23"/>
  <rect class="cls-1" x="27.3" y="63.39" width="14.8" height="22.11"/>
</svg>