<?xml version="1.0" encoding="UTF-8"?>
<svg id="Layer_1" data-name="Layer 1" xmlns="http://www.w3.org/2000/svg" viewBox="0 0 100 100">
  <defs>
    <style>
      .cls-1 {
        fill: none;
        stroke: #361d5c;
        stroke-linecap: round;
        stroke-linejoin: round;
      }

      .cls-2 {
        fill: #361d5c;
      }
    </style>
  </defs>
  <rect class="cls-1" x="47.54" y="69.79" width="11.73" height="22.69"/>
  <path class="cls-1" d="m47.54,87.82c0,.88-.71,1.59-1.59,1.59s-1.59-.71-1.59-1.59v-8.62l3.18-3.18"/>
  <polygon class="cls-1" points="46.18 81.55 44.37 81.55 44.37 79.2 46.18 77.39 46.18 81.55"/>
  <path class="cls-1" d="m59.28,87.82c0,.88.71,1.59,1.59,1.59s1.59-.71,1.59-1.59v-8.62s-3.18-3.18-3.18-3.18"/>
  <polygon class="cls-1" points="60.64 81.55 62.45 81.55 62.45 79.2 60.64 77.39 60.64 81.55"/>
  <rect class="cls-1" x="51.35" y="17.56" width="4.12" height="52.23"/>
  <polyline class="cls-1" points="21.88 17.37 100 17.37 100 10.9 21.88 10.9"/>
  <polyline class="cls-1" points="5.8 10.9 .78 10.9 .78 17.37 6.11 17.37"/>
  <rect class="cls-1" x="83.81" y="27.14" width="16.19" height="65.34"/>
  <rect class="cls-1" x="86.42" y="56.26" width="13.58" height="25.31"/>
  <g>
    <circle class="cls-1" cx="14" cy="14.13" r="8.52"/>
    <path class="cls-1" d="m14,8.65s-4.22,3.94-4.22,6.94c0,2.22,1.89,4.02,4.22,4.02s4.22-1.8,4.22-4.02c0-3-4.22-6.94-4.22-6.94Z"/>
  </g>
  <g>
    <circle class="cls-1" cx="75.57" cy="45.01" r="3.38"/>
    <path class="cls-2" d="m75.57,43.34s-1.29,1.2-1.29,2.11c0,.68.58,1.23,1.29,1.23s1.29-.55,1.29-1.23c0-.91-1.29-2.11-1.29-2.11Z"/>
  </g>
  <g>
    <circle class="cls-1" cx="53.41" cy="76.56" r="2.27"/>
    <path class="cls-2" d="m53.41,75.44s-.86.81-.86,1.42c0,.45.39.82.86.82s.86-.37.86-.82c0-.61-.86-1.42-.86-1.42Z"/>
  </g>
  <g>
    <circle class="cls-1" cx="15.45" cy="76.56" r="2.27"/>
    <path class="cls-2" d="m15.45,75.44s-.86.81-.86,1.42c0,.45.39.82.86.82s.86-.37.86-.82c0-.61-.86-1.42-.86-1.42Z"/>
  </g>
  <rect class="cls-1" x="9.58" y="69.79" width="11.73" height="22.69"/>
  <path class="cls-1" d="m9.58,87.82c0,.88-.71,1.59-1.59,1.59s-1.59-.71-1.59-1.59v-8.62l3.18-3.18"/>
  <polygon class="cls-1" points="8.22 81.55 6.41 81.55 6.41 79.2 8.22 77.39 8.22 81.55"/>
  <path class="cls-1" d="m21.32,87.82c0,.88.71,1.59,1.59,1.59s1.59-.71,1.59-1.59v-8.62s-3.18-3.18-3.18-3.18"/>
  <polygon class="cls-1" points="22.68 81.55 24.49 81.55 24.49 79.2 22.68 77.39 22.68 81.55"/>
  <polyline class="cls-1" points="13.39 22.83 13.39 69.79 17.51 69.79 17.51 22.12"/>
  <rect class="cls-1" x="67.32" y="39.28" width="16.48" height="11.47"/>
  <rect class="cls-1" x="81.47" y="92.48" width="18.53" height="2.65"/>
  <rect class="cls-1" x="44.15" y="92.48" width="18.53" height="2.65"/>
  <rect class="cls-1" x="6.18" y="92.48" width="18.53" height="2.65"/>
</svg>