<?xml version="1.0" encoding="UTF-8"?><svg id="Layer_1" xmlns="http://www.w3.org/2000/svg" viewBox="0 0 100 100"><defs><style>.cls-1{fill:none;stroke:#361d5c;stroke-linecap:round;stroke-linejoin:round;}</style></defs><rect class="cls-1" x="37.5" y="3.79" width="25" height="15.63" rx="4.34" ry="4.34"/><path class="cls-1" d="m40.77,22.59h18.46c3.5,0,6.34,2.84,6.34,6.34v25.83h-31.15v-25.83c0-3.5,2.84-6.34,6.34-6.34Z"/><path class="cls-1" d="m31.26,54.76h37.49c1.73,0,3.13,1.4,3.13,3.13v6.17H28.12v-6.17c0-1.73,1.4-3.13,3.13-3.13Z"/><path class="cls-1" d="m26.56,80.35h46.87c2.59,0,4.69,2.1,4.69,4.69H21.88c0-2.59,2.1-4.69,4.69-4.69Z"/><rect class="cls-1" x="21.88" y="85.04" width="9.37" height="3.69"/><rect class="cls-1" x="68.75" y="85.04" width="9.37" height="3.69"/><rect class="cls-1" x="45.31" y="85.04" width="9.37" height="3.69"/><rect class="cls-1" x="47.17" y="70.43" width="5.67" height="9.92"/><rect class="cls-1" x="47.17" y="19.42" width="5.67" height="3.17"/><polygon class="cls-1" points="58.41 70.43 41.59 70.43 38.59 64.06 61.41 64.06 58.41 70.43"/><polygon class="cls-1" points="75.05 44.41 75.05 56.92 71.88 56.92 71.88 60.04 75.05 60.04 78.18 60.04 78.18 56.92 78.18 44.41 75.05 44.41"/><path class="cls-1" d="m78.75,34.46h0v15.62h0c-2.36,0-4.28-1.92-4.28-4.28v-7.05c0-2.36,1.92-4.28,4.28-4.28Z" transform="translate(118.88 -34.34) rotate(90)"/><path class="cls-1" d="m25.53,34.46h0v15.62h0c-2.36,0-4.28-1.92-4.28-4.28v-7.05c0-2.36,1.92-4.28,4.28-4.28Z" transform="translate(65.66 18.88) rotate(90)"/><polygon class="cls-1" points="24.95 56.92 24.95 44.41 21.82 44.41 21.82 56.92 21.82 60.04 24.95 60.04 28.12 60.04 28.12 56.92 24.95 56.92"/><circle class="cls-1" cx="26.56" cy="92.47" r="3.74"/><circle class="cls-1" cx="73.44" cy="92.47" r="3.74"/><circle class="cls-1" cx="50" cy="92.47" r="3.74"/><circle class="cls-1" cx="50" cy="92.47" r="1.05"/><circle class="cls-1" cx="26.56" cy="92.47" r="1.05"/><circle class="cls-1" cx="73.44" cy="92.47" r="1.05"/></svg>