<?xml version="1.0" encoding="UTF-8"?><svg id="Layer_1" xmlns="http://www.w3.org/2000/svg" viewBox="0 0 100 100"><defs><style>.cls-1{fill:none;stroke:#361d5c;stroke-linecap:round;stroke-linejoin:round;}</style></defs><line class="cls-1" x1="5" y1="95" x2="95" y2="95"/><polyline class="cls-1" points="12.94 45.31 12.94 95 87.06 95 87.06 45.31"/><rect class="cls-1" x="24.73" y="58.64" width="19.93" height="36.36"/><rect class="cls-1" x="50.91" y="62.41" width="33.52" height="25.15" transform="translate(142.66 7.32) rotate(90)"/><polygon class="cls-1" points="79.26 27 19.76 27 5 38.3 95 38.3 79.26 27"/><rect class="cls-1" x="29.96" y="5.04" width="39.07" height="17.23"/><g><line class="cls-1" x1="36.95" y1="22.27" x2="36.95" y2="27"/><line class="cls-1" x1="62.04" y1="22.27" x2="62.04" y2="27"/></g><rect class="cls-1" x="28.14" y="62.01" width="5.32" height="5.32"/><rect class="cls-1" x="35.93" y="62.01" width="5.32" height="5.32"/><rect class="cls-1" x="28.14" y="70.16" width="5.32" height="5.32"/><rect class="cls-1" x="35.93" y="70.16" width="5.32" height="5.32"/><rect class="cls-1" x="28.14" y="78.3" width="5.32" height="5.32"/><rect class="cls-1" x="35.93" y="78.3" width="5.32" height="5.32"/><g><path class="cls-1" d="m73.59,81.45v4.33h-11.85v-4.33c0-1.16-.94-2.09-2.09-2.09h-2.05v10.43h20.14v-10.43h-2.05c-1.16,0-2.09.94-2.09,2.09Z"/><g><path class="cls-1" d="m59.67,89.79h1.93v.48c0,.53-.43.97-.97.97h0c-.53,0-.97-.43-.97-.97v-.48h0Z"/><path class="cls-1" d="m73.73,89.79h1.93v.48c0,.53-.43.97-.97.97h0c-.53,0-.97-.43-.97-.97v-.48h0Z"/></g><path class="cls-1" d="m59.65,79.36c1.16,0,2.09.94,2.09,2.09v1.31h11.85v-1.31c0-1.16.94-2.09,2.09-2.09h.27v-3.25c0-1.82-1.47-3.29-3.29-3.29h-10.01c-1.82,0-3.29,1.47-3.29,3.29v3.25h.27Z"/></g><polygon class="cls-1" points="73.8 68.07 69.29 68.07 69.96 62.82 73.12 62.82 73.8 68.07"/><line class="cls-1" x1="71.54" y1="68.07" x2="71.54" y2="72.82"/><rect class="cls-1" x="5" y="38.3" width="90" height="6.84"/><rect class="cls-1" x="34.9" y="8.22" width="7.22" height="3.78"/><rect class="cls-1" x="33.88" y="14.57" width="9.26" height="1.97"/><g><line class="cls-1" x1="35.67" y1="19.64" x2="35.67" y2="16.53"/><line class="cls-1" x1="41.35" y1="19.64" x2="41.35" y2="16.53"/></g><g><line class="cls-1" x1="36.13" y1="14.22" x2="36.13" y2="12.41"/><line class="cls-1" x1="40.89" y1="14.22" x2="40.89" y2="12.41"/></g><line class="cls-1" x1="35.67" y1="18.24" x2="41.35" y2="18.24"/><path class="cls-1" d="m50.08,9.05c.13,3.31-.07,6.63-.59,9.9"/><path class="cls-1" d="m53.2,8.92c-.75,2.59-1.52,5.3-1.04,7.96.08.43.2.87.51,1.17.28.27.67.39,1.06.45.94.14,1.98-.07,2.62-.77s.69-1.95-.06-2.54c-.9.14-1.29,1.51-.59,2.1.26.22.6.32.93.39.82.18,1.83.15,2.33-.53.32-.43.33-1.01.33-1.55,0-2.03,0-4.05.01-6.08-.31,2.2-.32,4.45-.04,6.65.09.68.27,1.45.88,1.76.31.16.67.16,1.02.15,1.39-.01,2.79-.03,4.18-.04"/></svg>