<?xml version="1.0" encoding="UTF-8"?><svg id="Layer_1" xmlns="http://www.w3.org/2000/svg" viewBox="0 0 100 100"><defs><style>.cls-1{fill:none;stroke:#361d5c;stroke-linecap:round;stroke-linejoin:round;}</style></defs><rect class="cls-1" x="3.5" y="3.93" width="23.08" height="23.08"/><rect class="cls-1" x="3.5" y="27" width="23.08" height="23.08"/><rect class="cls-1" x="3.5" y="50.08" width="23.08" height="23.08"/><rect class="cls-1" x="3.5" y="73.15" width="23.08" height="23.08"/><rect class="cls-1" x="26.57" y="27" width="23.08" height="23.08"/><rect class="cls-1" x="26.57" y="50.08" width="23.08" height="23.08"/><rect class="cls-1" x="26.57" y="73.15" width="23.08" height="23.08"/><rect class="cls-1" x="49.65" y="50.08" width="23.08" height="23.08"/><rect class="cls-1" x="49.65" y="73.15" width="23.08" height="23.08"/><rect class="cls-1" x="72.73" y="73.15" width="23.08" height="23.08"/><rect class="cls-1" x="3.5" y="36.69" width="4.31" height="13.39"/><rect class="cls-1" x="7.87" y="37.92" width="5.94" height="12.16"/><rect class="cls-1" x="13.82" y="39.99" width="4.31" height="10.09"/><rect class="cls-1" x="30.22" y="55.75" width="4.31" height="17.41"/><rect class="cls-1" x="6.53" y="55.75" width="6.03" height="17.41"/><rect class="cls-1" x="16.55" y="55.75" width="6.03" height="17.41"/><rect class="cls-1" x="35.96" y="85.18" width="4.31" height="17.41" transform="translate(131.99 55.77) rotate(90)"/><rect class="cls-1" x="35.96" y="80.87" width="4.31" height="17.41" transform="translate(127.68 51.46) rotate(90)"/><rect class="cls-1" x="19.88" y="78.37" width="4.31" height="17.41" transform="translate(22.44 -2.74) rotate(14.46)"/><rect class="cls-1" x="35.96" y="76.56" width="4.31" height="17.41" transform="translate(123.37 47.15) rotate(90)"/><rect class="cls-1" x="38.11" y="62.32" width="4.31" height="10.83"/><path class="cls-1" d="m35,17.84h6.38v6.23c0,1.62-1.31,2.93-2.93,2.93h-.52c-1.62,0-2.93-1.31-2.93-2.93v-6.23h0Z"/><line class="cls-1" x1="38.18" y1="17.84" x2="38.18" y2="8.11"/><path class="cls-1" d="m32.6,6.57h.31c1.96,0,3.55,1.59,3.55,3.55v2.91h-.31c-1.96,0-3.55-1.59-3.55-3.55v-2.91h0Z" transform="translate(65.88 -7.7) rotate(135)"/><path class="cls-1" d="m43.45,10.06h.31v2.91c0,1.96-1.59,3.55-3.55,3.55h-.31v-2.91c0-1.96,1.59-3.55,3.55-3.55Z" transform="translate(21.65 -25.69) rotate(45)"/><g><rect class="cls-1" x="54.52" y="47.36" width="13.34" height="2.72"/><path class="cls-1" d="m67.75,43.81c-.45-2.14-2.35-3.75-4.63-3.75h-3.88c-2.27,0-4.17,1.61-4.63,3.75,1.92.06,3.45,1.62,3.45,3.55h6.22c0-1.93,1.54-3.5,3.45-3.55Z"/><path class="cls-1" d="m61.43,29.85c-2.62-.14-4.78,1.95-4.78,4.54,0,.21.01.42.04.62.12.88.87,1.53,1.75,1.56.13,1.4,1.31,2.5,2.75,2.5s2.62-1.1,2.75-2.5c.9-.02,1.64-.7,1.76-1.59.03-.24.04-.48.03-.73-.07-2.33-1.97-4.27-4.3-4.39Z"/><g><path class="cls-1" d="m61.05,29.85c.07.3.11.62.11.95,0-.33.04-.64.11-.95-.08,0-.15,0-.22,0Z"/><path class="cls-1" d="m63.89,36.56c.92,0,1.68-.68,1.8-1.59,0,0,0-.01,0-.02-.12.01-.24.02-.36.02-2.3,0-4.17-1.87-4.17-4.17,0,2.3-1.87,4.17-4.17,4.17-.11,0-.21,0-.32-.02,0,.02,0,.04,0,.05.12.89.89,1.56,1.8,1.56"/></g><polyline class="cls-1" points="62.52 38.75 62.52 40.06 59.86 40.06 59.86 38.75"/></g><g><polygon class="cls-1" points="86.99 71.12 81.53 71.12 80.23 73.11 88.29 73.11 86.99 71.12"/><polygon class="cls-1" points="86.1 69.23 82.42 69.23 81.53 70.41 81.53 71.12 86.99 71.12 86.99 70.41 86.1 69.23"/><rect class="cls-1" x="82.42" y="66.39" width="3.68" height="2.84"/><polygon class="cls-1" points="86.93 64.74 81.59 64.74 82.42 66.39 86.1 66.39 86.93 64.74"/><polygon class="cls-1" points="85.58 63.66 82.95 63.66 82.32 64.74 86.2 64.74 85.58 63.66"/><rect class="cls-1" x="83.24" y="47.83" width="2.05" height="15.83"/><path class="cls-1" d="m84.26,47.83s-.18-1.26.21-1.51"/></g><rect class="cls-1" x="56.26" y="58.41" width="10.13" height="14.31"/><circle class="cls-1" cx="61.35" cy="68.39" r="3.15"/><circle class="cls-1" cx="61.35" cy="68.39" r="1.05"/><circle class="cls-1" cx="61.35" cy="61.1" r="1.35"/></svg>