<?xml version="1.0" encoding="UTF-8"?>
<svg id="Layer_1" data-name="Layer 1" xmlns="http://www.w3.org/2000/svg" viewBox="0 0 100 100">
  <defs>
    <style>
      .cls-1 {
        fill: none;
        stroke: #361d5c;
        stroke-linecap: round;
        stroke-linejoin: round;
      }
    </style>
  </defs>
  <g>
    <rect class="cls-1" x="74.29" y="67.48" width="13.91" height="27.45"/>
    <rect class="cls-1" x="71.59" y="94.93" width="19.3" height="1.89"/>
    <g>
      <circle class="cls-1" cx="81.24" cy="86.37" r="4.8"/>
      <path class="cls-1" d="m81.24,83.28s-2.38,2.22-2.38,3.91c0,1.25,1.07,2.27,2.38,2.27s2.38-1.01,2.38-2.27c0-1.69-2.38-3.91-2.38-3.91Z"/>
    </g>
    <g>
      <rect class="cls-1" x="76.39" y="69.73" width="9.7" height="7.88"/>
      <line class="cls-1" x1="78.36" y1="74.69" x2="84.13" y2="74.69"/>
      <line class="cls-1" x1="78.36" y1="71.73" x2="78.36" y2="72.65"/>
      <line class="cls-1" x1="84.13" y1="71.73" x2="84.13" y2="72.65"/>
      <line class="cls-1" x1="82.2" y1="71.73" x2="82.2" y2="72.65"/>
      <line class="cls-1" x1="80.28" y1="71.73" x2="80.28" y2="72.65"/>
    </g>
    <rect class="cls-1" x="88.19" y="69.86" width="1.95" height="5.79"/>
    <path class="cls-1" d="m90.15,71.73h1.91l1.92,1.92v14.49c0,.97-.78,1.75-1.75,1.75h-.53c-.97,0-1.75-.78-1.75-1.75v-3.11c0-.97-.78-1.75-1.75-1.75"/>
    <polyline class="cls-1" points="92.05 71.73 92.05 75.66 93.98 75.66"/>
  </g>
  <g>
    <rect class="cls-1" x="11.32" y="67.48" width="13.91" height="27.45"/>
    <rect class="cls-1" x="8.62" y="94.93" width="19.3" height="1.89"/>
    <g>
      <circle class="cls-1" cx="18.28" cy="86.37" r="4.8"/>
      <path class="cls-1" d="m18.28,83.28s-2.38,2.22-2.38,3.91c0,1.25,1.07,2.27,2.38,2.27s2.38-1.01,2.38-2.27c0-1.69-2.38-3.91-2.38-3.91Z"/>
    </g>
    <g>
      <rect class="cls-1" x="13.42" y="69.73" width="9.7" height="7.88"/>
      <line class="cls-1" x1="15.39" y1="74.69" x2="21.16" y2="74.69"/>
      <line class="cls-1" x1="15.39" y1="71.73" x2="15.39" y2="72.65"/>
      <line class="cls-1" x1="21.16" y1="71.73" x2="21.16" y2="72.65"/>
      <line class="cls-1" x1="19.24" y1="71.73" x2="19.24" y2="72.65"/>
      <line class="cls-1" x1="17.31" y1="71.73" x2="17.31" y2="72.65"/>
    </g>
    <rect class="cls-1" x="25.23" y="69.86" width="1.95" height="5.79"/>
    <path class="cls-1" d="m27.18,71.73h1.91l1.92,1.92v14.92c0,.97-.78,1.75-1.75,1.75h-.53c-.97,0-1.75-.78-1.75-1.75v-3.55c0-.97-.78-1.75-1.75-1.75"/>
    <polyline class="cls-1" points="29.09 71.73 29.09 75.66 31.01 75.66"/>
  </g>
  <g>
    <g>
      <rect class="cls-1" x="30.98" y="18.91" width="37.93" height="5.23" rx="2.62" ry="2.62"/>
      <rect class="cls-1" x="30.98" y="24.14" width="37.93" height="5.23" rx="2.62" ry="2.62"/>
      <path class="cls-1" d="m49.76,3.37h.39c8.58,0,15.54,6.96,15.54,15.54h-31.47c0-8.58,6.96-15.54,15.54-15.54Z"/>
      <path class="cls-1" d="m34.21,29.38h31.47v.8c0,2.15-1.75,3.9-3.9,3.9h-23.67c-2.15,0-3.9-1.75-3.9-3.9v-.8h0Z"/>
      <line class="cls-1" x1="42.94" y1="9.74" x2="42.94" y2="9.74"/>
      <line class="cls-1" x1="56.96" y1="9.74" x2="56.96" y2="9.74"/>
      <line class="cls-1" x1="49.95" y1="7.63" x2="49.95" y2="7.63"/>
      <line class="cls-1" x1="47.05" y1="12.48" x2="47.05" y2="12.48"/>
      <line class="cls-1" x1="52.85" y1="12.48" x2="52.85" y2="12.48"/>
      <polyline class="cls-1" points="35.84 18.91 42.95 22.68 49.95 18.97"/>
      <polyline class="cls-1" points="50.3 24.14 57.42 27.92 64.41 24.21"/>
    </g>
    <line class="cls-1" x1="88.19" y1="91.82" x2="92.24" y2="91.82"/>
    <line class="cls-1" x1="25.23" y1="91.82" x2="74.29" y2="91.82"/>
    <polyline class="cls-1" points="84.69 67.48 84.69 64.67 84.69 49.05"/>
    <line class="cls-1" x1="15.21" y1="49.05" x2="15.21" y2="67.48"/>
    <polyline class="cls-1" points="41.57 91.82 41.57 59.64 22.59 59.64 22.59 67.48"/>
    <polyline class="cls-1" points="75.56 67.41 75.56 59.26 54.72 59.26 54.72 83.69 74.05 83.69"/>
    <polygon class="cls-1" points="77.38 24.15 21.6 24.15 7.76 38.81 92.13 38.81 77.38 24.15"/>
    <path class="cls-1" d="m7.76,38.81h12.05v5.19c0,2.79-2.26,5.05-5.05,5.05h-1.95c-2.79,0-5.05-2.26-5.05-5.05v-5.19h0Z"/>
    <path class="cls-1" d="m80.08,38.81h12.05v5.19c0,2.79-2.26,5.05-5.05,5.05h-1.95c-2.79,0-5.05-2.26-5.05-5.05v-5.19h0Z"/>
    <path class="cls-1" d="m68.03,38.81h12.05v5.19c0,2.79-2.26,5.05-5.05,5.05h-1.95c-2.79,0-5.05-2.26-5.05-5.05v-5.19h0Z"/>
    <path class="cls-1" d="m55.97,38.81h12.05v5.19c0,2.79-2.26,5.05-5.05,5.05h-1.95c-2.79,0-5.05-2.26-5.05-5.05v-5.19h0Z"/>
    <path class="cls-1" d="m43.92,38.81h12.05v5.19c0,2.79-2.26,5.05-5.05,5.05h-1.95c-2.79,0-5.05-2.26-5.05-5.05v-5.19h0Z"/>
    <path class="cls-1" d="m31.87,38.81h12.05v5.19c0,2.79-2.26,5.05-5.05,5.05h-1.95c-2.79,0-5.05-2.26-5.05-5.05v-5.19h0Z"/>
    <path class="cls-1" d="m19.82,38.81h12.05v5.19c0,2.79-2.26,5.05-5.05,5.05h-1.95c-2.79,0-5.05-2.26-5.05-5.05v-5.19h0Z"/>
    <line class="cls-1" x1="11.32" y1="91.82" x2="7.76" y2="91.82"/>
  </g>
  <line class="cls-1" x1="59.25" y1="78.73" x2="72.11" y2="78.73"/>
  <rect class="cls-1" x="64.61" y="78.73" width="2.14" height="4.95"/>
  <rect class="cls-1" x="25.23" y="62.39" width="13.51" height="23.17"/>
</svg>