<?xml version="1.0" encoding="UTF-8"?>
<svg id="Layer_1" data-name="Layer 1" xmlns="http://www.w3.org/2000/svg" viewBox="0 0 100 100">
  <defs>
    <style>
      .cls-1 {
        fill: none;
        stroke: #361d5c;
        stroke-linecap: round;
        stroke-linejoin: round;
      }
    </style>
  </defs>
  <line class="cls-1" x1="42.64" y1="91.82" x2="78.91" y2="91.82"/>
  <polyline class="cls-1" points="82.22 67.35 82.22 63.3 82.22 46.88"/>
  <polyline class="cls-1" points="9.22 46.88 9.22 91.82 28.73 91.82"/>
  <polyline class="cls-1" points="40.46 67.35 40.46 58.01 20.83 58.01 20.83 91.82"/>
  <rect class="cls-1" x="55.28" y="53.06" width="12.8" height="21.89" transform="translate(125.69 2.32) rotate(90)"/>
  <polygon class="cls-1" points="74.54 20.72 15.93 20.72 1.4 36.13 90.04 36.13 74.54 20.72"/>
  <rect class="cls-1" x="16.04" y="11.18" width="58.36" height="9.54"/>
  <path class="cls-1" d="m1.4,36.13h12.66v5.7c0,2.79-2.26,5.05-5.05,5.05h-2.56c-2.79,0-5.05-2.26-5.05-5.05v-5.7h0Z"/>
  <path class="cls-1" d="m77.38,36.13h12.66v5.7c0,2.79-2.26,5.05-5.05,5.05h-2.56c-2.79,0-5.05-2.26-5.05-5.05v-5.7h0Z"/>
  <path class="cls-1" d="m64.71,36.13h12.66v5.7c0,2.79-2.26,5.05-5.05,5.05h-2.56c-2.79,0-5.05-2.26-5.05-5.05v-5.7h0Z"/>
  <path class="cls-1" d="m52.05,36.13h12.66v5.7c0,2.79-2.26,5.05-5.05,5.05h-2.56c-2.79,0-5.05-2.26-5.05-5.05v-5.7h0Z"/>
  <path class="cls-1" d="m39.39,36.13h12.66v5.7c0,2.79-2.26,5.05-5.05,5.05h-2.56c-2.79,0-5.05-2.26-5.05-5.05v-5.7h0Z"/>
  <path class="cls-1" d="m26.72,36.13h12.66v5.7c0,2.79-2.26,5.05-5.05,5.05h-2.56c-2.79,0-5.05-2.26-5.05-5.05v-5.7h0Z"/>
  <path class="cls-1" d="m14.06,36.13h12.66v5.7c0,2.79-2.26,5.05-5.05,5.05h-2.56c-2.79,0-5.05-2.26-5.05-5.05v-5.7h0Z"/>
  <g>
    <rect class="cls-1" x="78.91" y="67.48" width="13.91" height="27.45"/>
    <rect class="cls-1" x="76.22" y="94.93" width="19.3" height="1.89"/>
    <g>
      <circle class="cls-1" cx="85.87" cy="86.37" r="4.8"/>
      <path class="cls-1" d="m85.87,83.28s-2.38,2.22-2.38,3.91c0,1.25,1.07,2.27,2.38,2.27s2.38-1.01,2.38-2.27c0-1.69-2.38-3.91-2.38-3.91Z"/>
    </g>
    <g>
      <rect class="cls-1" x="81.02" y="69.73" width="9.7" height="7.88"/>
      <line class="cls-1" x1="82.98" y1="74.69" x2="88.75" y2="74.69"/>
      <line class="cls-1" x1="82.98" y1="71.73" x2="82.98" y2="72.65"/>
      <line class="cls-1" x1="88.75" y1="71.73" x2="88.75" y2="72.65"/>
      <line class="cls-1" x1="86.83" y1="71.73" x2="86.83" y2="72.65"/>
      <line class="cls-1" x1="84.91" y1="71.73" x2="84.91" y2="72.65"/>
    </g>
    <rect class="cls-1" x="92.82" y="69.86" width="1.95" height="5.79"/>
    <path class="cls-1" d="m94.78,71.73h1.91l1.92,1.92v16.82c0,.97-.78,1.75-1.75,1.75h-.53c-.97,0-1.75-.78-1.75-1.75v-5.44c0-.97-.78-1.75-1.75-1.75"/>
    <polyline class="cls-1" points="96.68 71.73 96.68 75.66 98.6 75.66"/>
  </g>
  <g>
    <rect class="cls-1" x="28.73" y="67.48" width="13.91" height="27.45"/>
    <rect class="cls-1" x="26.03" y="94.93" width="19.3" height="1.89"/>
    <g>
      <circle class="cls-1" cx="35.68" cy="86.37" r="4.8"/>
      <path class="cls-1" d="m35.68,83.28s-2.38,2.22-2.38,3.91c0,1.25,1.07,2.27,2.38,2.27s2.38-1.01,2.38-2.27c0-1.69-2.38-3.91-2.38-3.91Z"/>
    </g>
    <g>
      <rect class="cls-1" x="30.83" y="69.73" width="9.7" height="7.88"/>
      <line class="cls-1" x1="32.8" y1="74.69" x2="38.57" y2="74.69"/>
      <line class="cls-1" x1="32.8" y1="71.73" x2="32.8" y2="72.65"/>
      <line class="cls-1" x1="38.57" y1="71.73" x2="38.57" y2="72.65"/>
      <line class="cls-1" x1="36.64" y1="71.73" x2="36.64" y2="72.65"/>
      <line class="cls-1" x1="34.72" y1="71.73" x2="34.72" y2="72.65"/>
    </g>
    <rect class="cls-1" x="42.64" y="69.86" width="1.95" height="5.79"/>
    <path class="cls-1" d="m44.59,71.73h1.91l1.92,1.92v14.92c0,.97-.78,1.75-1.75,1.75h-.53c-.97,0-1.75-.78-1.75-1.75v-3.55c0-.97-.78-1.75-1.75-1.75"/>
    <polyline class="cls-1" points="46.5 71.73 46.5 75.66 48.42 75.66"/>
  </g>
  <line class="cls-1" x1="22.28" y1="91.82" x2="1.4" y2="91.82"/>
</svg>