<?xml version="1.0" encoding="UTF-8"?><svg id="Layer_1" xmlns="http://www.w3.org/2000/svg" viewBox="0 0 100 100"><defs><style>.cls-1{fill:none;stroke:#361d5c;stroke-linecap:round;stroke-linejoin:round;}</style></defs><rect class="cls-1" x="32.21" y="69.75" width="35.37" height="9.4"/><polygon class="cls-1" points="64.21 97.79 35.57 97.79 32.21 79.16 67.57 79.16 64.21 97.79"/><circle class="cls-1" cx="49.88" cy="44.97" r="6.04"/><path class="cls-1" d="m59.63,48.68c2.05,0,3.71-1.66,3.71-3.71s-1.66-3.71-3.71-3.71c-.71,0-1.36.21-1.92.55-.02-.05-.03-.09-.05-.14.64-.16,1.24-.47,1.74-.97,1.45-1.45,1.45-3.8,0-5.25s-3.8-1.45-5.25,0c-.5.5-.81,1.1-.97,1.74-.05-.02-.09-.03-.14-.05.34-.56.55-1.21.55-1.92,0-2.05-1.66-3.71-3.71-3.71s-3.71,1.66-3.71,3.71c0,.71.21,1.36.55,1.92-.05.02-.09.03-.14.05-.16-.64-.47-1.24-.97-1.74-1.45-1.45-3.8-1.45-5.25,0-1.45,1.45-1.45,3.8,0,5.25.5.5,1.1.81,1.74.97-.02.05-.03.09-.05.14-.56-.34-1.21-.55-1.92-.55-2.05,0-3.71,1.66-3.71,3.71s1.66,3.71,3.71,3.71c.71,0,1.36-.21,1.92-.55.02.05.03.09.05.14-.64.16-1.24.47-1.74.97-1.45,1.45-1.45,3.8,0,5.25,1.45,1.45,3.8,1.45,5.25,0,.5-.5.81-1.1.97-1.74.05.02.09.03.14.05-.34.56-.55,1.21-.55,1.92,0,2.05,1.66,3.71,3.71,3.71s3.71-1.66,3.71-3.71c0-.71-.21-1.36-.55-1.92.05-.02.09-.03.14-.05.16.64.47,1.24.97,1.74,1.45,1.45,3.8,1.45,5.25,0,1.45-1.45,1.45-3.8,0-5.25-.5-.5-1.1-.81-1.74-.97.02-.05.03-.09.05-.14.56.34,1.21.55,1.92.55Z"/><line class="cls-1" x1="49.88" y1="58.43" x2="49.88" y2="69.75"/><path class="cls-1" d="m49.88,65.32s9.07-7.75,15.23-1.58"/><path class="cls-1" d="m49.88,65.32s-9.07-7.75-15.23-1.58"/><polyline class="cls-1" points="15.27 48.67 15.27 97.79 23.53 97.79 23.53 40.6"/><polyline class="cls-1" points="76.24 40.12 76.24 97.79 84.49 97.79 84.49 48.37"/><polygon class="cls-1" points="96.27 48.47 50 2.21 3.73 48.47 9.57 54.31 50 13.88 90.43 54.31 96.27 48.47"/></svg>