<?xml version="1.0" encoding="UTF-8"?><svg id="Layer_1" xmlns="http://www.w3.org/2000/svg" viewBox="0 0 100 100"><defs><style>.cls-1{fill:none;stroke:#361d5c;stroke-linecap:round;stroke-linejoin:round;}</style></defs><rect class="cls-1" x="14.49" y="35.82" width="71.03" height="59.18"/><rect class="cls-1" x="60.75" y="35.82" width="24.76" height="59.18"/><polyline class="cls-1" points="85.51 95 73.57 82.26 60.75 95"/><line class="cls-1" x1="73.57" y1="82.26" x2="73.57" y2="35.79"/><path class="cls-1" d="m31.57,5h0c6.37,0,11.54,5.17,11.54,11.54v19.27h-23.09v-19.27c0-6.37,5.17-11.54,11.54-11.54Z"/><line class="cls-1" x1="38.47" y1="14.66" x2="24.68" y2="28.45"/><line class="cls-1" x1="38.47" y1="24.32" x2="27" y2="35.79"/><line class="cls-1" x1="38.47" y1="33.93" x2="36.61" y2="35.79"/><path class="cls-1" d="m72.83,16.19h0c5.42,0,9.81,4.4,9.81,9.81v9.81h-19.63v-9.81c0-5.42,4.4-9.81,9.81-9.81Z"/><polyline class="cls-1" points="68.59 17.15 68.59 10.79 77.06 10.79 77.06 17.15"/><rect class="cls-1" x="66.61" y="5" width="12.43" height="5.79"/><path class="cls-1" d="m62.86,24.36c-.8-1.41-2.14-2.52-3.83-2.99-3.3-.92-6.71.95-7.74,4.19.79-3.31-1.16-6.67-4.46-7.59h0c-.6-.17-2.26-.52-3.71-.23"/><path class="cls-1" d="m51.29,25.56s2.64-12.03,9.17-11.88"/></svg>