<?xml version="1.0" encoding="UTF-8"?><svg id="Layer_1" xmlns="http://www.w3.org/2000/svg" viewBox="0 0 100 100"><defs><style>.cls-1{fill:none;stroke:#361d5c;stroke-linecap:round;stroke-linejoin:round;}</style></defs><line class="cls-1" x1="5" y1="95" x2="95" y2="95"/><polyline class="cls-1" points="12.94 45.31 12.94 95 87.06 95 87.06 45.31"/><rect class="cls-1" x="24.73" y="58.64" width="19.93" height="36.36"/><rect class="cls-1" x="58.7" y="54.63" width="15.02" height="22.23" transform="translate(131.95 -.46) rotate(90)"/><polyline class="cls-1" points="95 34.39 79.26 9.55 19.76 9.55 5 34.39"/><path class="cls-1" d="m5,34.39h12.86v4.62c0,3.48-2.82,6.3-6.3,6.3h-.26c-3.48,0-6.3-2.82-6.3-6.3v-4.62h0Z"/><path class="cls-1" d="m82.14,34.39h12.86v4.62c0,3.48-2.82,6.3-6.3,6.3h-.26c-3.48,0-6.3-2.82-6.3-6.3v-4.62h0Z"/><path class="cls-1" d="m69.29,34.39h12.86v4.62c0,3.48-2.82,6.3-6.3,6.3h-.26c-3.48,0-6.3-2.82-6.3-6.3v-4.62h0Z"/><path class="cls-1" d="m56.43,37.56v-3.17h12.86v4.62c0,1.72-.69,3.28-1.81,4.42"/><path class="cls-1" d="m65.68,44.71c-.82.39-1.73.6-2.7.6h-.26c-.66,0-1.29-.1-1.88-.29"/><polyline class="cls-1" points="53.05 34.39 56.43 34.39 56.43 37.68"/><path class="cls-1" d="m43.57,37.9v-3.51h3.43"/><path class="cls-1" d="m55.3,42.6c-1.14,1.64-3.03,2.71-5.18,2.71h-.26c-2.08,0-3.92-1-5.06-2.55"/><path class="cls-1" d="m32.36,43.26c-1.02-1.12-1.65-2.61-1.65-4.25v-4.62h12.86v3.44s0-.23,0-.23"/><path class="cls-1" d="m39.15,45.03c-.59.18-1.22.28-1.88.28h-.26c-.95,0-1.85-.21-2.66-.59"/><path class="cls-1" d="m17.86,34.39h12.86v4.62c0,3.48-2.82,6.3-6.3,6.3h-.26c-3.48,0-6.3-2.82-6.3-6.3v-4.62h0Z"/><line class="cls-1" x1="82.14" y1="34.39" x2="70.61" y2="9.55"/><line class="cls-1" x1="66.18" y1="23.71" x2="62.13" y2="9.55"/><line class="cls-1" x1="69.29" y1="34.39" x2="66.87" y2="26.37"/><line class="cls-1" x1="54.96" y1="21.75" x2="53.66" y2="9.55"/><line class="cls-1" x1="56.43" y1="34.39" x2="56.01" y2="31.3"/><line class="cls-1" x1="44.5" y1="19.98" x2="45.18" y2="9.55"/><line class="cls-1" x1="43.57" y1="34.39" x2="43.78" y2="31.19"/><line class="cls-1" x1="33.42" y1="23.17" x2="36.71" y2="9.55"/><line class="cls-1" x1="30.71" y1="34.39" x2="32.79" y2="25.78"/><line class="cls-1" x1="17.86" y1="34.39" x2="28.23" y2="9.55"/><g><path class="cls-1" d="m32.43,22.32c-.27,1.97.38,3.95,1.82,5.39,1.82,1.82,4.53,2.37,6.92,1.42.28-.11.61-.05.83.17l5.09,5.09,2.92-2.92-5.09-5.09c-.22-.22-.28-.54-.17-.83.95-2.39.4-5.1-1.42-6.92-1.44-1.44-3.42-2.09-5.39-1.82l1.39,1.39c.73.73,1.14,1.71,1.14,2.75s-.41,2.02-1.14,2.75-1.71,1.14-2.75,1.14-2.02-.4-2.75-1.14l-1.39-1.39Z"/><path class="cls-1" d="m66.18,45.07l1.39,1.39c.27-1.97-.38-3.95-1.82-5.39-1.82-1.82-4.53-2.37-6.92-1.42-.28.11-.61.05-.83-.17l-5.09-5.09-2.92,2.92,5.09,5.09c.22.22.28.54.17.83-.95,2.39-.4,5.1,1.42,6.92,1.44,1.44,3.42,2.09,5.39,1.82l-1.39-1.39c-.74-.73-1.14-1.71-1.14-2.75s.4-2.02,1.14-2.75c.73-.74,1.71-1.14,2.75-1.14,1.04,0,2.02.41,2.75,1.14h0Z"/><path class="cls-1" d="m49.46,37.85s0,0,0,0c0,0,0,0,0,0l4-4h0s0,0,0,0l4.55-4.55c.22-.22.54-.28.83-.17.76.3,1.56.46,2.38.46,1.71,0,3.32-.67,4.54-1.88,1.44-1.44,2.09-3.42,1.82-5.39l-1.39,1.39c-.74.74-1.71,1.14-2.75,1.14s-2.02-.41-2.75-1.14c-.74-.73-1.14-1.71-1.14-2.75s.4-2.02,1.14-2.75l1.39-1.39c-.28-.04-.57-.06-.86-.06-1.71,0-3.32.66-4.53,1.87-1.81,1.82-2.37,4.53-1.42,6.92.11.28.05.61-.17.83l-4.54,4.54s0,0,0,.01,0,0-.01,0l-3.99,3.99s0,0,0,0,0,0,0,0l-4.54,4.54c-.22.22-.54.28-.83.17-.76-.3-1.56-.46-2.38-.46-1.71,0-3.32.67-4.53,1.88-1.44,1.44-2.09,3.42-1.82,5.39l1.39-1.39c.73-.74,1.71-1.14,2.75-1.14s2.02.4,2.75,1.14c.73.73,1.14,1.71,1.14,2.75s-.41,2.02-1.14,2.75l-1.39,1.39c1.97.26,3.97-.4,5.38-1.82,1.82-1.82,2.37-4.53,1.42-6.92-.11-.28-.05-.61.17-.83l4.55-4.55Z"/></g></svg>