<?xml version="1.0" encoding="UTF-8"?><svg id="Layer_1" xmlns="http://www.w3.org/2000/svg" viewBox="0 0 100 100"><defs><style>.cls-1{fill:none;stroke:#361d5c;stroke-linecap:round;stroke-linejoin:round;}</style></defs><rect class="cls-1" x="8.12" y="64.25" width="85.55" height="15.84"/><line class="cls-1" x1="19.58" y1="80.09" x2="19.58" y2="88.65"/><line class="cls-1" x1="82.22" y1="80.09" x2="82.22" y2="88.65"/><polyline class="cls-1" points="26.6 38.15 26.6 64.25 75.02 64.25 75.02 38.15"/><line class="cls-1" x1="21.16" y1="42.79" x2="50.9" y2="17.47"/><line class="cls-1" x1="80.65" y1="42.79" x2="50.9" y2="17.47"/><circle class="cls-1" cx="51.14" cy="35.45" r="6.16"/><path class="cls-1" d="m66.5,51.99h0c2.78,0,5.04,2.26,5.04,5.04v4.12h-10.08v-4.12c0-2.78,2.26-5.04,5.04-5.04Z"/><path class="cls-1" d="m35.13,51.99h0c2.78,0,5.04,2.26,5.04,5.04v4.12h-10.08v-4.12c0-2.78,2.26-5.04,5.04-5.04Z"/><path class="cls-1" d="m50.81,46.79h0c3.89,0,7.05,3.16,7.05,7.05v10.41h-14.1v-10.41c0-3.89,3.16-7.05,7.05-7.05Z"/><line class="cls-1" x1="14.96" y1="72.17" x2="25.65" y2="72.17"/><line class="cls-1" x1="35.36" y1="72.17" x2="46.05" y2="72.17"/><line class="cls-1" x1="55.75" y1="72.17" x2="66.45" y2="72.17"/><line class="cls-1" x1="76.15" y1="72.17" x2="86.84" y2="72.17"/><path class="cls-1" d="m82.19,16.58c.08-.4.13-.82.13-1.24,0-3.4-2.75-6.15-6.15-6.15s-6.15,2.75-6.15,6.15c0,.07,0,.14.01.2-2.19.28-3.88,2.12-3.88,4.38,0,2.45,1.99,4.44,4.44,4.44h10.98c2.17,0,3.92-1.76,3.92-3.92,0-1.95-1.43-3.56-3.3-3.86Z"/><path class="cls-1" d="m89.36,16.58c.08-.4.13-.82.13-1.24,0-3.4-2.75-6.15-6.15-6.15-1.34,0-2.58.43-3.59,1.16,1.55,1.12,2.56,2.93,2.56,4.99,0,.43-.04.84-.13,1.24,1.87.3,3.3,1.91,3.3,3.86,0,2.17-1.76,3.92-3.92,3.92h7.17c2.17,0,3.92-1.76,3.92-3.92,0-1.95-1.43-3.56-3.3-3.86Z"/><circle class="cls-1" cx="20.42" cy="19.7" r="5.1"/><line class="cls-1" x1="20.42" y1="11.08" x2="20.42" y2="5.6"/><line class="cls-1" x1="20.42" y1="33.8" x2="20.42" y2="28.33"/><line class="cls-1" x1="26.52" y1="13.6" x2="30.39" y2="9.73"/><line class="cls-1" x1="10.45" y1="29.67" x2="14.32" y2="25.8"/><line class="cls-1" x1="29.05" y1="19.7" x2="34.52" y2="19.7"/><line class="cls-1" x1="6.32" y1="19.7" x2="11.8" y2="19.7"/><line class="cls-1" x1="26.52" y1="25.8" x2="30.39" y2="29.67"/><line class="cls-1" x1="10.45" y1="9.73" x2="14.32" y2="13.6"/><path class="cls-1" d="m8.12,88.79c.72-.28,1.4-.14,2,.32.86.66,1.86.66,2.73,0,.6-.45,1.28-.6,2-.32l.54.32c.86.66,1.86.66,2.73,0,.6-.45,1.28-.6,2-.32"/><path class="cls-1" d="m30.62,88.79c-.72-.28-1.4-.14-2,.32-.86.66-1.86.66-2.73,0l-.54-.32c-.72-.28-1.4-.14-2,.32-.86.66-1.86.66-2.73,0-.6-.45-1.28-.6-2-.32"/><path class="cls-1" d="m41.13,88.79c-.72-.28-1.4-.14-2,.32-.86.66-1.86.66-2.73,0l-.54-.32c-.72-.28-1.4-.14-2,.32-.86.66-1.86.66-2.73,0-.6-.45-1.28-.6-2-.32"/><path class="cls-1" d="m51.64,88.79c-.72-.28-1.4-.14-2,.32-.86.66-1.86.66-2.73,0l-.54-.32c-.72-.28-1.4-.14-2,.32-.86.66-1.86.66-2.73,0-.6-.45-1.28-.6-2-.32"/><path class="cls-1" d="m62.15,88.79c-.72-.28-1.4-.14-2,.32-.86.66-1.86.66-2.73,0l-.54-.32c-.72-.28-1.4-.14-2,.32-.86.66-1.86.66-2.73,0-.6-.45-1.28-.6-2-.32"/><path class="cls-1" d="m72.66,88.79c-.72-.28-1.4-.14-2,.32-.86.66-1.86.66-2.73,0l-.54-.32c-.72-.28-1.4-.14-2,.32-.86.66-1.86.66-2.73,0-.6-.45-1.28-.6-2-.32"/><path class="cls-1" d="m83.17,88.79c-.72-.28-1.4-.14-2,.32-.86.66-1.86.66-2.73,0l-.54-.32c-.72-.28-1.4-.14-2,.32-.86.66-1.86.66-2.73,0-.6-.45-1.28-.6-2-.32"/><path class="cls-1" d="m81.69,88.79c.72-.28,1.4-.14,2,.32.86.66,1.86.66,2.73,0,.6-.45,1.28-.6,2-.32l.54.32c.86.66,1.86.66,2.73,0,.6-.45,1.28-.6,2-.32"/><path class="cls-1" d="m8.12,93.59c.72-.28,1.4-.14,2,.32.86.66,1.86.66,2.73,0,.6-.45,1.28-.6,2-.32l.54.32c.86.66,1.86.66,2.73,0,.6-.45,1.28-.6,2-.32"/><path class="cls-1" d="m30.62,93.59c-.72-.28-1.4-.14-2,.32-.86.66-1.86.66-2.73,0l-.54-.32c-.72-.28-1.4-.14-2,.32-.86.66-1.86.66-2.73,0-.6-.45-1.28-.6-2-.32"/><path class="cls-1" d="m41.13,93.59c-.72-.28-1.4-.14-2,.32-.86.66-1.86.66-2.73,0l-.54-.32c-.72-.28-1.4-.14-2,.32-.86.66-1.86.66-2.73,0-.6-.45-1.28-.6-2-.32"/><path class="cls-1" d="m51.64,93.59c-.72-.28-1.4-.14-2,.32-.86.66-1.86.66-2.73,0l-.54-.32c-.72-.28-1.4-.14-2,.32-.86.66-1.86.66-2.73,0-.6-.45-1.28-.6-2-.32"/><path class="cls-1" d="m62.15,93.59c-.72-.28-1.4-.14-2,.32-.86.66-1.86.66-2.73,0l-.54-.32c-.72-.28-1.4-.14-2,.32-.86.66-1.86.66-2.73,0-.6-.45-1.28-.6-2-.32"/><path class="cls-1" d="m72.66,93.59c-.72-.28-1.4-.14-2,.32-.86.66-1.86.66-2.73,0l-.54-.32c-.72-.28-1.4-.14-2,.32-.86.66-1.86.66-2.73,0-.6-.45-1.28-.6-2-.32"/><path class="cls-1" d="m83.17,93.59c-.72-.28-1.4-.14-2,.32-.86.66-1.86.66-2.73,0l-.54-.32c-.72-.28-1.4-.14-2,.32-.86.66-1.86.66-2.73,0-.6-.45-1.28-.6-2-.32"/><path class="cls-1" d="m81.69,93.59c.72-.28,1.4-.14,2,.32.86.66,1.86.66,2.73,0,.6-.45,1.28-.6,2-.32l.54.32c.86.66,1.86.66,2.73,0,.6-.45,1.28-.6,2-.32"/></svg>