<?xml version="1.0" encoding="UTF-8"?>
<svg id="Layer_1" data-name="Layer 1" xmlns="http://www.w3.org/2000/svg" viewBox="0 0 100 100">
  <defs>
    <style>
      .cls-1 {
        fill: none;
        stroke: #361d5c;
        stroke-linecap: round;
        stroke-linejoin: round;
      }
    </style>
  </defs>
  <g>
    <path class="cls-1" d="m51.23,73.93h-15.35c-12.67,0-22.95-10.27-22.95-22.95v.4h61.24v-.4c0,12.67-10.27,22.95-22.95,22.95Z"/>
    <path class="cls-1" d="m18.52,61.24c-1.34-2.25-2.24-4.79-2.62-7.49"/>
    <path class="cls-1" d="m22.82,66.35c-.78-.66-1.51-1.38-2.18-2.15"/>
    <path class="cls-1" d="m12.94,51.12c1.36-7.59,7.99-13.36,15.98-13.36s14.55,5.71,15.96,13.24"/>
    <path class="cls-1" d="m37.02,39.93c1.76-8.89,9.6-15.59,19.01-15.59,10.7,0,19.38,8.68,19.38,19.38,0,2.54-.49,4.98-1.38,7.2"/>
    <path class="cls-1" d="m25.65,13.13s-2.5-6.21-9.48-6.08"/>
    <path class="cls-1" d="m26.71,37.76s-6.19-4.36-1.62-8.48,14.28-.76,21.71-6.47c7.43-5.71,12.55-3.93,13.41-.84.94,3.75-1.85,2.16,1.23,3.14"/>
    <path class="cls-1" d="m26.31,28.42s-.96-10.18,6.85-9.57,17.9-3.43,19.31-7.16"/>
    <path class="cls-1" d="m52.99,19.47s1.23-5.79-.96-9.56-3.94-4.39-3.52-5.53c0,0-3.08,7.01-8.34,6.28s-6.7,7.01-5.45,8.25"/>
    <path class="cls-1" d="m26.39,24.73c-.38-.02-.76-.08-1.15-.19-3.06-.82-4.87-3.97-4.05-7.03s3.97-4.87,7.03-4.05c2.43.65,4.08,2.72,4.24,5.09"/>
    <path class="cls-1" d="m53.68,87.48h-6.72v-13.55h-6.8v13.55h-6.72c-4.5,0-8.15,3.65-8.15,8.15h36.54c0-4.5-3.65-8.15-8.15-8.15Z"/>
    <path class="cls-1" d="m63.85,25.77l8.07-13.8c1.84-3.14,6.16-3.7,8.73-1.12l4.77,4.77c2.58,2.58,2.02,6.89-1.12,8.73l-12.78,7.48"/>
    <line class="cls-1" x1="86.46" y1="17.03" x2="69" y2="17.03"/>
    <line class="cls-1" x1="86.59" y1="21.77" x2="66.23" y2="21.77"/>
    <line class="cls-1" x1="56.22" y1="30.81" x2="56.22" y2="30.81"/>
    <line class="cls-1" x1="60.53" y1="29.78" x2="60.53" y2="29.78"/>
    <line class="cls-1" x1="60.18" y1="32.98" x2="60.18" y2="32.98"/>
    <line class="cls-1" x1="23.91" y1="41.89" x2="23.91" y2="41.89"/>
    <line class="cls-1" x1="23.4" y1="45.6" x2="23.4" y2="45.6"/>
    <line class="cls-1" x1="20.31" y1="43.6" x2="20.31" y2="43.6"/>
  </g>
  <path class="cls-1" d="m51.3,51.38h3.25v8.24c0,.9-.73,1.62-1.62,1.62h0c-.9,0-1.62-.73-1.62-1.62v-8.24h0Z"/>
  <path class="cls-1" d="m54.59,51.38h3.25v12.97c0,.9-.73,1.62-1.62,1.62h0c-.9,0-1.62-.73-1.62-1.62v-12.97h0Z"/>
  <path class="cls-1" d="m57.84,51.38h3.25v3.31c0,.9-.73,1.62-1.62,1.62h0c-.9,0-1.62-.73-1.62-1.62v-3.31h0Z"/>
</svg>