<?xml version="1.0" encoding="UTF-8"?><svg id="Layer_1" xmlns="http://www.w3.org/2000/svg" viewBox="0 0 100 100"><defs><style>.cls-1{fill:none;stroke:#361d5c;stroke-linecap:round;stroke-linejoin:round;}</style></defs><g><path class="cls-1" d="m22.04,53.45h17.86c3.64,0,6.59,2.95,6.59,6.59v34.96H15.45v-34.96c0-3.64,2.95-6.59,6.59-6.59Z"/><g><rect class="cls-1" x="22.04" y="47.35" width="17.85" height="6.11"/><line class="cls-1" x1="24.27" y1="49.17" x2="24.27" y2="51.63"/><line class="cls-1" x1="26.5" y1="49.17" x2="26.5" y2="51.63"/><line class="cls-1" x1="28.73" y1="49.17" x2="28.73" y2="51.63"/><line class="cls-1" x1="30.97" y1="49.17" x2="30.97" y2="51.63"/><line class="cls-1" x1="33.2" y1="49.17" x2="33.2" y2="51.63"/><line class="cls-1" x1="35.43" y1="49.17" x2="35.43" y2="51.63"/><line class="cls-1" x1="37.66" y1="49.17" x2="37.66" y2="51.63"/></g><g><rect class="cls-1" x="38.34" y="64.11" width="8.15" height="17.91"/><line class="cls-1" x1="46.48" y1="67.87" x2="41.64" y2="67.87"/><line class="cls-1" x1="46.48" y1="70.47" x2="41.64" y2="70.47"/><line class="cls-1" x1="46.48" y1="73.06" x2="41.64" y2="73.06"/><line class="cls-1" x1="46.48" y1="75.66" x2="41.64" y2="75.66"/><line class="cls-1" x1="46.48" y1="78.26" x2="44.06" y2="78.26"/><rect class="cls-1" x="15.45" y="64.11" width="4.46" height="17.91"/></g></g><rect class="cls-1" x="54.41" y="47.35" width="30.14" height="47.65" rx="3.05" ry="3.05"/><rect class="cls-1" x="60.21" y="43.95" width="18.74" height="3.4"/><rect class="cls-1" x="63.08" y="40.08" width="13" height="3.86"/><rect class="cls-1" x="67.27" y="38.15" width="4.6" height="1.93"/><path class="cls-1" d="m75.83,38.13h-12.76c0-5.05,4.09-9.15,9.15-9.15h20.22s0,2.98,0,2.98h-14.74c-.52,0-.94.42-.94.94v4.3c0,.52-.42.94-.94.94"/><path class="cls-1" d="m90.23,42.05c.46.79,1.3,1.28,2.22,1.28s1.76-.49,2.22-1.28c.46-.8.45-1.77-.01-2.56h0s-2.2-3.76-2.2-3.76l-2.2,3.76h0c-.46.79-.47,1.77-.01,2.56Z"/><line class="cls-1" x1="60.21" y1="76.18" x2="78.95" y2="76.18"/><line class="cls-1" x1="60.21" y1="79.02" x2="78.95" y2="79.02"/><g><g><rect class="cls-1" x="37.06" y="17.92" width="6.89" height="14.23" rx="3.45" ry="3.45" transform="translate(28.42 -21.02) rotate(43.57)"/><line class="cls-1" x1="38.01" y1="22.66" x2="43" y2="27.41"/></g><g><rect class="cls-1" x="18.11" y="27.85" width="6.89" height="14.23" rx="3.45" ry="3.45" transform="translate(-18.63 26.48) rotate(-46.43)"/><line class="cls-1" x1="19.18" y1="37.46" x2="23.93" y2="32.47"/></g></g><g><circle class="cls-1" cx="25.02" cy="14.54" r="4.39"/><line class="cls-1" x1="21.75" y1="17.46" x2="27.92" y2="11.29"/></g><g><rect class="cls-1" x="54.88" y="10.15" width="29.18" height="8.78"/><rect class="cls-1" x="65.42" y="10.15" width="8.12" height="8.78"/><line class="cls-1" x1="66.66" y1="11.39" x2="66.66" y2="11.39"/><line class="cls-1" x1="68.53" y1="11.39" x2="68.53" y2="11.39"/><line class="cls-1" x1="70.4" y1="11.39" x2="70.4" y2="11.39"/><line class="cls-1" x1="72.28" y1="11.39" x2="72.28" y2="11.39"/><line class="cls-1" x1="67.63" y1="12.91" x2="67.63" y2="12.91"/><line class="cls-1" x1="71.31" y1="12.91" x2="71.31" y2="12.91"/><line class="cls-1" x1="69.47" y1="12.91" x2="69.47" y2="12.91"/><line class="cls-1" x1="66.66" y1="14.43" x2="66.66" y2="14.43"/><line class="cls-1" x1="68.53" y1="14.43" x2="68.53" y2="14.43"/><line class="cls-1" x1="70.4" y1="14.43" x2="70.4" y2="14.43"/><line class="cls-1" x1="72.28" y1="14.43" x2="72.28" y2="14.43"/><line class="cls-1" x1="66.66" y1="17.46" x2="66.66" y2="17.46"/><line class="cls-1" x1="68.53" y1="17.46" x2="68.53" y2="17.46"/><line class="cls-1" x1="70.4" y1="17.46" x2="70.4" y2="17.46"/><line class="cls-1" x1="72.28" y1="17.46" x2="72.28" y2="17.46"/><line class="cls-1" x1="67.63" y1="15.91" x2="67.63" y2="15.91"/><line class="cls-1" x1="71.31" y1="15.91" x2="71.31" y2="15.91"/><line class="cls-1" x1="69.47" y1="15.91" x2="69.47" y2="15.91"/></g><polygon class="cls-1" points="78.17 60.34 70.9 60.34 70.9 53.07 68.05 53.07 68.05 60.34 60.78 60.34 60.78 63.19 68.05 63.19 68.05 70.46 70.9 70.46 70.9 63.19 78.17 63.19 78.17 60.34"/></svg>