<?xml version="1.0" encoding="UTF-8"?><svg id="Layer_1" xmlns="http://www.w3.org/2000/svg" viewBox="0 0 100 100"><defs><style>.cls-1{fill:none;stroke:#361d5c;stroke-linecap:round;stroke-linejoin:round;}</style></defs><path class="cls-1" d="m60.61,18.55c.06,2.5-.65,7.19-.59,9.69-2.16-.13-4.3-.44-6.41-.93.38,1.37-2.85,2.12-1.48,3.83,1.11,1.38-2.24,2.74-3.36,4.12,2.27,1.1,4.6,2.22,7.11,2.5,1.48.17,3.06.06,4.35.81s1.84,2.89.57,3.66c-.55.34-1.24.3-1.88.25-1.29-.1-2.59-.2-3.88-.29-2.65-.2-5.35-.4-7.94.2s-5.1,2.13-6.22,4.53-.43,5.71,1.91,6.97c1.79.97,4.05.6,5.9,1.45,2.08.95,3.22,3.23,3.7,5.47s.45,4.56,1,6.77c.1.4.23.82.54,1.09.23.21.53.31.83.41,1.41.46,2.86.88,4.34.82s3.01-.66,3.84-1.89c1.35-2,.42-4.72.83-7.11.36-2.06,1.82-3.88,3.75-4.68.59-.24,1.32-.52,1.4-1.15.04-.33-.13-.65-.3-.94-.75-1.25-1.68-2.39-2.76-3.37-.59-.54-1.28-1.16-1.24-1.96.06-1.13,1.5-1.6,2.63-1.52s2.38.38,3.3-.28c-.5-.82-1.01-1.68-1.15-2.63s.19-2.05,1.04-2.51c1.01-.56,2.24-.05,3.33.33,3.73,1.31,4.95,1.74,8.47-.04"/><path class="cls-1" d="m47.4,18.36c.39,1.66-.12,3.44-1.12,4.82s-2.44,2.38-3.97,3.13c-.66.32-1.36.61-1.88,1.12s-2.3,2.8-1.98,3.46"/><path class="cls-1" d="m32.9,21.76c-.15,1.72.05,4.76-.01,6.49s-.5,3.55-1.74,4.75c-1.69,1.64-4.52,1.8-5.99,3.64-.34.42-.58.91-.92,1.32-1.37,1.69-4.25,2.94-5.64,1.27"/><path class="cls-1" d="m17.32,44.23c2.57.14,6.75,2.64,7.61,5.07.59,1.66.5,3.53,1.25,5.14.61,1.31,1.73,2.33,2.46,3.58,1.54,2.63,1.19,5.91.79,8.93-.15,1.18-.32,2.38-.81,3.46s-1.39,2.04-2.54,2.33"/><path class="cls-1" d="m37.08,80.58c1.42-.42,2.44-.58,3.75-1.27,1.36-.71,2.58-.48,4.03-1,1.18-.42,2.42-.61,3.67-.72,2.4-.22,4.86-.17,7.17.53s4.47,1,5.77,3.03"/><path class="cls-1" d="m69.93,65.17c.59.32,1.35.09,1.85-.35s.8-1.07,1.08-1.67c.58-1.23,1.16-2.51,1.18-3.87"/><circle class="cls-1" cx="50" cy="50" r="33.18"/><circle class="cls-1" cx="50" cy="8.62" r="2.76"/><circle class="cls-1" cx="50" cy="91.38" r="2.76"/><circle class="cls-1" cx="91.38" cy="50" r="2.76"/><circle class="cls-1" cx="8.62" cy="50" r="2.76"/><g><path class="cls-1" d="m43.16,9.2C25.65,12.11,11.85,26.02,9.12,43.59"/><path class="cls-1" d="m90.88,43.59c-2.73-17.57-16.53-31.48-34.04-34.39"/><path class="cls-1" d="m56.84,90.8c17.23-2.87,30.85-16.37,33.89-33.54"/><path class="cls-1" d="m9.27,57.26c3.04,17.17,16.66,30.67,33.89,33.54"/></g></svg>