<?xml version="1.0" encoding="UTF-8"?><svg id="Layer_1" xmlns="http://www.w3.org/2000/svg" viewBox="0 0 100 100"><defs><style>.cls-1{fill:none;stroke:#361d5c;stroke-linecap:round;stroke-linejoin:round;}</style></defs><polyline class="cls-1" points="48.98 95 5 95 5 18.16 64.64 18.16 64.64 31.59"/><polyline class="cls-1" points="64.64 31.59 64.64 18.16 70.75 18.16 70.75 31.59"/><polyline class="cls-1" points="47.93 24.15 47.93 18.16 54.03 18.16 54.03 18.16"/><path class="cls-1" d="m47.93,24.15v-6.04c0-7.24-5.87-13.1-13.1-13.1s-13.1,5.87-13.1,13.1v6.04"/><path class="cls-1" d="m54.03,18.1h0c0-7.24-5.87-13.1-13.1-13.1s-13.1,5.87-13.1,13.1h0"/><rect class="cls-1" x="48.98" y="45.92" width="31.32" height="49.08"/><rect class="cls-1" x="80.3" y="45.92" width="14.7" height="49.08"/><polyline class="cls-1" points="95 45.92 87.61 38.53 74.3 38.59 56.32 38.59 48.98 45.92"/><rect class="cls-1" x="56.32" y="31.59" width="31.29" height="7"/><polyline class="cls-1" points="87.61 38.59 80.3 45.89 80.3 95"/><circle class="cls-1" cx="64.64" cy="70.46" r="7.52"/></svg>