<?xml version="1.0" encoding="UTF-8"?><svg id="Layer_1" xmlns="http://www.w3.org/2000/svg" viewBox="0 0 100 100"><defs><style>.cls-1{fill:none;stroke:#361d5c;stroke-linecap:round;stroke-linejoin:round;}</style></defs><polygon class="cls-1" points="5.06 86.1 95 86.1 95 82.43 5 82.43 5.06 86.1"/><path class="cls-1" d="m9.69,82.41h80.68v-28.32c0-22.29-18.07-40.35-40.35-40.35h0c-22.3,0-40.37,18.08-40.35,40.38l.03,28.29Z"/><circle class="cls-1" cx="19.45" cy="90.55" r="4.45"/><circle class="cls-1" cx="80.55" cy="90.55" r="4.45"/><path class="cls-1" d="m12.33,82.41h75.4v-28.53c0-20.83-16.88-37.71-37.71-37.71h0c-20.84,0-37.73,16.9-37.71,37.74l.02,28.5Z"/><g><g><rect class="cls-1" x="52.79" y="52.61" width="23.74" height="35.85" transform="translate(-5.87 135.2) rotate(-90)"/><path class="cls-1" d="m46.74,77.92c2.48,0,4.48,2.01,4.48,4.48"/><path class="cls-1" d="m51.22,58.66c0,2.48-2.01,4.48-4.48,4.48"/><path class="cls-1" d="m82.59,63.14c-2.48,0-4.48-2.01-4.48-4.48"/><path class="cls-1" d="m78.11,82.41c0-2.48,2.01-4.48,4.48-4.48"/><g><g><line class="cls-1" x1="57.2" y1="82.41" x2="57.2" y2="58.66"/><line class="cls-1" x1="70.32" y1="82.41" x2="70.32" y2="58.66"/></g><g><line class="cls-1" x1="59.01" y1="82.41" x2="59.01" y2="58.66"/><line class="cls-1" x1="72.13" y1="82.41" x2="72.13" y2="58.66"/></g></g><rect class="cls-1" x="61.59" y="56.5" width="6.15" height="2.16"/></g><g><rect class="cls-1" x="17.57" y="46.56" width="23.74" height="35.85" transform="translate(58.89 128.96) rotate(180)"/><path class="cls-1" d="m36.84,82.41c0-2.48,2.01-4.48,4.48-4.48"/><path class="cls-1" d="m17.57,77.92c2.48,0,4.48,2.01,4.48,4.48"/><path class="cls-1" d="m22.06,46.56c0,2.48-2.01,4.48-4.48,4.48"/><path class="cls-1" d="m41.32,51.04c-2.48,0-4.48-2.01-4.48-4.48"/><g><g><line class="cls-1" x1="41.32" y1="71.95" x2="17.57" y2="71.95"/><line class="cls-1" x1="41.32" y1="58.83" x2="17.57" y2="58.83"/></g><g><line class="cls-1" x1="41.32" y1="70.13" x2="17.57" y2="70.13"/><line class="cls-1" x1="41.32" y1="57.02" x2="17.57" y2="57.02"/></g></g><rect class="cls-1" x="13.42" y="63.4" width="6.15" height="2.16" transform="translate(-47.99 80.98) rotate(-90)"/></g></g><circle class="cls-1" cx="80.55" cy="90.55" r="1.69"/><circle class="cls-1" cx="19.45" cy="90.55" r="1.69"/><circle class="cls-1" cx="50" cy="7.43" r="2.43"/><polyline class="cls-1" points="51.21 9.85 51.21 13.74 48.79 13.74 48.79 9.85"/></svg>