<?xml version="1.0" encoding="UTF-8"?><svg id="Layer_1" xmlns="http://www.w3.org/2000/svg" viewBox="0 0 100 100"><defs><style>.cls-1{fill:none;stroke:#361d5c;stroke-linecap:round;stroke-linejoin:round;}</style></defs><polygon class="cls-1" points="50 5 51.87 10.75 57.92 10.75 53.02 14.31 54.89 20.06 50 16.51 45.11 20.06 46.98 14.31 42.08 10.75 48.13 10.75 50 5"/><polygon class="cls-1" points="31.54 12.21 32.86 16.28 37.15 16.28 33.68 18.8 35 22.88 31.54 20.36 28.07 22.88 29.4 18.8 25.93 16.28 30.21 16.28 31.54 12.21"/><polygon class="cls-1" points="20 24.34 21.01 27.45 24.29 27.45 21.64 29.37 22.65 32.49 20 30.56 17.35 32.49 18.37 29.37 15.72 27.45 18.99 27.45 20 24.34"/><polygon class="cls-1" points="79.93 24.34 80.94 27.45 84.21 27.45 81.56 29.37 82.58 32.49 79.93 30.56 77.28 32.49 78.29 29.37 75.64 27.45 78.92 27.45 79.93 24.34"/><polygon class="cls-1" points="68.46 12.21 69.79 16.28 74.07 16.28 70.6 18.8 71.93 22.88 68.46 20.36 65 22.88 66.32 18.8 62.85 16.28 67.14 16.28 68.46 12.21"/><polyline class="cls-1" points="30.18 50.01 30.18 33.65 69.82 33.65 69.82 50"/><polyline class="cls-1" points="69.82 50 69.82 95.76 30.18 95.76 30.18 75.41"/><polyline class="cls-1" points="30.18 33.65 62.63 26.96 62.63 33.65"/><circle class="cls-1" cx="50" cy="50" r="8.15"/><line class="cls-1" x1="37.53" y1="66.75" x2="62.47" y2="66.75"/><line class="cls-1" x1="37.53" y1="72.46" x2="62.47" y2="72.46"/><g><line class="cls-1" x1="15.24" y1="95.76" x2="30.87" y2="95.76"/><path class="cls-1" d="m34.72,50.01H11.39c3.32,3.49,3.86,9.33,1.49,13.56-1.23,2.19-1.68,4.8-.76,7.14,1.77,4.5,6.35,6.8,10.94,6.81,4.58-.02,9.17-2.31,10.94-6.81.92-2.34.47-4.94-.76-7.14-2.37-4.23-1.83-10.07,1.49-13.56Z"/><path class="cls-1" d="m17.78,50.01c0-3.53-2.86-6.39-6.39-6.39s-6.39,2.86-6.39,6.39,2.86,6.39,6.39,6.39c.88,0,1.72-.18,2.49-.5"/><path class="cls-1" d="m14.32,58.4c1.21-.25,2.32-.65,3.55-.58,2.82.15,5.56,1.14,8.39,1.19,1.37.02,2.74-.18,4.06-.54.61-.16.88-.24,1.46-.47"/><path class="cls-1" d="m34.72,50.01H11.39c3.32,3.49,3.86,9.33,1.49,13.56-1.23,2.19-1.68,4.8-.76,7.14,1.77,4.5,6.35,6.8,10.94,6.81,4.58-.02,9.17-2.31,10.94-6.81.92-2.34.47-4.94-.76-7.14-2.37-4.23-1.83-10.07,1.49-13.56Z"/><rect class="cls-1" x="16.05" y="67.96" width="3.45" height="3.45" transform="translate(-21.55 9.48) rotate(-18.84)"/><rect class="cls-1" x="22.41" y="61.15" width="3.45" height="3.45" transform="translate(17.58 -4.15) rotate(15.42)"/><rect class="cls-1" x="26.3" y="69.62" width="3.45" height="3.45" transform="translate(2.57 -.96) rotate(2.05)"/><g><g><line class="cls-1" x1="11.39" y1="45.44" x2="11.39" y2="47.71"/><line class="cls-1" x1="11.39" y1="52.31" x2="11.39" y2="54.58"/></g><g><line class="cls-1" x1="15.96" y1="50.01" x2="13.69" y2="50.01"/><line class="cls-1" x1="9.09" y1="50.01" x2="6.82" y2="50.01"/></g><g><line class="cls-1" x1="14.62" y1="46.78" x2="13.02" y2="48.38"/><line class="cls-1" x1="9.76" y1="51.64" x2="8.16" y2="53.24"/></g><line class="cls-1" x1="9.76" y1="48.38" x2="8.16" y2="46.78"/></g><line class="cls-1" x1="23.05" y1="77.52" x2="23.05" y2="95.76"/></g><g><line class="cls-1" x1="76.95" y1="50.3" x2="76.95" y2="61.4"/><line class="cls-1" x1="78.99" y1="50.3" x2="78.99" y2="61.4"/><path class="cls-1" d="m81.02,50.3v11.09c0,1.16-.94,2.09-2.09,2.09v31.36c0,.55-.44.99-.99.99s-.99-.44-.99-.99v-31.36c-1.16,0-2.09-.94-2.09-2.09v-11.09"/></g><path class="cls-1" d="m88.05,72.43v-20.39c0-1.12-.91-2.03-2.03-2.03s-2.03.91-2.03,2.03v16.6c0,1.16.94,2.09,2.09,2.09v24.12c0,.55.44.99.99.99s.99-.44.99-.99v-24.12"/></svg>