<?xml version="1.0" encoding="UTF-8"?>
<svg id="Layer_1" data-name="Layer 1" xmlns="http://www.w3.org/2000/svg" viewBox="0 0 100 100">
  <defs>
    <style>
      .cls-1 {
        fill: none;
        stroke: #361d5c;
        stroke-linecap: round;
        stroke-linejoin: round;
      }
    </style>
  </defs>
  <polyline class="cls-1" points="53.32 46.36 53.32 10.83 95.32 10.83 95.32 28.16"/>
  <polyline class="cls-1" points="95.32 28.16 95.32 76.65 63.17 76.65"/>
  <polyline class="cls-1" points="53.32 10.83 87.7 3.74 87.7 10.83"/>
  <circle class="cls-1" cx="74.32" cy="28.16" r="8.64"/>
  <line class="cls-1" x1="63.13" y1="45.91" x2="85.51" y2="45.91"/>
  <line class="cls-1" x1="63.13" y1="51.96" x2="85.51" y2="51.96"/>
  <g>
    <polygon class="cls-1" points="4.29 89.89 66.37 89.89 66.37 87.36 4.25 87.36 4.29 89.89"/>
    <path class="cls-1" d="m7.48,87.34h55.69v-19.55c0-15.38-12.47-27.85-27.85-27.85h0c-15.39,0-27.86,12.48-27.85,27.87l.02,19.53Z"/>
    <circle class="cls-1" cx="14.22" cy="92.96" r="3.07"/>
    <circle class="cls-1" cx="56.4" cy="92.96" r="3.07"/>
    <path class="cls-1" d="m9.3,87.34h52.05v-19.7c0-14.38-11.65-26.03-26.03-26.03h0c-14.38,0-26.04,11.67-26.03,26.05l.02,19.68Z"/>
    <g>
      <g>
        <rect class="cls-1" x="37.23" y="66.78" width="16.39" height="24.74" transform="translate(-33.72 124.58) rotate(-90)"/>
        <path class="cls-1" d="m33.06,84.25c1.71,0,3.09,1.39,3.09,3.09"/>
        <path class="cls-1" d="m36.15,70.95c0,1.71-1.39,3.09-3.09,3.09"/>
        <path class="cls-1" d="m57.8,74.05c-1.71,0-3.09-1.39-3.09-3.09"/>
        <path class="cls-1" d="m54.71,87.34c0-1.71,1.39-3.09,3.09-3.09"/>
        <g>
          <g>
            <line class="cls-1" x1="40.28" y1="87.34" x2="40.28" y2="70.95"/>
            <line class="cls-1" x1="49.33" y1="87.34" x2="49.33" y2="70.95"/>
          </g>
          <g>
            <line class="cls-1" x1="41.53" y1="87.34" x2="41.53" y2="70.95"/>
            <line class="cls-1" x1="50.58" y1="87.34" x2="50.58" y2="70.95"/>
          </g>
        </g>
        <rect class="cls-1" x="43.31" y="69.46" width="4.24" height="1.49"/>
      </g>
      <g>
        <rect class="cls-1" x="12.93" y="62.6" width="16.39" height="24.74" transform="translate(42.24 149.94) rotate(180)"/>
        <path class="cls-1" d="m26.22,87.34c0-1.71,1.39-3.09,3.09-3.09"/>
        <path class="cls-1" d="m12.93,84.25c1.71,0,3.09,1.39,3.09,3.09"/>
        <path class="cls-1" d="m16.02,62.6c0,1.71-1.39,3.09-3.09,3.09"/>
        <path class="cls-1" d="m29.32,65.69c-1.71,0-3.09-1.39-3.09-3.09"/>
        <g>
          <g>
            <line class="cls-1" x1="29.32" y1="80.12" x2="12.93" y2="80.12"/>
            <line class="cls-1" x1="29.32" y1="71.07" x2="12.93" y2="71.07"/>
          </g>
          <g>
            <line class="cls-1" x1="29.32" y1="78.87" x2="12.93" y2="78.87"/>
            <line class="cls-1" x1="29.32" y1="69.82" x2="12.93" y2="69.82"/>
          </g>
        </g>
        <rect class="cls-1" x="10.06" y="74.22" width="4.24" height="1.49" transform="translate(-62.79 87.15) rotate(-90)"/>
      </g>
    </g>
    <circle class="cls-1" cx="56.4" cy="92.96" r="1.17"/>
    <circle class="cls-1" cx="14.22" cy="92.96" r="1.17"/>
    <circle class="cls-1" cx="35.31" cy="35.59" r="1.67"/>
    <polyline class="cls-1" points="36.14 37.26 36.14 39.94 34.47 39.94 34.47 37.26"/>
  </g>
  <line class="cls-1" x1="61.05" y1="76.65" x2="57.8" y2="76.65"/>
  <line class="cls-1" x1="53.32" y1="49.09" x2="53.32" y2="70.66"/>
</svg>