<?xml version="1.0" encoding="UTF-8"?>
<svg id="Layer_1" data-name="Layer 1" xmlns="http://www.w3.org/2000/svg" viewBox="0 0 100 100">
  <defs>
    <style>
      .cls-1 {
        fill: none;
        stroke: #361d5c;
        stroke-linecap: round;
        stroke-linejoin: round;
      }
    </style>
  </defs>
  <rect class="cls-1" x="13.8" y="12.47" width="72.39" height="44.59"/>
  <path class="cls-1" d="m19.57,70.71h25.91v9.88c0,3.87-3.14,7.01-7.01,7.01h-11.89c-3.87,0-7.01-3.14-7.01-7.01v-9.88h0Z"/>
  <path class="cls-1" d="m6.6,74.12h12.97v2.67H6.6c-.74,0-1.34-.6-1.34-1.34h0c0-.74.6-1.34,1.34-1.34Z"/>
  <path class="cls-1" d="m81.76,81.49h12.97v2.67h-12.97c-.74,0-1.34-.6-1.34-1.34h0c0-.74.6-1.34,1.34-1.34Z" transform="translate(175.16 165.65) rotate(-180)"/>
  <path class="cls-1" d="m32.34,66.58s-2.25-5.99,3.3-11.51c5.55-5.52,1.35-13.47,1.35-13.47"/>
  <path class="cls-1" d="m24.49,63.45s-2.25-5.99,3.3-11.51c5.55-5.52,1.35-13.47,1.35-13.47"/>
  <path class="cls-1" d="m39.38,64.39c0-2.25.67-5.46,3.75-8.53,3.24-3.22,3.16-7.27,2.53-10.09"/>
  <rect class="cls-1" x="51.63" y="81.49" width="28.79" height="6.11"/>
  <line class="cls-1" x1="13.8" y1="87.6" x2="86.2" y2="87.6"/>
  <line class="cls-1" x1="61.08" y1="78.36" x2="61.08" y2="73.24"/>
  <line class="cls-1" x1="66.03" y1="78.36" x2="66.03" y2="73.24"/>
  <line class="cls-1" x1="70.98" y1="78.36" x2="70.98" y2="73.24"/>
  <rect class="cls-1" x="15.9" y="15.49" width="15.55" height="8.91"/>
  <rect class="cls-1" x="15.9" y="26.98" width="15.55" height="8.91"/>
  <rect class="cls-1" x="33.4" y="15.49" width="15.55" height="8.91"/>
  <rect class="cls-1" x="68.39" y="15.49" width="15.55" height="8.91"/>
  <rect class="cls-1" x="68.39" y="26.98" width="15.55" height="8.91"/>
  <rect class="cls-1" x="33.4" y="26.98" width="15.55" height="8.91"/>
  <line class="cls-1" x1="44.24" y1="47.39" x2="40.26" y2="47.39"/>
  <polyline class="cls-1" points="36.71 47.39 33.4 47.39 33.4 38.48 48.95 38.48 48.95 47.39 47.58 47.39"/>
  <polyline class="cls-1" points="23.67 55.09 15.9 55.09 15.9 51.51 25.91 51.51"/>
  <polyline class="cls-1" points="30.2 51.51 31.45 51.51 31.45 55.09 27.35 55.09"/>
  <line class="cls-1" x1="41.5" y1="55.09" x2="37.99" y2="55.09"/>
  <polyline class="cls-1" points="47.43 51.51 48.95 51.51 48.95 55.09 46 55.09"/>
  <line class="cls-1" x1="39.85" y1="51.51" x2="43.82" y2="51.51"/>
  <polyline class="cls-1" points="33.4 55.09 33.4 55.09 33.4 51.51 36.09 51.51"/>
  <rect class="cls-1" x="50.89" y="51.51" width="15.55" height="3.57"/>
  <rect class="cls-1" x="68.39" y="51.51" width="15.55" height="3.57"/>
  <polyline class="cls-1" points="13.8 97.66 13.8 87.6 86.2 87.6 86.2 97.66"/>
</svg>