<?xml version="1.0" encoding="UTF-8"?><svg id="Layer_1" xmlns="http://www.w3.org/2000/svg" viewBox="0 0 100 100"><defs><style>.cls-1{fill:none;stroke:#361d5c;stroke-linecap:round;stroke-linejoin:round;}</style></defs><path class="cls-1" d="m6.32,86.21c.73-.25,1.43-.12,2.04.29.88.59,1.9.59,2.78,0,.61-.41,1.31-.54,2.04-.29l.55.29c.88.59,1.9.59,2.78,0,.61-.41,1.31-.54,2.04-.29"/><path class="cls-1" d="m29.29,86.21c-.73-.25-1.43-.12-2.04.29-.88.59-1.9.59-2.78,0l-.55-.29c-.73-.25-1.43-.12-2.04.29-.88.59-1.9.59-2.78,0-.61-.41-1.31-.54-2.04-.29"/><path class="cls-1" d="m40.02,86.21c-.73-.25-1.43-.12-2.04.29-.88.59-1.9.59-2.78,0l-.55-.29c-.73-.25-1.43-.12-2.04.29-.88.59-1.9.59-2.78,0-.61-.41-1.31-.54-2.04-.29"/><path class="cls-1" d="m50.75,86.21c-.73-.25-1.43-.12-2.04.29-.88.59-1.9.59-2.78,0l-.55-.29c-.73-.25-1.43-.12-2.04.29-.88.59-1.9.59-2.78,0-.61-.41-1.31-.54-2.04-.29"/><path class="cls-1" d="m61.49,86.21c-.73-.25-1.43-.12-2.04.29-.88.59-1.9.59-2.78,0l-.55-.29c-.73-.25-1.43-.12-2.04.29-.88.59-1.9.59-2.78,0-.61-.41-1.31-.54-2.04-.29"/><path class="cls-1" d="m72.22,86.21c-.73-.25-1.43-.12-2.04.29-.88.59-1.9.59-2.78,0l-.55-.29c-.73-.25-1.43-.12-2.04.29-.88.59-1.9.59-2.78,0-.61-.41-1.31-.54-2.04-.29"/><path class="cls-1" d="m82.95,86.21c-.73-.25-1.43-.12-2.04.29-.88.59-1.9.59-2.78,0l-.55-.29c-.73-.25-1.43-.12-2.04.29-.88.59-1.9.59-2.78,0-.61-.41-1.31-.54-2.04-.29"/><path class="cls-1" d="m81.44,86.21c.73-.25,1.43-.12,2.04.29.88.59,1.9.59,2.78,0,.61-.41,1.31-.54,2.04-.29l.55.29c.88.59,1.9.59,2.78,0,.61-.41,1.31-.54,2.04-.29"/><path class="cls-1" d="m6.32,90.87c.73-.25,1.43-.12,2.04.29.88.59,1.9.59,2.78,0,.61-.41,1.31-.54,2.04-.29l.55.29c.88.59,1.9.59,2.78,0,.61-.41,1.31-.54,2.04-.29"/><path class="cls-1" d="m29.29,90.87c-.73-.25-1.43-.12-2.04.29-.88.59-1.9.59-2.78,0l-.55-.29c-.73-.25-1.43-.12-2.04.29-.88.59-1.9.59-2.78,0-.61-.41-1.31-.54-2.04-.29"/><path class="cls-1" d="m40.02,90.87c-.73-.25-1.43-.12-2.04.29-.88.59-1.9.59-2.78,0l-.55-.29c-.73-.25-1.43-.12-2.04.29-.88.59-1.9.59-2.78,0-.61-.41-1.31-.54-2.04-.29"/><path class="cls-1" d="m50.75,90.87c-.73-.25-1.43-.12-2.04.29-.88.59-1.9.59-2.78,0l-.55-.29c-.73-.25-1.43-.12-2.04.29-.88.59-1.9.59-2.78,0-.61-.41-1.31-.54-2.04-.29"/><path class="cls-1" d="m61.49,90.87c-.73-.25-1.43-.12-2.04.29-.88.59-1.9.59-2.78,0l-.55-.29c-.73-.25-1.43-.12-2.04.29-.88.59-1.9.59-2.78,0-.61-.41-1.31-.54-2.04-.29"/><path class="cls-1" d="m72.22,90.87c-.73-.25-1.43-.12-2.04.29-.88.59-1.9.59-2.78,0l-.55-.29c-.73-.25-1.43-.12-2.04.29-.88.59-1.9.59-2.78,0-.61-.41-1.31-.54-2.04-.29"/><path class="cls-1" d="m82.95,90.87c-.73-.25-1.43-.12-2.04.29-.88.59-1.9.59-2.78,0l-.55-.29c-.73-.25-1.43-.12-2.04.29-.88.59-1.9.59-2.78,0-.61-.41-1.31-.54-2.04-.29"/><path class="cls-1" d="m81.44,90.87c.73-.25,1.43-.12,2.04.29.88.59,1.9.59,2.78,0,.61-.41,1.31-.54,2.04-.29l.55.29c.88.59,1.9.59,2.78,0,.61-.41,1.31-.54,2.04-.29"/><rect class="cls-1" x="6.32" y="71.8" width="87.36" height="9.86"/><rect class="cls-1" x="6.32" y="61.94" width="87.36" height="9.86"/><rect class="cls-1" x="30" y="19.67" width="40" height="42.27"/><rect class="cls-1" x="26.05" y="8.4" width="47.9" height="11.27" rx="2.67" ry="2.67"/><path class="cls-1" d="m26.05,14.03h-11.38c-1.33,0-2.41,1.08-2.41,2.41v5.93c0,1.33,1.08,2.41,2.41,2.41h15.33"/><path class="cls-1" d="m73.95,14.03h11.38c1.33,0,2.41,1.08,2.41,2.41v5.93c0,1.33-1.08,2.41-2.41,2.41h-15.33"/><rect class="cls-1" x="15.78" y="24.78" width="14.21" height="37.16"/><rect class="cls-1" x="15.78" y="40.57" width="14.21" height="6"/><rect class="cls-1" x="22.14" y="29.26" width="7.86" height="11.31"/><rect class="cls-1" x="22.14" y="50.67" width="7.86" height="11.31"/><rect class="cls-1" x="70" y="24.78" width="14.21" height="37.16" transform="translate(154.22 86.72) rotate(-180)"/><rect class="cls-1" x="70" y="40.57" width="14.21" height="6" transform="translate(154.22 87.14) rotate(-180)"/><rect class="cls-1" x="70" y="29.26" width="7.86" height="11.31" transform="translate(147.86 69.83) rotate(-180)"/><rect class="cls-1" x="70" y="50.67" width="7.86" height="11.31" transform="translate(147.86 112.64) rotate(-180)"/><rect class="cls-1" x="35.17" y="23.01" width="12.75" height="7.41"/><rect class="cls-1" x="52.08" y="23.01" width="12.75" height="7.41"/><rect class="cls-1" x="35.17" y="34.28" width="12.75" height="7.41"/><rect class="cls-1" x="52.08" y="34.28" width="12.75" height="7.41"/><rect class="cls-1" x="35.17" y="45.55" width="12.75" height="7.41"/><rect class="cls-1" x="52.08" y="45.55" width="12.75" height="16.38"/><polygon class="cls-1" points="42.7 61.97 35.17 61.97 27.64 61.97 24.38 81.66 35.17 81.66 45.96 81.66 42.7 61.97"/><polyline class="cls-1" points="43.51 66.87 35.17 66.87 26.83 66.87"/><polyline class="cls-1" points="45.08 76.73 35.17 76.73 25.26 76.73"/><polygon class="cls-1" points="42.7 61.97 35.17 61.97 27.64 61.97 24.38 81.66 35.17 81.66 45.96 81.66 42.7 61.97"/></svg>