<?xml version="1.0" encoding="UTF-8"?><svg id="Layer_1" xmlns="http://www.w3.org/2000/svg" viewBox="0 0 100 100"><defs><style>.cls-1{fill:none;stroke:#361d5c;stroke-linecap:round;stroke-linejoin:round;}</style></defs><polyline class="cls-1" points="41.97 22.64 41.97 94.81 23.62 94.81 23.62 24.29"/><polyline class="cls-1" points="76.37 24.29 76.37 94.81 58.03 94.81 58.03 22.64"/><path class="cls-1" d="m60.59,7.5c14.2,3.35,23.34,13.57,23.34,16.79l2.72,67.24h-10.28V24.29"/><path class="cls-1" d="m39.33,7.5c-14.2,3.35-23.26,13.57-23.26,16.79l-2.72,67.24h10.28s0-67.24,0-67.24"/><polyline class="cls-1" points="58.03 71.91 70.26 35.01 64.09 26.48 69.48 18.85 60.98 7.6"/><path class="cls-1" d="m50.38,14.1s7.05-3.71,9.03-1.48.67,9.78-2.99,11.13c0,0-2.82.77-6.04-4.43"/><path class="cls-1" d="m50.04,14.06c-1.08,0-1.96,1.19-1.96,2.65s.88,2.65,1.96,2.65,1.96-1.19,1.96-2.65-.88-2.65-1.96-2.65Z"/><path class="cls-1" d="m49.69,14.1s-7.05-3.71-9.03-1.48-.67,9.78,2.99,11.13c0,0,2.82.77,6.04-4.43"/><path class="cls-1" d="m58.41,12.07s4.1-4.61.34-6.88l-8.71,4.19,2.26,3.79"/><path class="cls-1" d="m41.66,12.07s-4.1-4.61-.34-6.88l8.71,4.19-2.26,3.79"/><path class="cls-1" d="m54.68,23.51s.06,9.4-7.12,18.82v21.73l10.47,9.05"/><line class="cls-1" x1="41.97" y1="72.96" x2="49.98" y2="66.16"/><polyline class="cls-1" points="41.98 71.91 29.75 35.01 35.91 26.48 30.52 18.85 39.03 7.6"/><circle class="cls-1" cx="18.4" cy="87.04" r=".41"/><circle class="cls-1" cx="50.38" cy="62.95" r=".41"/><circle class="cls-1" cx="50.38" cy="56.44" r=".41"/><circle class="cls-1" cx="50.38" cy="49.92" r=".41"/><circle class="cls-1" cx="50.38" cy="43.4" r=".41"/><circle class="cls-1" cx="81.56" cy="87.04" r=".41"/><polyline class="cls-1" points="49.98 77.2 52.42 86.62 58.03 88.09"/><polyline class="cls-1" points="49.94 77.2 47.5 86.62 41.89 88.09"/><line class="cls-1" x1="13.72" y1="82.45" x2="23.62" y2="82.45"/><line class="cls-1" x1="75.98" y1="82.45" x2="85.89" y2="82.45"/><path class="cls-1" d="m45.31,23.51s-.04,7.11,4.67,15.16"/></svg>