<?xml version="1.0" encoding="UTF-8"?><svg id="Layer_1" xmlns="http://www.w3.org/2000/svg" viewBox="0 0 100 100"><defs><style>.cls-1{fill:none;stroke:#361d5c;stroke-linecap:round;stroke-linejoin:round;}</style></defs><path class="cls-1" d="m31.64,55.27c0,4.1,3.32,7.42,7.42,7.42s7.42-3.32,7.42-7.42"/><path class="cls-1" d="m53.51,55.27c0,4.1,3.32,7.42,7.42,7.42s7.42-3.32,7.42-7.42"/><circle class="cls-1" cx="31.7" cy="73.98" r="9.38"/><rect class="cls-1" x="21.52" y="80.05" width="4.4" height="3.8" transform="translate(64.9 7.23) rotate(45)"/><path class="cls-1" d="m15.32,81.29h4.4v11.54c0,1.21-.99,2.2-2.2,2.2h0c-1.21,0-2.2-.99-2.2-2.2v-11.54h0Z" transform="translate(67.47 13.43) rotate(45)"/><path class="cls-1" d="m32.69,83.3c2.16,6.68,10.29,10.01,17.31,10.01s16.25-4.53,18.41-11.21c0,0,11.19-25.21,11.19-31.66,0-16.35-13.25-29.6-29.6-29.6s-29.6,13.25-29.6,29.6c0,3.52,1.64,9.36,4.67,16.91"/><path class="cls-1" d="m50,20.85c5.09,0,9.87,1.29,14.05,3.54.29-1.14.45-2.32.45-3.54,0-8.01-6.49-14.51-14.51-14.51s-14.51,6.49-14.51,14.51c0,1.23.17,2.41.45,3.54,4.18-2.26,8.97-3.54,14.05-3.54Z"/><path class="cls-1" d="m20.4,50.45s17.64-.98,25.29-11.17c0,0,5.85,16,33.51,13.78"/></svg>