<?xml version="1.0" encoding="UTF-8"?><svg id="Layer_1" xmlns="http://www.w3.org/2000/svg" viewBox="0 0 100 100"><defs><style>.cls-1{fill:none;stroke:#361d5c;stroke-linecap:round;stroke-linejoin:round;}</style></defs><polyline class="cls-1" points="70.75 39.86 70.75 18.16 64.64 18.16 64.64 27.4"/><polyline class="cls-1" points="64.64 40.81 64.64 18.16 5 18.16 5 95 36.76 95"/><polyline class="cls-1" points="47.93 24.15 47.93 18.16 54.03 18.16 54.03 18.16"/><path class="cls-1" d="m47.93,24.15v-6.04c0-7.24-5.87-13.1-13.1-13.1s-13.1,5.87-13.1,13.1v6.04"/><path class="cls-1" d="m54.03,18.1h0c0-7.24-5.87-13.1-13.1-13.1s-13.1,5.87-13.1,13.1h0"/><rect class="cls-1" x="36.76" y="91.2" width="44.87" height="5.85"/><polyline class="cls-1" points="58.87 68.52 58.87 42.03 94.72 42.03 94.72 95 81.63 95"/><path class="cls-1" d="m78.04,91.2c0-10.41-8.44-18.85-18.85-18.85s-18.85,8.44-18.85,18.85"/><path class="cls-1" d="m59.19,72.34c1.3,0,2.57.13,3.79.38.01-.13.04-.25.04-.38,0-2.12-1.71-3.83-3.83-3.83s-3.83,1.71-3.83,3.83c0,.13.03.25.04.38,1.22-.25,2.49-.38,3.79-.38Z"/><path class="cls-1" d="m44.81,86.4c-.2.61-.37,1.24-.49,1.88"/><path class="cls-1" d="m63.26,76.59c-1.29-.36-2.66-.55-4.06-.55-5.89,0-11,3.36-13.51,8.27"/><polyline class="cls-1" points="58.87 42.03 91.04 36.71 91.04 42.03"/><line class="cls-1" x1="75.23" y1="72.57" x2="89.2" y2="72.57"/><line class="cls-1" x1="78.04" y1="76.47" x2="89.2" y2="76.47"/><line class="cls-1" x1="80.16" y1="80.37" x2="89.2" y2="80.37"/><g><line class="cls-1" x1="73.5" y1="54.03" x2="85.61" y2="66.15"/><line class="cls-1" x1="81.02" y1="54.03" x2="68.91" y2="66.15"/><rect class="cls-1" x="81.44" y="47.57" width="4.51" height="7.57" rx="1.87" ry="1.87" transform="translate(60.83 -44.14) rotate(45)"/><path class="cls-1" d="m66.55,50.28l3.76,3.76c.88.88,2.31.88,3.19,0h0c.88-.88.88-2.31,0-3.19l-3.76-3.76"/><line class="cls-1" x1="73.5" y1="54.03" x2="68.14" y2="48.68"/></g></svg>