<?xml version="1.0" encoding="UTF-8"?><svg id="Layer_1" xmlns="http://www.w3.org/2000/svg" viewBox="0 0 100 100"><defs><style>.cls-1{fill:none;stroke:#361d5c;stroke-linecap:round;stroke-linejoin:round;}</style></defs><circle class="cls-1" cx="50" cy="50" r="4.65"/><line class="cls-1" x1="50" y1="45.35" x2="50" y2="5"/><polyline class="cls-1" points="45.66 9.34 50 5 54.34 9.34"/><line class="cls-1" x1="50" y1="54.65" x2="50" y2="95"/><polyline class="cls-1" points="54.34 90.66 50 95 45.66 90.66"/><line class="cls-1" x1="54.65" y1="50" x2="95" y2="50"/><polyline class="cls-1" points="90.66 45.66 95 50 90.66 54.34"/><line class="cls-1" x1="45.35" y1="50" x2="5" y2="50"/><polyline class="cls-1" points="9.34 54.34 5 50 9.34 45.66"/><line class="cls-1" x1="53.29" y1="46.71" x2="81.82" y2="18.18"/><polyline class="cls-1" points="75.69 18.18 81.82 18.18 81.82 24.31"/><line class="cls-1" x1="46.71" y1="53.29" x2="18.18" y2="81.82"/><polyline class="cls-1" points="24.31 81.82 18.18 81.82 18.18 75.69"/><line class="cls-1" x1="53.29" y1="53.29" x2="81.82" y2="81.82"/><polyline class="cls-1" points="81.82 75.69 81.82 81.82 75.69 81.82"/><line class="cls-1" x1="46.71" y1="46.71" x2="18.18" y2="18.18"/><polyline class="cls-1" points="18.18 24.31 18.18 18.18 24.31 18.18"/></svg>