<?xml version="1.0" encoding="UTF-8"?><svg id="Layer_1" xmlns="http://www.w3.org/2000/svg" viewBox="0 0 100 100"><defs><style>.cls-1{fill:none;stroke:#361d5c;stroke-linecap:round;stroke-linejoin:round;}</style></defs><rect class="cls-1" x="10.92" y="41.97" width="78.17" height="50"/><rect class="cls-1" x="6.95" y="33.74" width="86.1" height="8.23"/><rect class="cls-1" x="25.49" y="8.02" width="49.01" height="25.72"/><rect class="cls-1" x="63.26" y="45.8" width="22.85" height="46.18"/><line class="cls-1" x1="67.17" y1="62.49" x2="67.17" y2="69.6"/><rect class="cls-1" x="14.83" y="45.8" width="44.76" height="31.85"/><line class="cls-1" x1="21.16" y1="64.9" x2="27.44" y2="71.17"/><line class="cls-1" x1="20.21" y1="58.95" x2="33.54" y2="72.27"/><path class="cls-1" d="m63.31,18.1c0-2.14-1.58-3.94-3.7-4.22-2.12-.28-4.12,1.05-4.67,3.12h-9.88c-.33-1.25-1.22-2.29-2.42-2.81-1.19-.52-2.55-.47-3.7.14-1.15.61-1.95,1.71-2.19,2.99-.24,1.28.12,2.59.98,3.57-.89,1.03-1.24,2.42-.94,3.74.3,1.33,1.22,2.43,2.47,2.96,1.25.54,2.68.45,3.85-.24,1.17-.69,1.94-1.9,2.08-3.25h9.63c.13,1.35.9,2.56,2.08,3.25,1.17.69,2.6.78,3.85.24,1.25-.54,2.17-1.64,2.47-2.96.3-1.32-.04-2.72-.94-3.74.67-.77,1.04-1.77,1.03-2.79h0Z"/></svg>