<?xml version="1.0" encoding="UTF-8"?><svg id="Layer_1" xmlns="http://www.w3.org/2000/svg" viewBox="0 0 100 100"><defs><style>.cls-1,.cls-2{fill:none;stroke:#361d5c;stroke-linecap:round;stroke-linejoin:round;}.cls-2{fill-rule:evenodd;}</style></defs><rect class="cls-1" x="62.06" y="48.14" width="25.55" height="46.71" rx="2.56" ry="2.56"/><rect class="cls-1" x="65.83" y="86.51" width="18" height="4.85"/><line class="cls-1" x1="65.83" y1="76.3" x2="76.54" y2="76.3"/><line class="cls-1" x1="65.83" y1="79.11" x2="83.83" y2="79.11"/><line class="cls-1" x1="65.83" y1="81.11" x2="83.83" y2="81.11"/><line class="cls-1" x1="74.85" y1="50.81" x2="74.82" y2="50.81"/><line class="cls-1" x1="88.15" y1="53.65" x2="88.15" y2="57.01"/><line class="cls-1" x1="88.15" y1="58.41" x2="88.15" y2="61.77"/><line class="cls-1" x1="61.51" y1="58.41" x2="61.51" y2="61.77"/><path class="cls-2" d="m32.29,25.9c0,4.81-7.18,11.54-10.49,11.54s-2.66-3.9-2.66-8.71,2.68-8.71,5.98-8.71,7.16,1.07,7.16,5.89Z"/><path class="cls-2" d="m45.66,25.9c0,4.81,7.18,11.54,10.49,11.54,3.3,0,2.66-3.9,2.66-8.71s-2.68-8.71-5.98-8.71c-3.3,0-7.16,1.07-7.16,5.89Z"/><path class="cls-2" d="m56.15,37.44c-3.3,0-10.49-6.73-10.49-11.54,0-.75.1-1.4.28-1.98-2.13-.94-4.48-1.46-6.96-1.46s-4.83.53-6.96,1.46c.17.58.28,1.23.28,1.98,0,4.81-7.18,11.54-10.49,11.54h0c-.11.78-.18,1.56-.18,2.37,0,9.58,7.77,17.35,17.35,17.35s17.35-7.77,17.35-17.35c0-.8-.07-1.59-.18-2.37h0Z"/><path class="cls-2" d="m41.15,38.31c2.95.6,4.74,2.47,4.74,4.92v4.24c0,.76-.8,1.37-1.79,1.37h-1.92"/><path class="cls-2" d="m36.73,48.84h-2.88c-.99,0-1.79-.61-1.79-1.37v-4.24c0-2.42,1.84-4.29,4.74-4.92"/><line class="cls-1" x1="32.06" y1="45.64" x2="45.89" y2="45.64"/><path class="cls-1" d="m36.73,45.64h5.45v4.82c0,1.38-1.12,2.49-2.49,2.49h-.46c-1.38,0-2.49-1.12-2.49-2.49v-4.82h0Z"/><circle class="cls-1" cx="38.97" cy="37.94" r="1.66"/><circle class="cls-1" cx="33.38" cy="33.13" r="2.14"/><circle class="cls-1" cx="44.57" cy="33.13" r="2.14"/><path class="cls-1" d="m50.89,67.75c0-1.91-1.42-3.53-3.31-3.78-1.9-.25-3.69.94-4.18,2.79h-8.84c-.3-1.12-1.1-2.05-2.16-2.51-1.07-.46-2.29-.42-3.31.13-1.03.55-1.75,1.53-1.96,2.67-.21,1.14.11,2.32.87,3.2-.8.92-1.11,2.16-.84,3.35.27,1.19,1.09,2.17,2.21,2.65,1.12.48,2.4.4,3.45-.22,1.05-.62,1.74-1.7,1.86-2.91h8.62c.12,1.21.81,2.29,1.86,2.91,1.05.62,2.33.7,3.45.22,1.12-.48,1.94-1.47,2.21-2.65.27-1.19-.04-2.43-.84-3.35.6-.69.93-1.58.92-2.5h0Z"/><path class="cls-1" d="m62.06,88.86H20.21c-4.62,0-8.36-3.74-8.36-8.36V5.14h54.25v43"/><rect class="cls-1" x="66.1" y="5.14" width="14" height="43"/><line class="cls-1" x1="39.45" y1="45.64" x2="39.45" y2="49.53"/><line class="cls-1" x1="73.1" y1="48.14" x2="73.1" y2="5.14"/><path class="cls-2" d="m72.08,59.32c0,.97-1.44,2.32-2.11,2.32s-.53-.78-.53-1.75.54-1.75,1.2-1.75,1.44.22,1.44,1.18Z"/><path class="cls-2" d="m74.77,59.32c0,.97,1.44,2.32,2.11,2.32s.53-.78.53-1.75-.54-1.75-1.2-1.75-1.44.22-1.44,1.18Z"/><path class="cls-2" d="m76.88,61.63c-.66,0-2.11-1.35-2.11-2.32,0-.15.02-.28.06-.4-.43-.19-.9-.29-1.4-.29s-.97.11-1.4.29c.03.12.06.25.06.4,0,.97-1.44,2.32-2.11,2.32h0c-.02.16-.04.31-.04.48,0,1.92,1.56,3.49,3.49,3.49s3.49-1.56,3.49-3.49c0-.16-.01-.32-.04-.48h0Z"/><path class="cls-2" d="m73.86,61.81c.59.12.95.5.95.99v.85c0,.15-.16.28-.36.28h-.39"/><path class="cls-2" d="m72.98,63.92h-.58c-.2,0-.36-.12-.36-.28v-.85c0-.49.37-.86.95-.99"/><line class="cls-1" x1="72.04" y1="63.28" x2="74.81" y2="63.28"/><path class="cls-1" d="m72.98,63.28h1.09v.92c0,.3-.25.55-.55.55h0c-.3,0-.55-.25-.55-.55v-.92h0Z"/><circle class="cls-1" cx="73.43" cy="61.73" r=".33"/><circle class="cls-1" cx="72.3" cy="60.77" r=".43"/><circle class="cls-1" cx="74.55" cy="60.77" r=".43"/><path class="cls-1" d="m75.82,67.72c0-.38-.28-.71-.67-.76-.38-.05-.74.19-.84.56h-1.78c-.06-.23-.22-.41-.43-.5-.21-.09-.46-.08-.67.03-.21.11-.35.31-.39.54-.04.23.02.47.18.64-.16.18-.22.43-.17.67.05.24.22.44.44.53.22.1.48.08.69-.04.21-.12.35-.34.37-.58h1.73c.02.24.16.46.37.58.21.12.47.14.69.04.22-.1.39-.29.44-.53.05-.24,0-.49-.17-.67.12-.14.19-.32.19-.5h0Z"/><rect class="cls-1" x="67.98" y="55.15" width="10.9" height="16.81"/><rect class="cls-1" x="78.87" y="55.15" width="2.81" height="16.81"/><line class="cls-1" x1="73.52" y1="63.28" x2="73.52" y2="64.06"/><polyline class="cls-1" points="78.87 71.96 80.28 70.17 81.69 71.96"/><line class="cls-1" x1="80.28" y1="70.17" x2="80.28" y2="55.15"/></svg>