<?xml version="1.0" encoding="UTF-8"?><svg id="Layer_1" xmlns="http://www.w3.org/2000/svg" viewBox="0 0 100 100"><defs><style>.cls-1{fill:none;stroke:#361d5c;stroke-linecap:round;stroke-linejoin:round;}</style></defs><path class="cls-1" d="m57.84,52.97c-3.63-.98-7.01-1.35-11.28-1.35s-7.65.39-11.25,1.34"/><path class="cls-1" d="m31.99,53.95c-8.33,2.89-13.91,8.18-13.91,14.24,0,15.73,12.75,28.49,28.49,28.49s28.49-12.75,28.49-28.49c0-6.07-5.61-11.38-13.99-14.26"/><path class="cls-1" d="m23.76,58.23l3.64-11.71c.52-1.68,2.78-1.96,3.69-.46l6.33,10.34"/><path class="cls-1" d="m69.37,58.23l-3.64-11.71c-.52-1.68-2.78-1.96-3.69-.46l-6.33,10.34"/><line class="cls-1" x1="39.51" y1="65.88" x2="39.51" y2="72.77"/><line class="cls-1" x1="53.65" y1="65.88" x2="53.65" y2="72.77"/><polygon class="cls-1" points="51.55 78.28 46.58 83.26 41.6 78.28 51.55 78.28"/><line class="cls-1" x1="24.79" y1="79.24" x2="14.24" y2="89.79"/><line class="cls-1" x1="27.48" y1="81.92" x2="16.92" y2="92.47"/><line class="cls-1" x1="30.16" y1="84.6" x2="19.6" y2="95.16"/><line class="cls-1" x1="68.37" y1="79.24" x2="78.92" y2="89.79"/><line class="cls-1" x1="65.68" y1="81.92" x2="76.24" y2="92.47"/><line class="cls-1" x1="63" y1="84.6" x2="73.55" y2="95.16"/><line class="cls-1" x1="46.58" y1="83.26" x2="46.58" y2="86.71"/><path class="cls-1" d="m41.59,83.83c1,1.72,2.85,2.88,4.99,2.88s3.99-1.16,4.99-2.88"/><line class="cls-1" x1="53.27" y1="8.6" x2="43.87" y2="18"/><line class="cls-1" x1="54.97" y1="10.3" x2="45.56" y2="19.7"/><line class="cls-1" x1="56.66" y1="11.99" x2="47.26" y2="21.4"/><line class="cls-1" x1="58.36" y1="13.69" x2="48.95" y2="23.09"/><line class="cls-1" x1="60.05" y1="15.38" x2="50.65" y2="24.79"/><line class="cls-1" x1="61.75" y1="17.08" x2="52.34" y2="26.48"/><line class="cls-1" x1="63.44" y1="18.77" x2="54.04" y2="28.18"/><line class="cls-1" x1="65.14" y1="20.47" x2="55.74" y2="29.87"/><line class="cls-1" x1="66.84" y1="22.16" x2="57.43" y2="31.57"/><rect class="cls-1" x="67.24" y="-1.61" width="2.8" height="47.19" rx="1.34" ry="1.34" transform="translate(132.72 -11) rotate(135)"/><path class="cls-1" d="m33.98,20.19c-1.44,1.44-4.13,2.41-7.2,2.41-2.66,0-5.04-.73-6.56-1.86"/><path class="cls-1" d="m41.48,26.58c-.56,1.7-2.14,3.24-4.29,3.95-1.87.61-3.75.46-5.17-.26"/><path class="cls-1" d="m30.16,38.26c-1.58.54-4.33.56-7.36-.04-2.62-.52-4.87-1.4-6.24-2.34"/></svg>