<?xml version="1.0" encoding="UTF-8"?>
<svg id="Layer_1" data-name="Layer 1" xmlns="http://www.w3.org/2000/svg" viewBox="0 0 100 100">
  <defs>
    <style>
      .cls-1, .cls-2 {
        fill: none;
        stroke: #361d5c;
        stroke-linecap: round;
        stroke-linejoin: round;
      }

      .cls-2 {
        fill-rule: evenodd;
      }
    </style>
  </defs>
  <g>
    <line class="cls-1" x1="5" y1="95" x2="95" y2="95"/>
    <polyline class="cls-1" points="12.94 45.31 12.94 95 87.06 95 87.06 45.31"/>
    <rect class="cls-1" x="24.73" y="58.64" width="19.93" height="36.36"/>
    <path class="cls-1" d="m69.81,54.63h3.91v22.23h-3.91c-6.13,0-11.11-4.98-11.11-11.11h0c0-6.13,4.98-11.11,11.11-11.11Z" transform="translate(131.95 -.46) rotate(90)"/>
    <polyline class="cls-1" points="37.14 18.75 19.76 18.75 5 34.39 95 34.39 79.26 18.75 60.27 18.75"/>
    <polyline class="cls-1" points="37.14 18.75 19.63 18.75 19.63 12.37 37.14 12.37"/>
    <polyline class="cls-1" points="60.27 12.37 79.37 12.37 79.37 18.75 60.27 18.75"/>
    <path class="cls-1" d="m5,34.39h12.86v4.62c0,3.48-2.82,6.3-6.3,6.3h-.26c-3.48,0-6.3-2.82-6.3-6.3v-4.62h0Z"/>
    <path class="cls-1" d="m82.14,34.39h12.86v4.62c0,3.48-2.82,6.3-6.3,6.3h-.26c-3.48,0-6.3-2.82-6.3-6.3v-4.62h0Z"/>
    <path class="cls-1" d="m69.29,34.39h12.86v4.62c0,3.48-2.82,6.3-6.3,6.3h-.26c-3.48,0-6.3-2.82-6.3-6.3v-4.62h0Z"/>
    <path class="cls-1" d="m56.43,34.39h12.86v4.62c0,3.48-2.82,6.3-6.3,6.3h-.26c-3.48,0-6.3-2.82-6.3-6.3v-4.62h0Z"/>
    <path class="cls-1" d="m43.57,34.39h12.86v4.62c0,3.48-2.82,6.3-6.3,6.3h-.26c-3.48,0-6.3-2.82-6.3-6.3v-4.62h0Z"/>
    <path class="cls-1" d="m30.71,34.39h12.86v4.62c0,3.48-2.82,6.3-6.3,6.3h-.26c-3.48,0-6.3-2.82-6.3-6.3v-4.62h0Z"/>
    <path class="cls-1" d="m17.86,34.39h12.86v4.62c0,3.48-2.82,6.3-6.3,6.3h-.26c-3.48,0-6.3-2.82-6.3-6.3v-4.62h0Z"/>
    <rect class="cls-1" x="28.2" y="62.34" width="12.99" height="26.94"/>
  </g>
  <g>
    <g>
      <rect class="cls-1" x="48.1" y="17.14" width="4.99" height="14.04" rx="2.49" ry="2.49" transform="translate(12.61 -17.08) rotate(21.83)"/>
      <line class="cls-1" x1="52.91" y1="25.08" x2="48.28" y2="23.23"/>
    </g>
    <circle class="cls-1" cx="59.4" cy="25.13" r="6.04"/>
    <line class="cls-1" x1="63.67" y1="20.85" x2="55.12" y2="29.4"/>
    <polyline class="cls-2" points="60.27 19.08 60.27 16.91 60.27 9.89 54.28 9.89 54.28 3.9 43.13 3.9 43.13 9.89 37.14 9.89 37.14 21.05 43.13 21.05 43.13 27.04 46.76 27.04"/>
  </g>
</svg>