<?xml version="1.0" encoding="UTF-8"?><svg id="Layer_1" xmlns="http://www.w3.org/2000/svg" viewBox="0 0 100 100"><defs><style>.cls-1{fill:none;stroke:#361d5c;stroke-linecap:round;stroke-linejoin:round;}</style></defs><g><polygon class="cls-1" points="92.17 11 7.83 11 5 67.12 95 67.12 92.17 11"/><polygon class="cls-1" points="31.1 86.99 68.04 86.99 72.75 95 27.33 95 31.1 86.99"/><polygon class="cls-1" points="88.01 16.04 12.02 16.04 9.76 60.57 90.16 60.57 88.01 16.04"/><polyline class="cls-1" points="31.1 86.99 29.71 67.12 33.16 67.12 34.62 86.99"/><polyline class="cls-1" points="65.91 67.12 64.52 86.99 67.97 86.99 69.43 67.12"/></g><g><polyline class="cls-1" points="21.8 23.94 24.3 26.44 28.39 22.35"/><polyline class="cls-1" points="21.8 32.63 24.3 35.13 28.39 31.04"/><polyline class="cls-1" points="21.8 41.32 24.3 43.82 28.39 39.73"/><polyline class="cls-1" points="21.8 50.01 24.3 52.51 28.39 48.42"/><line class="cls-1" x1="35.52" y1="24.39" x2="78.2" y2="24.39"/><line class="cls-1" x1="35.52" y1="33.08" x2="78.2" y2="33.08"/><line class="cls-1" x1="35.52" y1="41.77" x2="78.2" y2="41.77"/><line class="cls-1" x1="35.52" y1="50.46" x2="65.55" y2="50.46"/></g></svg>