<?xml version="1.0" encoding="UTF-8"?><svg id="Layer_1" xmlns="http://www.w3.org/2000/svg" viewBox="0 0 100 100"><defs><style>.cls-1{fill:none;stroke:#361d5c;stroke-linecap:round;stroke-linejoin:round;}</style></defs><line class="cls-1" x1="5" y1="95" x2="95" y2="95"/><polyline class="cls-1" points="12.94 55.31 12.94 95 87.06 95 87.06 55.31"/><rect class="cls-1" x="24.73" y="65.64" width="19.93" height="29.36"/><rect class="cls-1" x="58.7" y="61.63" width="15.02" height="22.23" transform="translate(138.95 6.54) rotate(90)"/><polyline class="cls-1" points="30.45 28.75 19.76 28.75 5 44.39 95 44.39 79.26 28.75 70.31 28.75"/><path class="cls-1" d="m5,44.39h12.86v4.62c0,3.48-2.82,6.3-6.3,6.3h-.26c-3.48,0-6.3-2.82-6.3-6.3v-4.62h0Z"/><path class="cls-1" d="m82.14,44.39h12.86v4.62c0,3.48-2.82,6.3-6.3,6.3h-.26c-3.48,0-6.3-2.82-6.3-6.3v-4.62h0Z"/><path class="cls-1" d="m69.29,44.39h12.86v4.62c0,3.48-2.82,6.3-6.3,6.3h-.26c-3.48,0-6.3-2.82-6.3-6.3v-4.62h0Z"/><path class="cls-1" d="m56.43,44.39h12.86v4.62c0,3.48-2.82,6.3-6.3,6.3h-.26c-3.48,0-6.3-2.82-6.3-6.3v-4.62h0Z"/><path class="cls-1" d="m43.57,44.39h12.86v4.62c0,3.48-2.82,6.3-6.3,6.3h-.26c-3.48,0-6.3-2.82-6.3-6.3v-4.62h0Z"/><path class="cls-1" d="m30.71,44.39h12.86v4.62c0,3.48-2.82,6.3-6.3,6.3h-.26c-3.48,0-6.3-2.82-6.3-6.3v-4.62h0Z"/><path class="cls-1" d="m17.86,44.39h12.86v4.62c0,3.48-2.82,6.3-6.3,6.3h-.26c-3.48,0-6.3-2.82-6.3-6.3v-4.62h0Z"/><rect class="cls-1" x="30.45" y="20.93" width="39.86" height="5.5" rx="2.75" ry="2.75"/><rect class="cls-1" x="30.45" y="26.43" width="39.86" height="5.5" rx="2.75" ry="2.75"/><path class="cls-1" d="m50.18,4.6h.41c9.01,0,16.33,7.32,16.33,16.33h-33.07c0-9.01,7.32-16.33,16.33-16.33Z"/><path class="cls-1" d="m33.85,31.93h33.07v1.04c0,2.15-1.75,3.9-3.9,3.9h-25.27c-2.15,0-3.9-1.75-3.9-3.9v-1.04h0Z"/><line class="cls-1" x1="43.02" y1="11.29" x2="43.02" y2="11.29"/><line class="cls-1" x1="57.74" y1="11.29" x2="57.74" y2="11.29"/><line class="cls-1" x1="50.38" y1="9.08" x2="50.38" y2="9.08"/><line class="cls-1" x1="47.34" y1="14.17" x2="47.34" y2="14.17"/><line class="cls-1" x1="53.42" y1="14.17" x2="53.42" y2="14.17"/><polyline class="cls-1" points="35.55 20.93 43.03 24.89 50.38 21"/><polyline class="cls-1" points="50.75 26.43 58.23 30.39 65.58 26.5"/></svg>