<?xml version="1.0" encoding="UTF-8"?><svg id="Layer_1" xmlns="http://www.w3.org/2000/svg" viewBox="0 0 100 100"><defs><style>.cls-1{fill:none;stroke:#361d5c;stroke-linecap:round;stroke-linejoin:round;}</style></defs><rect class="cls-1" x="32.34" y="28" width="21.35" height="2.95" rx="1.47" ry="1.47"/><rect class="cls-1" x="32.34" y="30.94" width="21.35" height="2.95" rx="1.47" ry="1.47"/><path class="cls-1" d="m42.91,19.25h.22c4.83,0,8.75,3.92,8.75,8.75h-17.71c0-4.83,3.92-8.75,8.75-8.75Z"/><path class="cls-1" d="m34.16,33.89h17.71c0,1.46-1.19,2.65-2.65,2.65h-12.42c-1.46,0-2.65-1.19-2.65-2.65h0Z"/><line class="cls-1" x1="39.08" y1="22.84" x2="39.08" y2="22.84"/><line class="cls-1" x1="46.96" y1="22.84" x2="46.96" y2="22.84"/><line class="cls-1" x1="43.02" y1="21.65" x2="43.02" y2="21.65"/><line class="cls-1" x1="41.39" y1="24.38" x2="41.39" y2="24.38"/><line class="cls-1" x1="44.65" y1="24.38" x2="44.65" y2="24.38"/><polyline class="cls-1" points="35.08 28 39.08 30.12 43.02 28.04"/><polyline class="cls-1" points="43.22 30.94 47.22 33.07 51.16 30.98"/><rect class="cls-1" x="20.91" y="10.65" width="44.22" height="74.71"/><rect class="cls-1" x="26.58" y="43.03" width="13.86" height="7.07"/><rect class="cls-1" x="45.6" y="43.03" width="13.86" height="7.07"/><rect class="cls-1" x="26.58" y="55.49" width="13.86" height="7.07"/><rect class="cls-1" x="45.6" y="55.49" width="13.86" height="7.07"/><rect class="cls-1" x="26.58" y="67.95" width="13.86" height="7.07"/><rect class="cls-1" x="45.6" y="67.95" width="13.86" height="7.07"/><rect class="cls-1" x="15.61" y="4.6" width="54.82" height="86.81" rx="4.9" ry="4.9"/><rect class="cls-1" x="70.43" y="56.92" width="13.96" height="19.91"/><rect class="cls-1" x="73" y="59.45" width="8.69" height="4.02"/><line class="cls-1" x1="73.08" y1="66.32" x2="74.46" y2="66.32"/><line class="cls-1" x1="76.66" y1="66.32" x2="78.04" y2="66.32"/><line class="cls-1" x1="80.24" y1="66.32" x2="81.62" y2="66.32"/><line class="cls-1" x1="73.08" y1="69.02" x2="74.46" y2="69.02"/><line class="cls-1" x1="76.66" y1="69.02" x2="78.04" y2="69.02"/><line class="cls-1" x1="80.24" y1="69.02" x2="81.62" y2="69.02"/><line class="cls-1" x1="73.08" y1="71.72" x2="74.46" y2="71.72"/><line class="cls-1" x1="76.66" y1="71.72" x2="78.04" y2="71.72"/><line class="cls-1" x1="80.24" y1="71.72" x2="81.62" y2="71.72"/><line class="cls-1" x1="73.08" y1="74.41" x2="74.46" y2="74.41"/><line class="cls-1" x1="76.66" y1="74.41" x2="78.04" y2="74.41"/><line class="cls-1" x1="80.24" y1="74.41" x2="81.62" y2="74.41"/><polyline class="cls-1" points="39.04 99.37 39.04 91.4 47 91.4 47 99.37"/></svg>