<?xml version="1.0" encoding="UTF-8"?><svg id="Layer_2" xmlns="http://www.w3.org/2000/svg" viewBox="0 0 101 73.8"><defs><style>.cls-1{fill:none;stroke:#361d5c;stroke-linecap:round;stroke-linejoin:round;}</style></defs><g id="Layer_1-2"><rect class="cls-1" x="53.53" y="4.66" width="9.04" height="18.22" rx="4.52" ry="4.52"/><rect class="cls-1" x="62.57" y="7.94" width="9.04" height="17.21" rx="4.52" ry="4.52"/><path class="cls-1" d="m36.71,30.92l10.48-10.48c1.76-1.76,1.76-4.63,0-6.39h0c-1.76-1.76-4.63-1.76-6.39,0l-11.73,11.73s-1.63,1.78-1.31,3.6c0,0,1.58,9.64,10.37,15.86l-.61,28.07"/><path class="cls-1" d="m72.34,29.37s-.74,9.07-7.47,15.86l.61,28.07"/><circle class="cls-1" cx="88.55" cy="22.13" r="11.95"/><path class="cls-1" d="m9.4,10.66C4.52,11.9,1.12,15.98.5,20.69l10.5-2.66,2.17,8.55-10.5,2.66c2.79,3.85,7.73,5.82,12.61,4.58,6.4-1.62,10.27-8.12,8.64-14.52-1.62-6.4-8.12-10.27-14.52-8.64Z"/><path class="cls-1" d="m38.79,28.9h39.91c-1.33-1.92-2.11-4.25-2.11-6.77,0-2.12.56-4.11,1.52-5.83h-6.52"/><path class="cls-1" d="m35.55,16.3h-12.85c.53.92.95,1.92,1.22,3,.82,3.22.24,6.46-1.34,9.1v.51h5.14"/><path class="cls-1" d="m46,28.9c.46,1.41.75,2.99.59,4.54"/><polygon class="cls-1" points="91.79 16.53 85.31 16.53 82.08 22.13 85.31 27.74 91.79 27.74 95.03 22.13 91.79 16.53"/><path class="cls-1" d="m36.55,18.3c-.68-.79-1.1-1.82-1.1-2.95V5.02c0-2.5,2.02-4.52,4.52-4.52h0c2.5,0,4.52,2.02,4.52,4.52v7.7"/><path class="cls-1" d="m44.49,12.72v-6.09c0-2.5,2.02-4.52,4.52-4.52h0c2.5,0,4.52,2.02,4.52,4.52v9.74c0,2.5-2.02,4.52-4.52,4.52h0c-.66,0-1.28-.14-1.84-.39"/></g></svg>