<?xml version="1.0" encoding="UTF-8"?>
<svg id="Layer_1" data-name="Layer 1" xmlns="http://www.w3.org/2000/svg" viewBox="0 0 100 100">
  <defs>
    <style>
      .cls-1 {
        fill: none;
        stroke: #361d5c;
        stroke-linecap: round;
        stroke-linejoin: round;
      }
    </style>
  </defs>
  <path class="cls-1" d="m71.9,68.7v8.03c0,1.66-1.34,3-3,3h-27.17"/>
  <path class="cls-1" d="m29.87,35.03V9.27c0-1.66,1.34-3,3-3h36.03c1.66,0,3,1.34,3,3v32.35"/>
  <line class="cls-1" x1="41.59" y1="20.42" x2="41.59" y2="33.58"/>
  <line class="cls-1" x1="46.43" y1="20.42" x2="46.43" y2="33.58"/>
  <line class="cls-1" x1="51.26" y1="20.42" x2="51.26" y2="33.58"/>
  <line class="cls-1" x1="56.09" y1="20.42" x2="56.09" y2="33.58"/>
  <line class="cls-1" x1="60.93" y1="20.42" x2="60.93" y2="33.58"/>
  <line class="cls-1" x1="40.57" y1="64.44" x2="62.85" y2="64.44"/>
  <line class="cls-1" x1="47.57" y1="71.44" x2="55.85" y2="71.44"/>
  <rect class="cls-1" x="70.32" y="38.11" width="6.76" height="13.27" rx="3.38" ry="3.38" transform="translate(53.23 -39.01) rotate(45)"/>
  <rect class="cls-1" x="70.22" y="47.72" width="6.76" height="13.56" rx="3.38" ry="3.38" transform="translate(60.1 -36.08) rotate(45)"/>
  <rect class="cls-1" x="70.82" y="57.63" width="6.76" height="11.86" rx="3.38" ry="3.38" transform="translate(66.67 -33.85) rotate(45)"/>
  <path class="cls-1" d="m79.9,28.68c-1.36-1.25-3.52-1.04-4.82.26l-3.15,3.15s0,.01,0,.02v8.93c.53-.15,1.04-.42,1.46-.84l6.64-6.64c1.36-1.36,1.32-3.58-.11-4.88Z"/>
  <path class="cls-1" d="m14.05,76.8l5.98-5.98-1.23-9.81,9.41-25.19s4.1-2.52,6.03,2.1-2.84,17.71-2.84,17.71c0,0,9.08,7.92,5.78,20.35"/>
  <path class="cls-1" d="m33.21,93.88l5.91-5.91s16.12-.81,20.41-8.24"/>
  <line class="cls-1" x1="49.34" y1="8.92" x2="52.43" y2="8.92"/>
</svg>