<?xml version="1.0" encoding="UTF-8"?>
<svg id="Layer_1" data-name="Layer 1" xmlns="http://www.w3.org/2000/svg" viewBox="0 0 100 100">
  <defs>
    <style>
      .cls-1 {
        fill: none;
        stroke: #361d5c;
        stroke-linecap: round;
        stroke-linejoin: round;
      }
    </style>
  </defs>
  <polyline class="cls-1" points="93.51 89.21 87.72 95 50 95 12.28 95 6.49 89.21"/>
  <g>
    <path class="cls-1" d="m15.37,69.72h29.9v10.33c0,8.25-6.7,14.95-14.95,14.95h0c-8.25,0-14.95-6.7-14.95-14.95v-10.33h0Z"/>
    <path class="cls-1" d="m12.86,73.81h2.52v6.57h-2.52c-1.81,0-3.29-1.47-3.29-3.29h0c0-1.81,1.47-3.29,3.29-3.29Z"/>
    <line class="cls-1" x1="49.07" y1="72.81" x2="54.36" y2="78.1"/>
    <line class="cls-1" x1="59.44" y1="71.48" x2="64.72" y2="76.76"/>
    <line class="cls-1" x1="69.81" y1="71.86" x2="75.09" y2="77.14"/>
    <path class="cls-1" d="m43.5,87.1h40.89c0,4.36-3.54,7.9-7.9,7.9h-28.82c-2.61,0-5.79-2-7.23-3.95"/>
    <line class="cls-1" x1="52.17" y1="91.05" x2="40.84" y2="91.05"/>
    <line class="cls-1" x1="69.22" y1="91.05" x2="55.66" y2="91.05"/>
    <line class="cls-1" x1="83.33" y1="91.05" x2="72.75" y2="91.05"/>
    <polyline class="cls-1" points="48.22 87.1 53.83 92.71 59.43 87.11"/>
    <polyline class="cls-1" points="65.4 87.1 71.01 92.71 76.61 87.11"/>
    <path class="cls-1" d="m45.27,75.21c2.73-2.32,6.26-3.73,10.13-3.73h13.37c8.63,0,15.62,7,15.62,15.62h0s-40.89,0-40.89,0"/>
  </g>
  <g>
    <rect class="cls-1" x="31.67" y="7.17" width="36.17" height="54"/>
    <polyline class="cls-1" points="43.31 69.72 43.31 61.17 56.2 61.17 56.2 71.41"/>
    <rect class="cls-1" x="67.84" y="39.36" width="10.08" height="18.87"/>
    <line class="cls-1" x1="70.55" y1="50" x2="69.36" y2="50"/>
    <line class="cls-1" x1="73.48" y1="50" x2="72.29" y2="50"/>
    <line class="cls-1" x1="76.41" y1="50" x2="75.22" y2="50"/>
    <line class="cls-1" x1="70.55" y1="51.87" x2="69.36" y2="51.87"/>
    <line class="cls-1" x1="73.48" y1="51.87" x2="72.29" y2="51.87"/>
    <line class="cls-1" x1="76.41" y1="51.87" x2="75.22" y2="51.87"/>
    <line class="cls-1" x1="70.55" y1="53.74" x2="69.36" y2="53.74"/>
    <line class="cls-1" x1="73.48" y1="53.74" x2="72.29" y2="53.74"/>
    <line class="cls-1" x1="76.41" y1="53.74" x2="75.22" y2="53.74"/>
    <line class="cls-1" x1="70.55" y1="55.62" x2="69.36" y2="55.62"/>
    <line class="cls-1" x1="73.48" y1="55.62" x2="72.29" y2="55.62"/>
    <line class="cls-1" x1="76.41" y1="55.62" x2="75.22" y2="55.62"/>
    <rect class="cls-1" x="69.54" y="41.02" width="6.68" height="6.68"/>
    <rect class="cls-1" x="33.88" y="9.62" width="31.75" height="49.09"/>
    <g>
      <rect class="cls-1" x="38.25" y="49.4" width="9.66" height="4.95"/>
      <rect class="cls-1" x="51.6" y="49.4" width="9.66" height="4.95"/>
    </g>
    <line class="cls-1" x1="40.93" y1="14.02" x2="58.58" y2="14.02"/>
    <line class="cls-1" x1="38.25" y1="32.85" x2="48.17" y2="32.85"/>
    <line class="cls-1" x1="38.25" y1="35.98" x2="48.17" y2="35.98"/>
    <line class="cls-1" x1="38.25" y1="39.11" x2="43.21" y2="39.11"/>
    <rect class="cls-1" x="38.25" y="17.86" width="23.25" height="11.6"/>
  </g>
</svg>