<?xml version="1.0" encoding="UTF-8"?>
<svg width="1200pt" height="1200pt" version="1.1" viewBox="0 0 1200 1200" xmlns="http://www.w3.org/2000/svg">
 <g>
  <path d="m1116.9 814.73c-8.668-18.445-24.234-32.746-43.348-39.82-19.109-7.0781-40.238-6.3594-58.828 1.9922l-227.02 99.984c0.44141-2.875 0.72656-5.7734 0.85547-8.6797-0.027344-20.629-8.2344-40.41-22.82-55-14.59-14.586-34.371-22.793-55-22.82h-180.38c-12.473-0.011718-24.766-2.9414-35.906-8.5508l-92.156-46.52c-22.988-13.465-66.512-14.102-92.23-18.07v0.003906c-3.5898-11.336-10.688-21.242-20.27-28.285-9.5859-7.043-21.156-10.859-33.051-10.902h-125.46c-14.914 0.015625-29.211 5.9492-39.758 16.492-10.543 10.547-16.477 24.844-16.492 39.758v264.35c0.015625 14.914 5.9492 29.211 16.492 39.758 10.547 10.547 24.844 16.477 39.758 16.492h125.46c10.246-0.035156 20.285-2.8789 29.027-8.2148 8.7461-5.3398 15.859-12.973 20.574-22.07l232.31 70.633c32.434 11.84 82.191 7.7852 116.29 8.4688 30.301-0.039062 60.184-7.0703 87.324-20.543l158.11-78.707 180.92-85.402c18.629-9.0391 32.871-25.152 39.559-44.75 6.6836-19.598 5.2578-41.051-3.9609-59.594zm-841.41 183.93c-0.007813 4.9727-1.9844 9.7383-5.5 13.254-3.5117 3.5156-8.2812 5.4922-13.25 5.4961h-125.46c-4.9727-0.003906-9.7383-1.9805-13.254-5.4961s-5.4922-8.2812-5.4961-13.254v-264.35c0.003906-4.9727 1.9805-9.7383 5.4961-13.254 3.5156-3.5156 8.2812-5.4922 13.254-5.4961h125.46c4.9688 0.003906 9.7383 1.9805 13.25 5.4961 3.5156 3.5156 5.4922 8.2812 5.5 13.254zm809.79-135.86h-0.003906c-3.3555 9.8516-10.562 17.918-19.977 22.359l-181.27 85.574-158.46 78.883c-21.949 10.891-46.117 16.574-70.621 16.605-29.18-1.0703-77.68 3.4297-105.39-6.8477l-236.55-71.918v-232.09c19.328 3.0234 55.469 3.7539 72.418 13.43 35.191 15.227 105.5 62.156 144.95 59.09h180.38c14.379 0.39063 27.504 8.2891 34.586 20.812 7.082 12.523 7.082 27.844 0 40.367s-20.207 20.418-34.59 20.809h-203.79c-6.6992 0-12.891 3.5742-16.238 9.375-3.3516 5.8008-3.3516 12.949 0 18.75 3.3477 5.8008 9.5391 9.375 16.238 9.375h203.8c17.043-0.054688 33.578-5.7969 46.988-16.316l272.56-120.05 0.003907 0.003907c9.8789-3.9961 20.918-4.0469 30.832-0.13672 9.918 3.9102 17.953 11.477 22.445 21.141 4.4961 9.6641 5.1055 20.684 1.707 30.785z"/>
  <path d="m197.9 902.64c-17.934 0.20703-34.414 9.8945-43.32 25.457-8.9062 15.566-8.9062 34.68 0 50.246 8.9102 15.562 25.391 25.246 43.32 25.453 17.93-0.20703 34.41-9.8906 43.316-25.457 8.9062-15.562 8.9062-34.68 0-50.242s-25.387-25.25-43.316-25.457zm0 63.656c-7.1211-0.14062-12.82-5.9531-12.82-13.078 0-7.1211 5.6992-12.934 12.82-13.078 7.1211 0.14062 12.828 5.9531 12.828 13.078 0 7.1289-5.707 12.941-12.828 13.078z"/>
  <path d="m165.73 807.38 0.93359-36.164h43.102c6.6992 0 12.887-3.5703 16.238-9.375 3.3477-5.8008 3.3477-12.945 0-18.75-3.3516-5.8008-9.5391-9.375-16.238-9.375h-43.102c-10.191 0.015624-19.961 4.0703-27.164 11.277-7.207 7.207-11.258 16.977-11.27 27.168v35.219c0.12891 6.6133 3.7305 12.668 9.4766 15.938 5.75 3.2695 12.793 3.2695 18.543 0s9.3516-9.3242 9.4805-15.938z"/>
  <path d="m501.8 264.48 30.465 41.035c-6.9258 13.125-12.66 26.84-17.137 40.984l-51.102 7.5859c-9.6445 1.4219-18.449 6.2773-24.797 13.672-6.3516 7.3906-9.8203 16.828-9.7734 26.574v51.105c-0.039062 9.7578 3.4414 19.199 9.8047 26.598 6.3672 7.3945 15.184 12.246 24.84 13.664l50.555 7.4844v0.003906c4.4102 14.133 10.094 27.84 16.973 40.949l-30.797 41.559c-5.7617 7.8516-8.5273 17.504-7.8047 27.215 0.72656 9.7109 4.8945 18.84 11.758 25.75 18.988 16.492 40.016 49.727 64.801 48.168 18.48 2.4648 50.934-29.539 65.367-38.566 13.133 6.9375 26.859 12.684 41.016 17.168l7.5859 51.105h-0.003907c1.4258 9.6406 6.2812 18.441 13.676 24.789 7.3906 6.3516 16.828 9.8203 26.57 9.7734h51.105c9.7578 0.042969 19.203-3.4375 26.598-9.8047 7.3945-6.3633 12.242-15.188 13.648-24.84l7.5078-50.566c14.121-4.418 27.816-10.098 40.922-16.973l41.57 30.781h-0.003907c7.8438 5.7812 17.5 8.5625 27.219 7.8398 9.7148-0.72266 18.852-4.9023 25.754-11.777l36.219-36.098v-0.003906c6.9297-6.8945 11.137-16.059 11.844-25.805 0.71094-9.75-2.125-19.426-7.9805-27.25l-30.48-41.016c6.9336-13.125 12.676-26.848 17.156-41l51.117-7.5859c9.6367-1.4297 18.434-6.2891 24.781-13.68 6.3477-7.3945 9.8164-16.824 9.7695-26.566v-51.105c0.039062-9.7578-3.4414-19.199-9.8047-26.598s-15.184-12.25-24.836-13.668l-50.555-7.4844c-4.4141-14.133-10.094-27.84-16.977-40.949l30.797-41.551c5.7734-7.8477 8.543-17.5 7.8203-27.215-0.72656-9.7109-4.9023-18.848-11.773-25.75l-36.09-36.219c-6.8984-6.9297-16.066-11.137-25.816-11.848-9.7539-0.71484-19.434 2.1211-27.266 7.9766l-41.004 30.484c-13.125-6.9336-26.852-12.68-41.004-17.16l-7.5859-51.117c-1.4258-9.6406-6.2812-18.441-13.676-24.785-7.3945-6.3477-16.828-9.8164-26.57-9.7695h-51.105c-9.7578-0.046876-19.203 3.4297-26.598 9.793-7.3945 6.3672-12.242 15.188-13.648 24.844l-7.5078 50.574h-0.003906c-14.121 4.418-27.812 10.094-40.918 16.965l-41.586-30.793v0.003906c-7.8438-5.7734-17.496-8.5469-27.207-7.8242-9.7109 0.72266-18.844 4.8984-25.746 11.77l-36.199 36.098c-6.8477 6.9414-11 16.09-11.711 25.812-0.71094 9.7227 2.0625 19.383 7.8281 27.242zm30.379-26.523 36.199-36.098c1.0781-1.1211 2.8125-1.2852 4.082-0.38281l48.797 36.246v-0.003906c3.5156 3.5195 8.2852 5.4961 13.258 5.4961 21.977-6.2305 41.656-21.438 64.383-25.238h-0.003907c3.9219-1.1758 7.3828-3.5273 9.9141-6.7422 2.5312-3.2148 4.0117-7.1289 4.2383-11.215l8.8828-59.82c0.23828-1.5625 1.5859-2.7148 3.168-2.6992h51.105c1.5586-0.019532 2.9023 1.0977 3.168 2.6367 0.36328 2.7578 9.3906 64.512 9.9102 65.008 1.1797 4.5938 4.1836 8.5039 8.3203 10.828 20.66 6.2578 40.59 14.719 59.441 25.238 3.3672 1.9023 7.2227 2.7617 11.078 2.4609 3.8555-0.30078 7.5352-1.7461 10.566-4.1445l49.66-37.023h-0.003906c1.2734-0.99609 3.0859-0.90234 4.25 0.21875l36.09 36.211v-0.003907c1.1133 1.082 1.2773 2.8125 0.38281 4.0859l-36.234 48.793c-2.5547 2.5391-4.3125 5.7656-5.0586 9.2891-0.74609 3.5195-0.44141 7.1836 0.87109 10.535 10.539 18.492 18.719 38.23 24.355 58.758 1.7695 5.4492 5.8789 9.8203 11.207 11.93-0.085937 0.94922 63.391 9.4141 66.109 10.145 1.5742 0.23828 2.7344 1.5938 2.7305 3.1836v51.105c0.015625 1.5586-1.1016 2.8984-2.6367 3.168l-59.984 8.8984h-0.003906c-3.8633 0.16016-7.5938 1.4648-10.719 3.7461s-5.5 5.4375-6.832 9.0703c-6.293 20.984-14.719 41.27-25.145 60.539-1.6992 5.8867-0.47266 12.227 3.293 17.055l37.043 49.676c0.94922 1.2812 0.84766 3.0625-0.23828 4.2305l-36.219 36.098c-1.0781 1.1055-2.8008 1.2656-4.0664 0.375l-48.797-36.246c-2.5352-2.5547-5.7656-4.3164-9.293-5.0586-3.5234-0.74219-7.1914-0.44141-10.543 0.875-18.461 10.504-38.148 18.68-58.621 24.332-4.6602 1.4805-8.582 4.6797-10.957 8.9531-2.9805 4.9141-9.8125 61.781-11.254 68.422h-0.003907c-0.23047 1.5664-1.582 2.7227-3.1641 2.7109h-51.109c-1.5625 0.011719-2.9023-1.1094-3.168-2.6484l-8.8984-60.203c-0.21094-3.8242-1.5352-7.5039-3.8164-10.586-2.2773-3.0781-5.4062-5.4258-9-6.7461-21.785-6.9336-42.969-15.629-63.348-25.992-5.0312-0.30469-10.016 1.125-14.125 4.0469l-49.785 37.125c-1.2773 0.98828-3.082 0.89453-4.25-0.21875l-36.07-36.199c-1.1367-1.0781-1.3086-2.8242-0.40234-4.1016l36.234-48.801c2.5547-2.5352 4.3125-5.7617 5.0586-9.2812 0.74219-3.5234 0.44141-7.1836-0.86719-10.535-10.512-18.457-18.688-38.152-24.328-58.633-1.4609-4.6211-4.6211-8.5117-8.8398-10.891-5.1484-3.1289-61.66-9.8242-68.508-11.312-1.5742-0.23828-2.7344-1.5938-2.7266-3.1875v-51.102c-0.023437-1.5625 1.0977-2.9023 2.6367-3.1602 3.5898-1.0586 65.863-9.0039 66.711-10.266 5.0117-2.0898 8.9219-6.1758 10.789-11.277 5.3242-19.676 13.254-38.559 23.57-56.141 2.0234-3.5898 2.8516-7.7344 2.3672-11.828s-2.2539-7.9258-5.0586-10.949l-36.031-48.531c-0.95312-1.2812-0.85156-3.0547 0.23438-4.2227z"/>
  <path d="m749.34 585.98c44.039-0.050781 86.258-17.566 117.39-48.703 31.137-31.137 48.652-73.355 48.703-117.39-8.707-220.19-323.52-220.13-332.19 0v0.003906c0.046875 44.035 17.562 86.254 48.703 117.39 31.137 31.141 73.355 48.652 117.39 48.703zm0-294.69c34.094 0.039063 66.781 13.602 90.887 37.707 24.109 24.109 37.668 56.793 37.711 90.887-6.043 170.2-251.17 170.15-257.19-0.003906v0.003906c0.039062-34.094 13.602-66.777 37.707-90.887 24.109-24.105 56.793-37.668 90.887-37.707z"/>
  <path d="m476.42 721.23c4.9883 4.3438 11.895 5.7422 18.18 3.6758 6.2852-2.0625 11.016-7.2852 12.457-13.742 1.4375-6.4531-0.62891-13.191-5.4414-17.73-168.11-147.73-159.05-428.2 19.598-563.68 5.0977-4.1992 7.6133-10.773 6.6211-17.305-0.99609-6.5312-5.3516-12.059-11.473-14.551-6.1172-2.4922-13.098-1.582-18.371 2.3945-196.77 149.27-206.71 458.21-21.57 620.94z"/>
 </g>
</svg>
