<?xml version="1.0" encoding="UTF-8"?>
<svg id="Layer_1" data-name="Layer 1" xmlns="http://www.w3.org/2000/svg" viewBox="0 0 100 100">
  <defs>
    <style>
      .cls-1 {
        fill: none;
        stroke: #361d5c;
        stroke-linecap: round;
        stroke-linejoin: round;
      }
    </style>
  </defs>
  <rect class="cls-1" x="34.07" y="75.36" width="27.19" height="21.64"/>
  <rect class="cls-1" x="34.07" y="56.86" width="27.19" height="15.11"/>
  <rect class="cls-1" x="37.33" y="56.86" width="20.68" height="15.11"/>
  <rect class="cls-1" x="37.33" y="75.36" width="20.68" height="21.64"/>
  <rect class="cls-1" x="45.73" y="8.63" width="3.86" height="23.44"/>
  <rect class="cls-1" x="35.84" y="32.07" width="23.65" height="15.72"/>
  <rect class="cls-1" x="62.07" y="38.33" width="5.69" height="7.17"/>
  <rect class="cls-1" x="42.77" y="47.79" width="9.78" height="9.08"/>
  <rect class="cls-1" x="10.84" y="71.97" width="73.64" height="3.38"/>
  <rect class="cls-1" x="61.26" y="75.36" width="23.23" height="21.64"/>
  <g>
    <rect class="cls-1" x="67.12" y="56.86" width="12.98" height="15.11"/>
    <rect class="cls-1" x="67.12" y="56.86" width="10.62" height="15.11"/>
    <path class="cls-1" d="m74.71,59.2c0,1.17-.95,2.12-2.12,2.12s-2.12-.95-2.12-2.12"/>
  </g>
  <path class="cls-1" d="m29.65,61.48H13.23l.85,8.87c.09.92,1.01,1.62,2.12,1.62h10.5c1.11,0,2.03-.71,2.12-1.62l.85-8.87Z"/>
  <line class="cls-1" x1="15.66" y1="64.4" x2="16.08" y2="68.83"/>
  <line class="cls-1" x1="18.4" y1="64.4" x2="18.61" y2="68.83"/>
  <line class="cls-1" x1="27.25" y1="64.4" x2="26.82" y2="68.83"/>
  <line class="cls-1" x1="24.54" y1="64.4" x2="24.33" y2="68.83"/>
  <line class="cls-1" x1="21.44" y1="64.4" x2="21.44" y2="68.83"/>
  <line class="cls-1" x1="52.24" y1="35.41" x2="56.8" y2="35.41"/>
  <line class="cls-1" x1="52.24" y1="37.72" x2="56.8" y2="37.72"/>
  <line class="cls-1" x1="52.24" y1="40.03" x2="56.8" y2="40.03"/>
  <rect class="cls-1" x="37.85" y="34.31" width="11.74" height="11.19"/>
  <rect class="cls-1" x="43.65" y="63.88" width="8.04" height="3.52"/>
  <line class="cls-1" x1="18.61" y1="61.48" x2="14.51" y2="57.38"/>
  <line class="cls-1" x1="24.33" y1="61.48" x2="28.43" y2="57.38"/>
  <line class="cls-1" x1="63.8" y1="40.45" x2="66.15" y2="40.45"/>
  <line class="cls-1" x1="63.8" y1="42.06" x2="66.15" y2="42.06"/>
  <line class="cls-1" x1="63.8" y1="43.67" x2="66.15" y2="43.67"/>
  <rect class="cls-1" x="59.49" y="40.61" width="2.58" height="1.98"/>
  <rect class="cls-1" x="46.9" y="3.11" width="1.53" height="5.34"/>
</svg>