<?xml version="1.0" encoding="UTF-8"?>
<svg id="Layer_1" data-name="Layer 1" xmlns="http://www.w3.org/2000/svg" viewBox="0 0 100 100">
  <defs>
    <style>
      .cls-1 {
        fill: none;
        stroke: #361d5c;
        stroke-linecap: round;
        stroke-linejoin: round;
      }
    </style>
  </defs>
  <polyline class="cls-1" points="65.54 30.02 65.54 16.59 5.9 16.59 5.9 93.42 24.73 93.42"/>
  <polyline class="cls-1" points="48.83 22.57 48.83 16.59 54.93 16.59 54.93 16.59"/>
  <path class="cls-1" d="m48.83,22.57v-6.04c0-7.24-5.87-13.1-13.1-13.1s-13.1,5.87-13.1,13.1v6.04"/>
  <path class="cls-1" d="m54.93,16.53h0c0-7.24-5.87-13.1-13.1-13.1s-13.1,5.87-13.1,13.1h0"/>
  <polygon class="cls-1" points="65.54 30.02 65.54 16.59 71.65 16.59 71.65 37.87 65.54 37.87 65.54 30.02"/>
  <polygon class="cls-1" points="84.37 51.36 84.37 37.93 24.73 37.93 24.73 96.58 68.71 96.58 84.37 96.58 84.37 51.36"/>
  <path class="cls-1" d="m41.45,43.91v6.04c0,7.24,5.87,13.1,13.1,13.1s13.1-5.87,13.1-13.1v-6.04"/>
  <polygon class="cls-1" points="84.37 51.36 84.37 37.93 94.1 37.93 94.1 96.58 84.37 96.58 84.37 51.36"/>
</svg>