<?xml version="1.0" encoding="UTF-8"?><svg id="Layer_2" xmlns="http://www.w3.org/2000/svg" viewBox="0 0 91 95.49"><defs><style>.cls-1{fill:none;stroke:#361d5c;stroke-linecap:round;stroke-linejoin:round;}</style></defs><g id="Layer_1-2"><line class="cls-1" x1=".5" y1="94.99" x2="90.5" y2="94.99"/><polyline class="cls-1" points="8.44 45.3 8.44 94.99 82.56 94.99 82.56 45.3"/><rect class="cls-1" x="20.23" y="58.63" width="19.93" height="36.36"/><rect class="cls-1" x="46.01" y="62.81" width="31.4" height="22.23" transform="translate(135.63 12.21) rotate(90)"/><polygon class="cls-1" points="74.76 18.74 15.26 18.74 .5 34.38 90.5 34.38 74.76 18.74"/><polyline class="cls-1" points="60.57 8.93 75.74 8.93 75.74 18.74 14.24 18.74 14.24 8.93 30.43 8.93"/><path class="cls-1" d="m.5,34.38h12.86v4.62c0,3.48-2.82,6.3-6.3,6.3h-.26c-3.48,0-6.3-2.82-6.3-6.3v-4.62H.5Z"/><path class="cls-1" d="m77.64,34.38h12.86v4.62c0,3.48-2.82,6.3-6.3,6.3h-.26c-3.48,0-6.3-2.82-6.3-6.3v-4.62h0Z"/><path class="cls-1" d="m64.79,34.38h12.86v4.62c0,3.48-2.82,6.3-6.3,6.3h-.26c-3.48,0-6.3-2.82-6.3-6.3v-4.62h0Z"/><path class="cls-1" d="m51.93,34.38h12.86v4.62c0,3.48-2.82,6.3-6.3,6.3h-.26c-3.48,0-6.3-2.82-6.3-6.3v-4.62h0Z"/><path class="cls-1" d="m39.07,34.38h12.86v4.62c0,3.48-2.82,6.3-6.3,6.3h-.26c-3.48,0-6.3-2.82-6.3-6.3v-4.62h0Z"/><path class="cls-1" d="m26.21,34.38h12.86v4.62c0,3.48-2.82,6.3-6.3,6.3h-.26c-3.48,0-6.3-2.82-6.3-6.3v-4.62h0Z"/><path class="cls-1" d="m13.36,34.38h12.86v4.62c0,3.48-2.82,6.3-6.3,6.3h-.26c-3.48,0-6.3-2.82-6.3-6.3v-4.62h0Z"/><path class="cls-1" d="m45.5.5c-6.05,0-11.43,3.04-14.85,7.75-.29.4-.29.95,0,1.36,3.42,4.71,8.8,7.75,14.85,7.75s11.43-3.04,14.85-7.75c.29-.4.29-.95,0-1.36-3.42-4.71-8.8-7.75-14.85-7.75Z"/><path class="cls-1" d="m35.04,13.97c1.14.82,2.38,1.5,3.68,2.04V1.84c-1.3.54-2.54,1.22-3.68,2.04v10.1Z"/><path class="cls-1" d="m52.27,16.02c1.3-.54,2.54-1.22,3.68-2.04V3.88c-1.14-.82-2.38-1.5-3.68-2.04v14.18Z"/><line class="cls-1" x1="42.24" y1="8.93" x2="48.76" y2="8.93"/><line class="cls-1" x1="43.48" y1="7.39" x2="43.48" y2="10.46"/><line class="cls-1" x1="45.5" y1="7.39" x2="45.5" y2="10.46"/><line class="cls-1" x1="47.52" y1="7.39" x2="47.52" y2="10.46"/><path class="cls-1" d="m52.2,66.56l2.04-1.36,1.36,1.36h1.36l1.36-1.36,2.04,1.36-1.36,4.08,1.36,2.72h-8.15l1.36-2.72-1.36-4.08Z"/><path class="cls-1" d="m56.27,62.49v4.08"/><path class="cls-1" d="m56.27,77.43v12.19"/><path class="cls-1" d="m71.22,65.21h-1.36l-1.36.68h-2.72l-1.36-.68h-1.36v2.72l1.36.68v4.76h5.43v-4.76l1.36-.68v-2.72Z"/><path class="cls-1" d="m64.42,73.36h5.43v10.19h-5.43v-10.19Z"/><path class="cls-1" d="m53.56,73.36h5.43v10.19h-5.43v-10.19Z"/><path class="cls-1" d="m67.14,77.43v12.19"/><path class="cls-1" d="m67.14,65.88v-3.4"/></g></svg>