<?xml version="1.0" encoding="UTF-8"?><svg id="Layer_1" xmlns="http://www.w3.org/2000/svg" viewBox="0 0 100 100"><defs><style>.cls-1{fill:none;stroke:#361d5c;stroke-linecap:round;stroke-linejoin:round;}</style></defs><g><circle class="cls-1" cx="79.44" cy="80.29" r="16.89"/><g><path class="cls-1" d="m86.49,78.04l5.72-1.73.92-5.93c-1.51-2.08-3.47-3.8-5.75-5.01l-6.41,1.64-.8,6.38,6.31,4.64Z"/><path class="cls-1" d="m73.86,64.35c-2.46.86-4.67,2.28-6.46,4.1l-.09,7.29c1.71.74,3.42,1.47,5.13,2.2l6.42-4.61.78-6.42-5.77-2.56h0Z"/><path class="cls-1" d="m96.21,82.33l-3.66-4.76-5.68,1.72-2.46,7.44,3.52,4.1,5.46-1.02c1.49-2.18,2.48-4.73,2.81-7.48Z"/><path class="cls-1" d="m83.2,86.22c.8-2.4,1.59-4.81,2.39-7.21l-6.13-4.5-6.17,4.43,2.31,7.23c2.53.02,5.06.03,7.6.05Z"/><path class="cls-1" d="m92.2,91.36l-4.07.76-2.09,3.73c2.39-1.01,4.49-2.56,6.17-4.49Z"/><path class="cls-1" d="m79.45,97.18c1.64,0,3.22-.24,4.72-.67l2.73-4.86-3.52-4.12-7.9-.04c-.94,1.45-1.87,2.89-2.8,4.34l3.02,4.93c1.21.27,2.47.42,3.76.42Z"/><path class="cls-1" d="m80.41,65.82l5.07-1.3c-1.88-.72-3.91-1.11-6.04-1.11-1.24,0-2.45.14-3.61.39l4.58,2.03Z"/><path class="cls-1" d="m66.67,91.34h0c1.9,2.2,4.36,3.9,7.16,4.88l-2.33-3.8-4.83-1.08Z"/><path class="cls-1" d="m71.58,91.1c.94-1.46,1.88-2.91,2.82-4.37-.8-2.52-1.6-5.04-2.41-7.56-1.71-.74-3.43-1.47-5.14-2.21l-4.21,5.12c.3,2.81,1.28,5.42,2.78,7.64l6.16,1.38Z"/><path class="cls-1" d="m96.33,80.29c0-2.99-.78-5.8-2.14-8.24l-.72,4.59,2.86,3.71s0-.04,0-.06Z"/><path class="cls-1" d="m66.08,69.96c-2.18,2.82-3.49,6.34-3.53,10.17l3.45-4.19.08-5.98Z"/></g></g><g><path class="cls-1" d="m38.88,7.7c-.22.58-.36,1.2-.36,1.86,0,2.42,1.63,4.43,3.83,5.07.42-.69.67-1.49.67-2.36,0-2.38-1.82-4.33-4.15-4.57h0Z"/><path class="cls-1" d="m39.58,6.42c2.73.55,4.8,2.97,4.8,5.86,0,.93-.23,1.8-.61,2.59.02,0,.04,0,.05,0,2.93,0,5.3-2.37,5.3-5.3s-2.37-5.3-5.3-5.3c-1.74,0-3.28.85-4.24,2.15h0Z"/></g><path class="cls-1" d="m28.19,17.72c-5.56-5.56-14.58-5.56-20.15,0s-5.56,14.58,0,20.15c5.34,5.34,16.27,7.97,22.06,3.26l4.35,4.35c-.42,1.04-.2,2.27.64,3.11l6.28,6.28c1.12,1.12,2.95,1.12,4.07,0s1.12-2.95,0-4.07l-6.28-6.28c-.84-.84-2.07-1.05-3.11-.64l-4.38-4.38c4.4-5.86,1.77-16.53-3.48-21.78Zm-1.47,18.68c-4.75,4.75-12.46,4.75-17.22,0s-4.75-12.46,0-17.22,12.46-4.75,17.22,0c4.75,4.75,4.75,12.46,0,17.22Z"/><line class="cls-1" x1="5.95" y1="28.35" x2="17.56" y2="39.96"/><line class="cls-1" x1="18.72" y1="15.58" x2="30.33" y2="27.19"/><line class="cls-1" x1="11.93" y1="17.31" x2="28.61" y2="33.98"/><line class="cls-1" x1="7.66" y1="21.55" x2="24.36" y2="38.25"/><line class="cls-1" x1="17.56" y1="15.58" x2="5.95" y2="27.19"/><line class="cls-1" x1="30.33" y1="28.35" x2="18.72" y2="39.96"/><line class="cls-1" x1="28.61" y1="21.56" x2="11.93" y2="38.24"/><line class="cls-1" x1="24.36" y1="17.29" x2="7.66" y2="33.99"/><circle class="cls-1" cx="43.83" cy="9.57" r="5.29"/><path class="cls-1" d="m81.73,63.55v-28.19s-29.13,0-29.13,0v49.59c0,6.2,5.03,11.22,11.22,11.22h6.69c.74,0,1.46-.07,2.16-.21"/><rect class="cls-1" x="81.73" y="40.31" width="3.76" height="15.08"/><path class="cls-1" d="m70.22,3.52h8.51v8.58h-8.51c-2.1,0-3.81-1.71-3.81-3.81v-.95c0-2.1,1.71-3.81,3.81-3.81Z"/><line class="cls-1" x1="78.74" y1="12.09" x2="78.74" y2="34.63"/><path class="cls-1" d="m47.91,24.04h8.51v8.58h-8.51c-2.1,0-3.81-1.71-3.81-3.81v-.95c0-2.1,1.71-3.81,3.81-3.81Z"/><line class="cls-1" x1="56.43" y1="32.62" x2="56.43" y2="35.36"/><path class="cls-1" d="m59.39,14.34h8.51v8.58h-8.51c-2.1,0-3.81-1.71-3.81-3.81v-.95c0-2.1,1.71-3.81,3.81-3.81Z"/><line class="cls-1" x1="67.91" y1="22.92" x2="67.91" y2="35.36"/><line class="cls-1" x1="76.5" y1="12.09" x2="76.5" y2="34.63"/><line class="cls-1" x1="54.18" y1="32.62" x2="54.18" y2="35.36"/><line class="cls-1" x1="65.67" y1="22.92" x2="65.67" y2="35.36"/><polyline class="cls-1" points="63.57 73.98 52.59 73.98 52.59 84.49 62.97 84.49"/><g><rect class="cls-1" x="4" y="92.22" width="43.95" height="3.78"/><polyline class="cls-1" points="45.33 92.07 42.29 89.03 38.27 89.03 41.46 92.22 45.44 92.22"/><rect class="cls-1" x="8.82" y="87.6" width="4.32" height="4.62"/><path class="cls-1" d="m8.82,87.6h0c-.76,0-1.41-.55-1.53-1.3l-1.7-10.4c-.27-1.67-.03-3.39.71-4.91l1.09-2.27v-12.76h17.98v12.64l5.92,5.92c1.08,1.08,2.41,1.89,3.87,2.35l5.05,1.61c2.3.73,3.87,2.87,3.87,5.29v3.98c0,.71-.58,1.29-1.29,1.29h-12.51c-1.5,0-2.98-.38-4.29-1.1l-7.14-3.9c-1.62-.89-3.65-.11-4.27,1.63l-.69,1.93-5.03.02Z"/><path class="cls-1" d="m44.06,85.34h-14.16c-1.26,0-2.51-.32-3.62-.92l-8.65-4.73c-1.25-.68-2.64-1.04-4.06-1.04h-7.48"/><circle class="cls-1" cx="20.33" cy="69.6" r=".93"/><circle class="cls-1" cx="20.33" cy="63.84" r=".93"/><circle class="cls-1" cx="20.33" cy="58.09" r=".93"/><circle class="cls-1" cx="23.93" cy="74.05" r=".93"/><line class="cls-1" x1="20.33" y1="58.09" x2="25.37" y2="58.09"/><line class="cls-1" x1="20.33" y1="63.84" x2="25.37" y2="63.84"/><line class="cls-1" x1="20.33" y1="69.6" x2="25.37" y2="68.58"/><line class="cls-1" x1="23.93" y1="74.05" x2="27.39" y2="70.6"/><circle class="cls-1" cx="28.01" cy="78.13" r=".93"/><line class="cls-1" x1="28.01" y1="78.13" x2="31.47" y2="74.68"/></g></svg>