<?xml version="1.0" encoding="UTF-8"?>
<svg id="Layer_1" data-name="Layer 1" xmlns="http://www.w3.org/2000/svg" viewBox="0 0 100 100">
  <defs>
    <style>
      .cls-1 {
        fill: none;
        stroke: #361d5c;
        stroke-linecap: round;
        stroke-linejoin: round;
      }
    </style>
  </defs>
  <ellipse class="cls-1" cx="49.94" cy="53.48" rx="46.93" ry="22.16"/>
  <ellipse class="cls-1" cx="50.21" cy="52.95" rx="35.62" ry="12.88"/>
  <g>
    <path class="cls-1" d="m34.75,87.68c-16.33-2.64-28.6-9.4-31.22-17.66-.34,1.08-.52,2.18-.52,3.31,0,9.73,13.28,17.99,31.74,20.97v-6.61Z"/>
    <path class="cls-1" d="m96.35,70.01c-2.59,8.17-14.62,14.87-30.67,17.57v6.61c18.18-3.06,31.2-11.25,31.2-20.88,0-1.12-.18-2.23-.52-3.31Z"/>
  </g>
  <g>
    <path class="cls-1" d="m34.75,81.06c-16.33-2.64-28.6-9.4-31.22-17.66-.34,1.08-.52,2.18-.52,3.31,0,9.73,13.28,17.99,31.74,20.97v-6.61Z"/>
    <path class="cls-1" d="m96.35,63.4c-2.59,8.17-14.62,14.87-30.67,17.57v6.61c18.18-3.06,31.2-11.25,31.2-20.88,0-1.12-.18-2.23-.52-3.31Z"/>
  </g>
  <path class="cls-1" d="m96.35,56.79c-3.38,10.67-22.87,18.85-46.41,18.85S6.91,67.46,3.53,56.79c-.34,1.08-.52,2.18-.52,3.31,0,9.73,13.28,17.99,31.74,20.97v-2.87h30.93v2.78c18.18-3.06,31.2-11.25,31.2-20.88,0-1.12-.18-2.23-.52-3.31Z"/>
  <line class="cls-1" x1="3.42" y1="52.95" x2="14.59" y2="52.95"/>
  <path class="cls-1" d="m34.75,94.37c3.56.57,7.3.95,11.19,1.11h8c4.08-.16,8.02-.57,11.73-1.2v-16.09h-30.93v16.18Z"/>
  <path class="cls-1" d="m40.06,95.07c1.92.19,3.88.33,5.88.41h8c2.19-.09,4.33-.25,6.43-.47v-11.71h-20.31v11.77Z"/>
  <line class="cls-1" x1="85.83" y1="52.95" x2="97" y2="52.95"/>
  <line class="cls-1" x1="50.21" y1="65.84" x2="50.21" y2="75.31"/>
  <line class="cls-1" x1="50.21" y1="40.07" x2="50.21" y2="31.32"/>
  <rect class="cls-1" x="69.39" y="4.52" width="24.74" height="13.54"/>
  <line class="cls-1" x1="69.39" y1="4.52" x2="69.39" y2="18.01"/>
  <line class="cls-1" x1="75.58" y1="4.52" x2="75.58" y2="18.01"/>
  <line class="cls-1" x1="81.76" y1="4.52" x2="81.76" y2="36.98"/>
  <line class="cls-1" x1="87.94" y1="4.52" x2="87.94" y2="18.01"/>
  <line class="cls-1" x1="94.13" y1="4.52" x2="94.13" y2="18.01"/>
  <line class="cls-1" x1="69.39" y1="8.8" x2="94.13" y2="8.8"/>
  <line class="cls-1" x1="69.39" y1="13.48" x2="94.13" y2="13.48"/>
  <rect class="cls-1" x="6.51" y="4.52" width="24.74" height="13.54"/>
  <line class="cls-1" x1="6.51" y1="4.52" x2="6.51" y2="18.01"/>
  <line class="cls-1" x1="12.69" y1="4.52" x2="12.69" y2="18.01"/>
  <line class="cls-1" x1="18.88" y1="4.52" x2="18.88" y2="36.98"/>
  <line class="cls-1" x1="25.06" y1="4.52" x2="25.06" y2="18.01"/>
  <line class="cls-1" x1="31.24" y1="4.52" x2="31.24" y2="18.01"/>
  <line class="cls-1" x1="6.51" y1="8.8" x2="31.24" y2="8.8"/>
  <line class="cls-1" x1="6.51" y1="13.48" x2="31.24" y2="13.48"/>
  <path class="cls-1" d="m16.19,56.51c0-5.15,15.23-9.33,34.02-9.33s34.02,4.18,34.02,9.33"/>
</svg>