<?xml version="1.0" encoding="UTF-8"?><svg id="Layer_1" xmlns="http://www.w3.org/2000/svg" viewBox="0 0 100 100"><defs><style>.cls-1{fill:none;stroke:#361d5c;stroke-linecap:round;stroke-linejoin:round;}</style></defs><line class="cls-1" x1="5" y1="95" x2="95" y2="95"/><polyline class="cls-1" points="12.94 45.31 12.94 95 87.06 95 87.06 45.31"/><rect class="cls-1" x="24.73" y="58.64" width="19.93" height="36.36"/><rect class="cls-1" x="58.7" y="54.63" width="15.02" height="22.23" transform="translate(131.95 -.46) rotate(90)"/><polygon class="cls-1" points="79.26 18.75 19.76 18.75 5 34.39 95 34.39 79.26 18.75"/><rect class="cls-1" x="18.74" y="5" width="61.51" height="13.75"/><path class="cls-1" d="m5,34.39h12.86v4.62c0,3.48-2.82,6.3-6.3,6.3h-.26c-3.48,0-6.3-2.82-6.3-6.3v-4.62h0Z"/><path class="cls-1" d="m82.14,34.39h12.86v4.62c0,3.48-2.82,6.3-6.3,6.3h-.26c-3.48,0-6.3-2.82-6.3-6.3v-4.62h0Z"/><path class="cls-1" d="m69.29,34.39h12.86v4.62c0,3.48-2.82,6.3-6.3,6.3h-.26c-3.48,0-6.3-2.82-6.3-6.3v-4.62h0Z"/><path class="cls-1" d="m56.43,34.39h12.86v4.62c0,3.48-2.82,6.3-6.3,6.3h-.26c-3.48,0-6.3-2.82-6.3-6.3v-4.62h0Z"/><path class="cls-1" d="m43.57,34.39h12.86v4.62c0,3.48-2.82,6.3-6.3,6.3h-.26c-3.48,0-6.3-2.82-6.3-6.3v-4.62h0Z"/><path class="cls-1" d="m30.71,34.39h12.86v4.62c0,3.48-2.82,6.3-6.3,6.3h-.26c-3.48,0-6.3-2.82-6.3-6.3v-4.62h0Z"/><path class="cls-1" d="m17.86,34.39h12.86v4.62c0,3.48-2.82,6.3-6.3,6.3h-.26c-3.48,0-6.3-2.82-6.3-6.3v-4.62h0Z"/></svg>