<?xml version="1.0" encoding="UTF-8"?><svg id="Layer_1" xmlns="http://www.w3.org/2000/svg" viewBox="0 0 100 100"><defs><style>.cls-1{fill:none;stroke:#361d5c;stroke-linecap:round;stroke-linejoin:round;}</style></defs><rect class="cls-1" x="5" y="87.57" width="90" height="7.43"/><polyline class="cls-1" points="38.64 73.65 38.64 87.57 61.37 87.57 61.37 73.65"/><path class="cls-1" d="m36.8,64h3.77v7.77c0,1.04-.85,1.89-1.89,1.89h0c-1.04,0-1.89-.85-1.89-1.89v-7.77h0Z"/><path class="cls-1" d="m40.57,64h3.77v7.77c0,1.04-.85,1.89-1.89,1.89h0c-1.04,0-1.89-.85-1.89-1.89v-7.77h0Z"/><path class="cls-1" d="m44.34,64h3.77v7.77c0,1.04-.85,1.89-1.89,1.89h0c-1.04,0-1.89-.85-1.89-1.89v-7.77h0Z"/><path class="cls-1" d="m48.11,64h3.77v7.77c0,1.04-.85,1.89-1.89,1.89h0c-1.04,0-1.89-.85-1.89-1.89v-7.77h0Z"/><path class="cls-1" d="m51.89,64h3.77v7.77c0,1.04-.85,1.89-1.89,1.89h0c-1.04,0-1.89-.85-1.89-1.89v-7.77h0Z"/><path class="cls-1" d="m55.66,64h3.77v7.77c0,1.04-.85,1.89-1.89,1.89h0c-1.04,0-1.89-.85-1.89-1.89v-7.77h0Z"/><path class="cls-1" d="m59.43,64h3.77v7.77c0,1.04-.85,1.89-1.89,1.89h0c-1.04,0-1.89-.85-1.89-1.89v-7.77h0Z"/><rect class="cls-1" x="36.8" y="60.3" width="26.41" height="3.7"/><g><polyline class="cls-1" points="50 73.65 50 87.57 42.46 87.57 42.46 73.65"/><polyline class="cls-1" points="57.55 73.65 57.55 87.57 50 87.57 50 73.65"/></g><rect class="cls-1" x="8.07" y="33.93" width="83.86" height="53.64"/><rect class="cls-1" x="5" y="29.96" width="90" height="3.97"/><rect class="cls-1" x="8.1" y="26.75" width="14.01" height="3.22"/><rect class="cls-1" x="77.89" y="26.75" width="14.01" height="3.22"/><path class="cls-1" d="m25.04,29.96c0-13.79,11.18-24.96,24.96-24.96s24.96,11.18,24.96,24.96"/><path class="cls-1" d="m31.14,29.96c0-10.42,8.45-18.87,18.87-18.87s18.87,8.45,18.87,18.87"/><line class="cls-1" x1="40.5" y1="13.66" x2="40.5" y2="29.96"/><line class="cls-1" x1="50" y1="11.1" x2="50" y2="29.96"/><line class="cls-1" x1="59.5" y1="13.66" x2="59.5" y2="29.96"/><line class="cls-1" x1="32.69" y1="22.46" x2="67.32" y2="22.46"/><g><rect class="cls-1" x="11.82" y="57.61" width="20.51" height="27.86"/><line class="cls-1" x1="22.08" y1="57.61" x2="22.08" y2="85.48"/><line class="cls-1" x1="11.82" y1="71.57" x2="32.33" y2="71.57"/></g><g><rect class="cls-1" x="67.67" y="57.61" width="20.51" height="27.86"/><line class="cls-1" x1="77.92" y1="57.61" x2="77.92" y2="85.48"/><line class="cls-1" x1="67.67" y1="71.57" x2="88.18" y2="71.57"/></g><g><polyline class="cls-1" points="38.97 38.67 42.4 38.67 44.78 49.12 55.18 49.12 57.57 40.99 42.93 40.99"/><g><circle class="cls-1" cx="46.68" cy="51.69" r="1.12"/><circle class="cls-1" cx="53.31" cy="51.69" r="1.12"/></g></g></svg>