<?xml version="1.0" encoding="UTF-8"?>
<svg width="1200pt" height="1200pt" version="1.1" viewBox="0 0 1200 1200" xmlns="http://www.w3.org/2000/svg">
 <path d="m956.18 722-213.64-294.36c14-11.453 26.727-24.727 37.816-39.637 29.453-39.09 45.09-85.816 45.09-135.09 0-124.55-101.27-225.64-225.64-225.64-124.36 0-225.45 101.27-225.45 225.64 0 49.273 15.637 96 45.09 134.91 11.09 14.91 23.816 28.184 37.816 39.637l-213.63 294.54c-120 4.9102-216.36 103.82-216.36 225.27 0 49.273 15.637 96 45.09 134.91 42.727 57.453 108.55 90.547 180.36 90.547 71.816 0 137.64-32.91 180.55-90.363 26-34.547 41.09-74.91 44.363-117.64h244.36c3.2734 42.91 18.363 83.273 44.363 117.64 42.727 57.453 108.55 90.547 180.36 90.547 71.816 0 137.64-32.91 180.55-90.363 29.453-39.09 45.09-85.816 45.09-135.09 0.36328-121.64-96-220.73-216.18-225.46zm-378-279.45c-2.3633-0.18359-4.5469-0.72656-6.9102-1.0898-4.7266-0.72656-9.4531-1.4531-14.184-2.5469-2.7266-0.54688-5.2734-1.4531-8-2.1836-4.1836-1.0898-8.3633-2.3633-12.363-3.6367-2.7266-0.91016-5.2734-2.1836-8-3.0898-3.8164-1.6367-7.8164-3.0898-11.453-4.9102-2.7266-1.2734-5.2734-2.7266-7.8164-4-3.6367-2-7.2734-4-10.727-6.1836-2.5469-1.6367-4.9102-3.2734-7.2734-4.9102-3.4531-2.3633-6.7266-4.7266-10-7.4531-2.3633-1.8164-4.5469-3.8164-6.9102-5.8164-3.0898-2.7266-6-5.6367-8.9102-8.5469-2.1836-2.1836-4.3633-4.3633-6.3633-6.7266-1.0898-1.2734-2.1836-2.5469-3.2734-3.8164 36-42 87.816-65.816 144.18-65.816 56.184 0 108 23.816 144.36 65.816-1.0898 1.2734-2.1836 2.5469-3.2734 3.8164-2.1836 2.3633-4.3633 4.7266-6.5469 6.9102-2.9102 2.9102-5.8164 5.6367-8.7266 8.1836-2.3633 2-4.7266 4.1836-7.2734 6-3.0898 2.5469-6.3633 4.9102-9.6367 7.0898-2.5469 1.8164-5.0898 3.4531-7.6367 5.0898-3.4531 2.1836-6.9102 4-10.363 6-2.7266 1.4531-5.2734 2.9102-8 4.1836-3.6367 1.8164-7.4531 3.2734-11.273 4.9102-2.7266 1.0898-5.4531 2.3633-8.1836 3.2734-4 1.4531-8.1836 2.5469-12.184 3.6367-2.7266 0.72656-5.4531 1.6367-8.1836 2.1836-4.5469 1.0898-9.2734 1.8164-14 2.5469-2.3633 0.36328-4.7266 0.91016-7.0898 1.0898-7.0898 0.72656-14.363 1.2734-21.816 1.2734-7.8125-0.007813-15.086-0.55078-22.176-1.2773zm21.816-165.82c-28.547 0-51.637-23.09-51.637-51.637 0-28.543 23.09-51.453 51.637-51.453s51.637 23.09 51.637 51.637c0 28.543-23.273 51.453-51.637 51.453zm-0.18359-214.73c105.27 0 191.09 85.637 191.09 191.09 0 34.184-8.9102 66.727-26 95.637-28.363-30.547-64-52-103.45-63.09 15.273-15.637 24.727-36.91 24.727-60.363 0-47.637-38.727-86.363-86.363-86.363-47.637 0-86.363 38.727-86.363 86.363 0 23.453 9.4531 44.727 24.727 60.363-39.453 11.09-75.09 32.547-103.27 63.09-16.723-28.91-25.816-61.453-25.816-95.637 0-105.45 85.637-191.09 190.73-191.09zm0 416.55c41.09 0 80.184-11.09 114.18-31.09l200.73 276.73c-103.45 14.91-184.36 100.18-192.36 205.82h-244.73c-8.1836-105.64-89.09-190.91-192.73-205.82l200.91-276.73c33.996 19.996 72.906 31.09 114 31.09zm-346.91 492.36c-28.547 0-51.637-23.09-51.637-51.637 0-28.547 23.09-51.637 51.637-51.637s51.637 23.09 51.637 51.637c0 28.543-23.273 51.637-51.637 51.637zm-0.18359 34.727c56.184 0 108 23.816 144.36 65.816-1.0898 1.2734-2.1836 2.5469-3.2734 3.8164-2.1836 2.3633-4.3633 4.7266-6.5469 6.9102-2.9102 2.9102-5.8164 5.6367-8.7266 8.1836-2.3633 2-4.7266 4.1836-7.2734 6-3.0898 2.5469-6.3633 4.9102-9.6367 7.0898-2.5469 1.8164-5.0898 3.4531-7.6367 5.0898-3.4531 2.1836-6.9102 4-10.363 6-2.7266 1.4531-5.2734 2.9102-8 4.1836-3.6367 1.8164-7.4531 3.2734-11.273 4.9102-2.7266 1.0898-5.4531 2.3633-8.1836 3.2734-4 1.4531-8.1836 2.5469-12.184 3.6367-2.7266 0.72656-5.4531 1.6367-8.1836 2.1836-4.5469 1.0898-9.2734 1.8164-14 2.5469-2.3633 0.36328-4.7266 0.91016-7.0898 1.0898-7.0898 0.72656-14.363 1.2734-21.816 1.2734-7.2734 0-14.547-0.36328-21.816-1.2734-2.3633-0.18359-4.5469-0.72656-6.9102-1.0898-4.7266-0.72656-9.4531-1.4531-14.184-2.5469-2.7266-0.54688-5.2734-1.4531-8-2.1836-4.1836-1.0898-8.3633-2.3633-12.363-3.6367-2.7266-0.91016-5.2734-2.1836-8-3.0898-3.8164-1.6367-7.8164-3.0898-11.453-4.9102-2.7266-1.2734-5.2734-2.7266-7.8164-4-3.6367-2-7.2734-4-10.727-6.1836-2.5469-1.6367-4.9102-3.2734-7.2734-4.9102-3.4531-2.3633-6.7266-4.7266-10-7.4531-2.543-1.8164-4.9062-3.6367-7.0859-5.6367-3.0898-2.7266-6-5.6367-8.9102-8.5469-2.1836-2.1836-4.3633-4.3633-6.3633-6.7266-1.0898-1.2734-2.1836-2.5469-3.2734-3.8164 36-42 87.82-66 144-66zm165.09 37.273c-28.363-30.547-64-52-103.45-63.09 15.273-15.637 24.727-36.91 24.727-60.363 0-47.637-38.727-86.363-86.363-86.363-47.637 0-86.363 38.727-86.363 86.363 0 23.453 9.4531 44.727 24.727 60.363-39.453 11.09-75.09 32.547-103.27 63.09-16.91-28.91-26-61.453-26-95.637 0-105.27 85.637-191.09 190.73-191.09 105.27 0 191.09 85.637 191.09 191.09 0.18359 34.18-8.9062 66.727-25.816 95.637zm529.27-72c-28.547 0-51.637-23.09-51.637-51.637 0-28.547 23.09-51.637 51.637-51.637s51.637 23.09 51.637 51.637c0 28.543-23.273 51.637-51.637 51.637zm-0.17969 34.727c56.184 0 108 23.816 144.36 65.816-1.0898 1.2734-2.1836 2.5469-3.2734 3.8164-2.1836 2.3633-4.3633 4.7266-6.5469 6.9102-2.9102 2.9102-5.8164 5.6367-8.7266 8.1836-2.3633 2-4.7266 4.1836-7.2734 6-3.0898 2.5469-6.3633 4.9102-9.6367 7.0898-2.5469 1.8164-5.0898 3.4531-7.6367 5.0898-3.4531 2.1836-6.9102 4-10.363 6-2.7266 1.4531-5.2734 2.9102-8 4.1836-3.6367 1.8164-7.4531 3.2734-11.273 4.9102-2.7266 1.0898-5.4531 2.3633-8.1836 3.2734-4 1.4531-8.1836 2.5469-12.184 3.6367-2.7266 0.72656-5.4531 1.6367-8.1836 2.1836-4.5469 1.0898-9.2734 1.8164-14 2.5469-2.3633 0.36328-4.7266 0.91016-7.0898 1.0898-7.0898 0.72656-14.363 1.2734-21.816 1.2734-7.2734 0-14.547-0.36328-21.816-1.2734-2.3633-0.18359-4.5469-0.72656-6.9102-1.0898-4.7266-0.72656-9.4531-1.4531-14.184-2.5469-2.7266-0.54688-5.2734-1.4531-8-2.1836-4.1836-1.0898-8.3633-2.3633-12.363-3.6367-2.7266-0.91016-5.2734-2.1836-8-3.0898-3.8164-1.6367-7.8164-3.0898-11.453-4.9102-2.7266-1.2734-5.2734-2.7266-7.8164-4-3.6367-2-7.2734-4-10.727-6.1836-2.5469-1.6367-4.9102-3.2734-7.2734-4.9102-3.4531-2.3633-6.7266-4.7266-10-7.4531-2.3633-1.8164-4.5469-3.8164-6.9102-5.8164-3.0898-2.7266-6-5.6367-8.9102-8.5469-2.1836-2.1836-4.3633-4.3633-6.3633-6.7266-1.0898-1.2734-2.1836-2.5469-3.2734-3.8164 35.824-41.82 87.641-65.82 143.82-65.82zm165.09 37.273c-28.363-30.547-64-52-103.45-63.09 15.273-15.637 24.727-36.91 24.727-60.363 0-47.637-38.727-86.363-86.363-86.363-47.637 0-86.363 38.727-86.363 86.363 0 23.453 9.4531 44.727 24.727 60.363-39.453 11.09-75.09 32.547-103.27 63.09-16.91-28.91-26-61.453-26-95.637 0-105.27 85.637-191.09 190.73-191.09 105.27 0 191.09 85.637 191.09 191.09 0.18359 34.18-8.9062 66.727-25.816 95.637z"/>
</svg>
