<?xml version="1.0" encoding="UTF-8"?><svg id="Layer_1" xmlns="http://www.w3.org/2000/svg" viewBox="0 0 100 100"><defs><style>.cls-1{fill:none;stroke:#361d5c;stroke-linecap:round;stroke-linejoin:round;}</style></defs><line class="cls-1" x1="93.68" y1="90.71" x2="6.32" y2="90.71"/><circle class="cls-1" cx="52.58" cy="18.12" r="1.08"/><circle class="cls-1" cx="61.16" cy="12.38" r="1.08"/><circle class="cls-1" cx="71.3" cy="10.36" r="1.08"/><circle class="cls-1" cx="81.42" cy="12.38" r="1.08"/><circle class="cls-1" cx="90.01" cy="18.12" r="1.08"/><line class="cls-1" x1="87.43" y1="20.7" x2="89.25" y2="18.88"/><line class="cls-1" x1="53.34" y1="18.88" x2="55.17" y2="20.7"/><line class="cls-1" x1="80.03" y1="15.75" x2="81.01" y2="13.37"/><line class="cls-1" x1="61.57" y1="13.37" x2="62.56" y2="15.75"/><line class="cls-1" x1="71.3" y1="11.44" x2="71.3" y2="14.02"/><path class="cls-1" d="m59.44,26.01s-15.43,17.04-17.07,18.76-7.65,7.42-13.76,7.42c-8.86,0-16.05-7.19-16.05-16.05s7.19-16.05,16.05-16.05c0,0,12.73-.21,21.88,15.7"/><path class="cls-1" d="m59.44,26.01c2.94-3.21,7.16-5.23,11.85-5.23,8.86,0,16.05,7.19,16.05,16.05v53.88"/><path class="cls-1" d="m59.37,26.09c2.94-3.26,7.19-5.31,11.92-5.31,6.88,0,12.75,4.33,15.03,10.42h0l5.1-5.1s-.05-.1-.07-.14c-3.86-7.11-11.4-11.94-20.06-11.94s-16.2,4.83-20.06,11.94c-.03.05-.05.1-.07.14l4.28,4.28,3.93-4.3Z"/><line class="cls-1" x1="12.57" y1="36.13" x2="12.57" y2="90.71"/><line class="cls-1" x1="23.25" y1="51.26" x2="23.25" y2="90.71"/><line class="cls-1" x1="33.94" y1="50.92" x2="33.94" y2="90.71"/><line class="cls-1" x1="28.6" y1="20.08" x2="28.6" y2="52.18"/><line class="cls-1" x1="17.91" y1="24.18" x2="17.91" y2="48.09"/><line class="cls-1" x1="39.28" y1="23.64" x2="39.28" y2="47.58"/><line class="cls-1" x1="44.62" y1="42.34" x2="44.62" y2="90.71"/><line class="cls-1" x1="55.3" y1="30.54" x2="55.3" y2="90.71"/><line class="cls-1" x1="65.98" y1="21.7" x2="65.98" y2="90.71"/><line class="cls-1" x1="76.67" y1="21.7" x2="76.67" y2="90.71"/><line class="cls-1" x1="62" y1="14.39" x2="57.7" y2="14.39"/><line class="cls-1" x1="80.74" y1="14.02" x2="79.48" y2="9.63"/></svg>