<?xml version="1.0" encoding="UTF-8"?><svg id="a" xmlns="http://www.w3.org/2000/svg" xmlns:xlink="http://www.w3.org/1999/xlink" viewBox="0 0 557.09 132.17"><defs><style>.h{fill:url(#e);}.i{fill:url(#d);}.j{fill:url(#g);}.k{fill:url(#f);}.l{fill:url(#c);}.m{fill:url(#b);}.n{fill:none;}.o{fill:#252d2f;}.p{fill:#95d5e7;opacity:.8;}</style><linearGradient id="b" x1="-7.98" y1="66.33" x2="50.33" y2="8.02" gradientTransform="matrix(1, 0, 0, 1, 0, 0)" gradientUnits="userSpaceOnUse"><stop offset="0" stop-color="#0e223e"/><stop offset="1" stop-color="#144660"/></linearGradient><linearGradient id="c" x1="50.87" y1="54.13" x2="84.79" y2="20.21" gradientTransform="matrix(1, 0, 0, 1, 0, 0)" gradientUnits="userSpaceOnUse"><stop offset="0" stop-color="#144660"/><stop offset=".65" stop-color="#1f5f6e"/><stop offset="1" stop-color="#267077"/></linearGradient><linearGradient id="d" x1="72.84" y1="90.47" x2="16.16" y2="33.8" gradientTransform="matrix(1, 0, 0, 1, 0, 0)" gradientUnits="userSpaceOnUse"><stop offset="0" stop-color="#153058"/><stop offset=".66" stop-color="#18496e"/><stop offset="1" stop-color="#1b597b"/></linearGradient><linearGradient id="e" x1="72.6" y1="64.21" x2="16.4" y2="8.02" xlink:href="#d"/><linearGradient id="f" x1="52.28" y1="92.22" x2="-7.76" y2="32.18" gradientTransform="matrix(1, 0, 0, 1, 0, 0)" gradientUnits="userSpaceOnUse"><stop offset="0" stop-color="#1b597b"/><stop offset=".6" stop-color="#267286"/><stop offset="1" stop-color="#2f8790"/></linearGradient><linearGradient id="g" x1="83.92" y1="79.38" x2="49.56" y2="45.02" xlink:href="#d"/></defs><g><path class="o" d="M370.01,109.04h5.76v2.56h-5.76v20.02h-3.02v-20.02h-3.55v-2.56h3.55v-2.79c0-4.23,2.79-6.79,6.7-6.79,1.17,0,2.12,.18,2.88,.58v2.66c-.72-.32-1.53-.54-2.47-.54-2.34,0-4.09,1.3-4.09,4.18v2.7Z"/><path class="o" d="M401.33,120.29c0,6.61-4.9,11.88-11.56,11.88s-11.61-5.26-11.61-11.88,4.95-11.83,11.61-11.83,11.56,5.26,11.56,11.83Zm-20.07,0c0,4.9,3.51,9,8.5,9s8.46-4.09,8.46-9-3.51-8.95-8.46-8.95-8.5,4.09-8.5,8.95Z"/><path class="o" d="M410.42,113.54c1.22-3.42,3.87-5.08,6.93-5.08,.45,0,.94,.04,1.26,.13v2.97c-.27-.04-.67-.09-.94-.09-4.27,0-7.15,3.19-7.15,8.5v11.65h-3.02v-22.63h2.92v4.54Z"/><path class="o" d="M437.29,100v13.23c1.35-2.65,4.09-4.77,7.96-4.77,5.08,0,8.55,3.73,8.55,9.22v13.95h-3.02v-13.81c0-4.05-2.52-6.57-6.12-6.57-4.77,0-7.38,4.09-7.38,8.28v12.1h-3.01v-31.63h3.01Z"/><path class="o" d="M482.78,120.29c0,6.61-4.9,11.88-11.56,11.88s-11.61-5.26-11.61-11.88,4.95-11.83,11.61-11.83,11.56,5.26,11.56,11.83Zm-20.07,0c0,4.9,3.51,9,8.5,9s8.46-4.09,8.46-9-3.51-8.95-8.46-8.95-8.5,4.09-8.5,8.95Z"/><path class="o" d="M499.48,131.54c-.77,.36-1.89,.63-3.29,.63-3.87,0-6.52-2.43-6.52-6.75v-13.81h-3.56v-2.56h3.6v-5.67l2.97-.94v6.61h5.85v2.56h-5.85v13.5c0,2.88,1.58,4.27,4.05,4.27,.72,0,1.8-.13,2.75-.63v2.79Z"/><path class="o" d="M524.32,118.9c0,.72-.09,1.53-.18,2.02h-18c.27,5.44,4.05,8.46,8.86,8.46,2.83,0,5.9-.99,7.87-2.7v3.19c-2.56,1.8-5.53,2.29-8.28,2.29-7.11,0-11.65-5.17-11.65-11.88s4.63-11.83,11.2-11.83c6.17,0,10.17,4.59,10.17,10.44Zm-18.09-.5h15.07c-.18-4.41-3.24-7.2-7.24-7.2s-7.29,2.97-7.83,7.2Z"/><path class="o" d="M530.26,100h3.02v26.64c0,1.66,.63,2.74,2.29,2.74,.45,0,.9-.04,1.44-.23v2.75c-.5,.18-1.12,.27-1.75,.27-2.83,0-5-1.48-5-5.08v-27.09Z"/><path class="o" d="M555.95,110.53v3.15c-1.98-1.58-4.09-2.48-6.57-2.48-3.15,0-4.99,1.53-4.99,3.55,0,2.16,2.02,3.06,5.4,4.14,3.73,1.12,7.29,2.43,7.29,6.61s-3.19,6.66-8.05,6.66c-2.79,0-5.62-.9-7.83-2.65v-3.38c2.21,2.07,4.72,3.28,7.65,3.28,3.33,0,5.31-1.62,5.31-3.87s-2.16-3.19-5.67-4.27c-3.64-1.17-7.06-2.48-7.06-6.34s3.19-6.48,7.87-6.48c2.48,0,4.95,.76,6.66,2.07Z"/></g><g><polygon class="p" points="42.31 23.42 0 47.81 0 49.96 42.31 25.57 42.31 23.42"/><polygon class="p" points="46.69 23.42 46.69 25.57 89 49.96 89 47.81 46.69 23.42"/><path class="m" d="M0,74.31l37.45-21.62,4.87-2.74V25.57L0,49.96v24.35ZM0,24.43v23.38L42.31,23.42V0L0,24.43Z"/><path class="l" d="M46.69,49.95l42.32,24.36v-24.35L46.69,25.57v24.38ZM46.69,0V23.42l42.32,24.39V24.43L46.69,0Z"/><path class="n" d="M48.71,47.62s-4.16,2.44-4.21,2.46l-2.51-1.48-4.54-2.55L0,24.43v49.88l44.5,25.69,44.5-25.69V24.43l-40.29,23.19Z"/><g><polygon class="i" points="44.5 75.62 44.25 75.47 0 49.96 0 74.31 44.5 100 89 74.31 89 49.96 44.5 75.62 44.5 75.62"/><path class="h" d="M48.71,47.62s-4.16,2.44-4.21,2.46l-2.51-1.48-4.54-2.55L0,24.43v23.38l44.5,25.65h0l44.5-25.65V24.43l-40.29,23.19Z"/></g><polygon class="p" points="44.5 73.46 0 47.81 0 49.96 44.5 75.62 89 49.96 89 47.81 44.5 73.46"/><path class="k" d="M41.99,48.6l-4.54-2.55L0,24.43v23.38l44.5,25.65v-23.38l-2.51-1.48ZM0,49.96v24.34l44.5,25.69v-24.38l-.25-.14L0,49.96Z"/><path class="j" d="M48.71,47.62s-4.16,2.44-4.21,2.46v23.38h0l44.5-25.65V24.43l-40.29,23.19Zm-4.21,28v24.38l44.5-25.69v-24.34l-44.5,25.65h0Z"/></g><g><path class="o" d="M143.14,18.73h8.71v54.21h27.37v7.92h-36.08V18.73Z"/><path class="o" d="M221.98,21.63v9.06c-4.31-2.99-10.03-4.84-15.05-4.84-6.34,0-11.53,2.9-11.53,8.45,0,5.02,4.14,7.48,12.32,10.91,9.24,3.96,17.6,7.74,17.6,18.39,0,11.18-9.06,18.22-21.65,18.22-7.13,0-13.64-2.29-17.78-5.19v-9.86c4.49,3.87,11.09,6.86,17.42,6.86,6.86,0,12.58-3.61,12.58-9.68,0-5.46-4.75-7.83-13.64-11.7-8.1-3.43-16.1-7.3-16.1-17.42s8.62-17.16,20.5-17.16c5.98,0,11.44,1.67,15.31,3.96Z"/><path class="o" d="M302.06,77.33c-4.14,2.99-9.94,4.58-16.81,4.58-18.48,0-32.38-13.64-32.38-32.03s14.26-33,33-33c5.9,0,11.35,1.32,15.49,3.7v15.22c-3.87-2.82-8.98-4.49-14.08-4.49-10.91,0-18.39,7.39-18.39,18.13s7.66,17.86,18.04,17.86c5.37,0,10.91-1.85,15.14-5.1v15.14Z"/><path class="o" d="M351.69,56.3c0,1.67-.18,4.05-.44,5.19h-28.6c.88,5.63,6.25,7.74,12.14,7.74,5.46,0,11.09-1.85,13.64-3.7v13.38c-3.87,2.02-9.94,2.99-15.58,2.99-14.78,0-25.87-8.27-25.87-23.67,0-13.38,9.77-23.67,23.14-23.67s21.56,9.94,21.56,21.74Zm-29.21-2.99h15.05c-.44-3.87-3.08-6.6-7.48-6.6s-6.95,2.73-7.57,6.6Z"/><path class="o" d="M386.89,34.56c10.91,0,17.78,6.95,17.78,18.74v27.54h-15.31v-24.82c0-5.46-2.82-8.1-7.04-8.1-5.28,0-7.66,4.31-7.66,9.06v23.85h-15.31V35.62h14.61v5.28c2.55-3.87,6.95-6.34,12.94-6.34Z"/><path class="o" d="M442.95,79.88c-2.02,1.06-5.46,2.02-9.94,2.02-9.94,0-16.37-5.9-16.37-16.46v-18.04h-5.72v-11.79h6.16v-9.86l14.87-3.26v13.11h9.94v11.79h-9.94v15.58c0,3.96,2.46,5.54,5.81,5.54,1.67,0,3.7-.53,5.19-1.5v12.85Z"/><path class="o" d="M465.65,43.28c2.46-5.54,6.6-8.71,12.76-8.71,1.06,0,2.29,.18,2.82,.35v14.7c-.44-.09-1.94-.44-3.34-.44-8.27,0-12.14,5.37-12.14,14.43v17.25h-15.31V35.62h15.22v7.66Z"/><path class="o" d="M503.93,34.56c11.53,0,21.56,5.63,21.56,18.48v27.81h-14.26v-5.37c-2.29,3.61-6.69,6.42-12.32,6.42-8.54,0-14.7-5.37-14.7-12.67s5.63-12.58,15.58-14.08l10.91-1.5v-.7c0-3.43-3.26-5.37-8.1-5.37-6.07,0-11.7,2.38-15.05,4.75v-13.73c4.14-2.46,10.3-4.05,16.37-4.05Zm6.86,28.33v-.88l-7.13,.97c-3.34,.44-5.28,1.94-5.28,4.22s1.76,3.7,4.58,3.7c3.96,0,7.83-3.26,7.83-8.01Z"/><path class="o" d="M534.99,18.02h15.31v46.46c0,2.82,.97,4.31,3.78,4.31,1.06,0,2.11-.18,2.99-.53v12.5c-1.67,.7-4.14,1.14-7.04,1.14-9.15,0-15.05-4.84-15.05-14.61V18.02Z"/></g></svg>