<?xml version="1.0" encoding="utf-8"?>
<!-- Generator: Adobe Illustrator 26.2.1, SVG Export Plug-In . SVG Version: 6.00 Build 0)  -->
<svg version="1.1" id="a" xmlns="http://www.w3.org/2000/svg" xmlns:xlink="http://www.w3.org/1999/xlink" x="0px" y="0px"
	 viewBox="0 0 477.2 127.1" style="enable-background:new 0 0 477.2 127.1;" xml:space="preserve">
<style type="text/css">
	.st0{fill:#361D5C;}
	.st1{fill:#A7A8AA;}
	.st2{fill:#005A96;}
	.st3{fill:#C4D82E;}
</style>
<g>
	<g>
		<path class="st0" d="M160.4,20.3h12.3v39h18.8v10.9h-31.1V20.3z"/>
		<path class="st0" d="M227.1,22.9v11.7c-3.3-2.5-8.3-4.2-12.9-4.2c-4.1,0-6.6,1.3-6.6,3.8s2.4,3.6,7.2,5.3
			c6.9,2.7,15.3,5.7,15.3,15.6c0,9.3-7.1,15.8-19.2,15.8c-6.1,0-11.9-1.8-15.4-4.3V54.3c3.6,3.3,9,5.8,14.5,5.8
			c4.5,0,7.2-1.8,7.2-4.5c0-3-3.4-4.3-8.4-6.2c-5.7-2.2-13.5-5.5-13.5-14.7c0-8.7,6.8-15.1,18.5-15.1
			C218.9,19.6,223.7,20.8,227.1,22.9L227.1,22.9z"/>
		<path class="st0" d="M253.6,20.3h20.6c10.6,0,17.6,6.9,17.6,16.4c0,6.1-3.9,11.7-9.9,13.9l12.9,19.6h-13.8l-10.8-17.2h-4.5v17.2
			h-12.3L253.6,20.3L253.6,20.3z M272.9,43c3.8,0,6.4-2.7,6.4-6.1s-2.5-6.1-6.4-6.1h-7V43H272.9z"/>
		<path class="st0" d="M330.7,50.8c0,1.3-0.1,3.2-0.4,4.1h-22.7c0.7,4.5,5,6.1,9.6,6.1c4.3,0,8.8-1.5,10.8-2.9v10.6
			c-3.1,1.6-7.9,2.4-12.4,2.4c-11.7,0-20.5-6.6-20.5-18.8c0-10.6,7.8-18.8,18.4-18.8S330.7,41.4,330.7,50.8L330.7,50.8z M307.5,48.4
			h11.9c-0.4-3.1-2.4-5.2-5.9-5.2S308,45.3,307.5,48.4z"/>
		<path class="st0" d="M359.4,69.5c-1.6,0.8-4.3,1.6-7.9,1.6c-7.9,0-13-4.7-13-13.1V43.7H334v-9.3h4.9v-7.8l11.8-2.6v10.4h7.9v9.3
			h-7.9v12.3c0,3.1,2,4.4,4.6,4.4c1.3,0,2.9-0.4,4.1-1.2L359.4,69.5L359.4,69.5z"/>
		<path class="st0" d="M378.7,33.5c9.1,0,17.1,4.5,17.1,14.7v22h-11.3V66c-1.8,2.9-5.3,5.1-9.8,5.1c-6.8,0-11.6-4.3-11.6-10.1
			s4.5-10,12.4-11.2l8.6-1.2v-0.6c0-2.7-2.6-4.3-6.4-4.3c-4.8,0-9.3,1.9-11.9,3.8V36.7C369,34.8,373.9,33.5,378.7,33.5L378.7,33.5z
			 M384.2,56v-0.7l-5.6,0.8c-2.6,0.3-4.2,1.5-4.2,3.3s1.4,2.9,3.6,2.9C381.1,62.4,384.2,59.8,384.2,56z"/>
		<path class="st0" d="M416.3,24.3c0,3.6-2.8,6.3-6.6,6.3s-6.5-2.7-6.5-6.3s2.8-6.3,6.5-6.3S416.3,20.7,416.3,24.3z M403.6,34.4
			h12.1v35.9h-12.1C403.6,70.2,403.6,34.4,403.6,34.4z"/>
		<path class="st0" d="M423.8,20.4h12.1v36.8c0,2.2,0.8,3.4,3,3.4c0.8,0,1.7-0.1,2.4-0.4v9.9c-1.3,0.6-3.3,0.9-5.6,0.9
			c-7.3,0-11.9-3.8-11.9-11.6L423.8,20.4L423.8,20.4z"/>
	</g>
	<g>
		<path class="st0" d="M103.7,30.7c-6.1,0-10.2,1.9-10.2,8.2c0,3.4,1.8,6,10.2,6.4c5.1,0.2,9.3,1,12.8,3.4c4.3,2.9,6.1,7.8,6.2,12.3
			c0.1,5.9-2.5,13.3-13,16.8c-5.9,2-12.8,2.2-19.9,2.2c-0.9,0-1.7-0.1-2.6-0.1c-7.1,0-12-1.3-12-1.3c-4.8-1-11.2-3.1-15.1-8.1
			c-6.3-8.1-6.5-19.2-6.3-25.1c0-1.4,0.1-2.8,0.3-4.2c1-9.8,4.6-21,9.8-29.8c-13.5,8.3-22.5,23.3-22.5,40.3
			c0,26.1,21.2,47.3,47.3,47.3S136,77.9,136,51.8c0-3.5-0.4-6.9-1.1-10.2C134.4,41.3,119.1,30.7,103.7,30.7L103.7,30.7z"/>
		<path class="st0" d="M69.5,15.8c-2.9,7.3-4.9,14-6,21.8C62.4,46,63,52,63.7,54.6c3.3,12.2,8.1,15.3,26.1,15.3s22.9-2.3,22.9-9.3
			c0-1.9-1.4-5.9-10.9-6c-6,0-19.2-1.8-18.3-17c0.5-9.2,7.9-15.4,16.5-15.3c18.8,0.1,31,10.4,32.4,11.5c-7.1-17.2-24-29.4-43.8-29.4
			c-5.1,0-9.9,0.8-14.5,2.3C73.7,7.3,71.7,10.2,69.5,15.8L69.5,15.8z"/>
	</g>
</g>
<g>
	<g>
		<path class="st1" d="M312.4,114.5c0.5,0,1-0.1,1.5-0.2c0.5-0.2,0.9-0.4,1.3-0.7s0.7-0.6,0.9-1.1c0.2-0.4,0.4-0.9,0.4-1.3h2.8
			c0,0.8-0.2,1.5-0.6,2.2c-0.4,0.7-0.9,1.3-1.5,1.8c-0.6,0.5-1.3,0.9-2.1,1.2s-1.7,0.5-2.6,0.5c-1.3,0-2.4-0.2-3.4-0.7
			s-1.8-1.1-2.4-1.9s-1.1-1.7-1.4-2.7c-0.3-1-0.5-2.1-0.5-3.3v-0.7c0-1.1,0.2-2.2,0.5-3.3s0.8-1.9,1.4-2.7s1.4-1.4,2.4-1.9
			s2.1-0.7,3.4-0.7c1,0,1.9,0.2,2.7,0.5c0.8,0.3,1.5,0.8,2.1,1.3s1.1,1.2,1.4,2s0.5,1.6,0.6,2.5h-2.8c0-0.5-0.2-1-0.4-1.5
			c-0.2-0.5-0.5-0.9-0.8-1.2s-0.8-0.6-1.2-0.8s-1-0.3-1.6-0.3c-0.9,0-1.7,0.2-2.3,0.5s-1.1,0.8-1.4,1.4s-0.6,1.2-0.8,2
			s-0.2,1.5-0.2,2.2v0.7c0,0.8,0.1,1.5,0.2,2.2c0.1,0.7,0.4,1.4,0.8,2c0.4,0.6,0.8,1.1,1.4,1.4S311.5,114.5,312.4,114.5L312.4,114.5
			z"/>
		<path class="st1" d="M321.7,107.8c0-1.2,0.2-2.4,0.5-3.5c0.4-1.1,0.9-2,1.5-2.8c0.7-0.8,1.5-1.4,2.5-1.8s2-0.7,3.2-0.7
			s2.3,0.2,3.3,0.7s1.8,1.1,2.5,1.8c0.7,0.8,1.2,1.7,1.5,2.8s0.5,2.2,0.5,3.5v0.4c0,1.2-0.2,2.4-0.5,3.5c-0.4,1.1-0.9,2-1.5,2.8
			c-0.7,0.8-1.5,1.4-2.5,1.8s-2,0.7-3.2,0.7s-2.3-0.2-3.2-0.7s-1.8-1.1-2.5-1.8c-0.7-0.8-1.2-1.7-1.6-2.8c-0.4-1.1-0.5-2.2-0.5-3.5
			L321.7,107.8L321.7,107.8z M324.7,108.2c0,0.9,0.1,1.7,0.3,2.4c0.2,0.8,0.5,1.4,0.9,2c0.4,0.6,0.9,1,1.5,1.4s1.3,0.5,2.1,0.5
			s1.5-0.2,2.1-0.5s1.1-0.8,1.5-1.4s0.7-1.2,0.9-2s0.3-1.6,0.3-2.4v-0.4c0-0.9-0.1-1.6-0.3-2.4s-0.5-1.4-0.9-2s-0.9-1-1.5-1.4
			c-0.6-0.3-1.3-0.5-2.1-0.5s-1.5,0.2-2.1,0.5s-1.1,0.8-1.5,1.4s-0.7,1.2-0.9,2c-0.2,0.8-0.3,1.6-0.3,2.4L324.7,108.2L324.7,108.2z"
			/>
		<path class="st1" d="M343.8,99.4l0.1,1.9c0.6-0.7,1.3-1.2,2.1-1.6s1.8-0.6,2.9-0.6s2.1,0.2,2.9,0.7s1.5,1.1,2,2.1
			c0.6-0.8,1.3-1.5,2.2-2s2-0.8,3.2-0.8c0.9,0,1.7,0.1,2.4,0.4s1.3,0.6,1.8,1.1s0.9,1.1,1.1,1.9s0.4,1.7,0.4,2.8v11.3h-2.9v-11.3
			c0-0.7-0.1-1.3-0.3-1.8s-0.4-0.9-0.7-1.1c-0.3-0.3-0.7-0.5-1.2-0.6s-1-0.2-1.5-0.2c-0.6,0-1.1,0.1-1.6,0.3s-0.9,0.4-1.2,0.8
			c-0.3,0.3-0.6,0.7-0.8,1.1s-0.3,0.9-0.4,1.4v11.4h-3v-11.3c0-0.7-0.1-1.2-0.3-1.7s-0.4-0.9-0.7-1.1c-0.3-0.3-0.7-0.5-1.1-0.6
			s-1-0.2-1.5-0.2c-1,0-1.9,0.2-2.5,0.7c-0.6,0.4-1.1,1.1-1.4,1.8v12.5H341V99.4L343.8,99.4L343.8,99.4z"/>
		<path class="st1" d="M383.9,108.2c0,1.3-0.1,2.4-0.4,3.5c-0.3,1.1-0.7,2-1.3,2.8s-1.3,1.4-2.1,1.8c-0.8,0.4-1.8,0.6-2.8,0.6
			s-2-0.2-2.8-0.5s-1.5-0.8-2.1-1.5v8.2h-2.9V99.4h2.7l0.1,1.9c0.6-0.7,1.3-1.3,2.1-1.6s1.8-0.6,2.9-0.6s2,0.2,2.9,0.6
			s1.5,1,2.1,1.8s1,1.7,1.3,2.8c0.3,1.1,0.4,2.3,0.4,3.6L383.9,108.2L383.9,108.2z M381,107.8c0-0.9-0.1-1.7-0.3-2.4
			c-0.2-0.8-0.5-1.4-0.8-2s-0.9-1-1.4-1.4s-1.3-0.5-2.1-0.5c-0.5,0-1,0.1-1.4,0.2s-0.8,0.3-1.1,0.5c-0.3,0.2-0.6,0.5-0.9,0.8
			s-0.5,0.6-0.7,0.9v8.2c0.2,0.3,0.4,0.6,0.7,0.9s0.5,0.5,0.9,0.7c0.3,0.2,0.7,0.4,1.1,0.5s0.9,0.2,1.4,0.2c0.8,0,1.5-0.2,2-0.5
			c0.6-0.3,1-0.8,1.4-1.4s0.7-1.2,0.8-2c0.2-0.8,0.3-1.6,0.3-2.4L381,107.8L381,107.8z"/>
		<path class="st1" d="M398.2,116.6c-0.1-0.2-0.2-0.5-0.2-0.8s-0.1-0.7-0.2-1c-0.3,0.3-0.6,0.6-0.9,0.8s-0.7,0.5-1.1,0.7
			s-0.9,0.4-1.3,0.5c-0.5,0.1-1,0.2-1.5,0.2c-0.9,0-1.7-0.1-2.4-0.4s-1.3-0.6-1.8-1.1s-0.9-1-1.2-1.6s-0.4-1.3-0.4-2
			c0-0.9,0.2-1.7,0.5-2.4c0.4-0.7,0.9-1.3,1.5-1.8s1.5-0.8,2.4-1.1s2-0.4,3.2-0.4h2.9v-1.4c0-1-0.3-1.8-0.9-2.4
			c-0.6-0.6-1.5-0.9-2.7-0.9c-0.5,0-1,0.1-1.5,0.2s-0.8,0.4-1.2,0.6s-0.6,0.5-0.8,0.9s-0.3,0.7-0.3,1h-3c0-0.6,0.2-1.2,0.5-1.8
			s0.8-1.1,1.4-1.6s1.3-0.9,2.1-1.2s1.8-0.4,2.8-0.4c0.9,0,1.8,0.1,2.6,0.4c0.8,0.2,1.5,0.6,2,1.1s1,1.1,1.3,1.8s0.5,1.6,0.5,2.5v8
			c0,0.6,0,1.2,0.1,1.8s0.2,1.2,0.5,1.7v0.2L398.2,116.6L398.2,116.6z M393.4,114.3c0.5,0,1-0.1,1.5-0.2c0.5-0.1,0.9-0.3,1.3-0.6
			s0.7-0.5,1-0.8c0.3-0.3,0.5-0.6,0.7-0.9v-3.5h-2.4c-1.7,0-3,0.3-3.9,0.8s-1.4,1.3-1.4,2.4c0,0.4,0.1,0.8,0.2,1.2
			c0.1,0.4,0.4,0.7,0.6,0.9s0.6,0.5,1,0.6S392.9,114.3,393.4,114.3L393.4,114.3z"/>
		<path class="st1" d="M408.1,99.4l0.1,2.1c0.6-0.8,1.4-1.4,2.2-1.8c0.9-0.4,1.8-0.7,2.9-0.7c0.8,0,1.6,0.1,2.3,0.3s1.2,0.6,1.7,1.1
			s0.8,1.1,1.1,1.9s0.4,1.7,0.4,2.9v11.2h-2.9v-11.3c0-0.7-0.1-1.2-0.2-1.7s-0.4-0.9-0.7-1.1c-0.3-0.3-0.6-0.5-1.1-0.6
			s-0.9-0.2-1.5-0.2c-1,0-1.8,0.2-2.5,0.8s-1.3,1.2-1.7,2v12.2h-2.9V99.4L408.1,99.4L408.1,99.4z"/>
		<g>
			<path class="st1" d="M171.5,116.6c-0.1-0.2-0.2-0.5-0.2-0.8s-0.1-0.7-0.2-1c-0.3,0.3-0.6,0.6-0.9,0.8s-0.7,0.5-1.1,0.7
				s-0.9,0.4-1.3,0.5c-0.5,0.1-1,0.2-1.5,0.2c-0.9,0-1.7-0.1-2.4-0.4s-1.3-0.6-1.8-1.1s-0.9-1-1.2-1.6s-0.4-1.3-0.4-2
				c0-0.9,0.2-1.7,0.5-2.4s0.9-1.3,1.5-1.8s1.5-0.8,2.4-1.1s2-0.4,3.2-0.4h2.9v-1.4c0-1-0.3-1.8-0.9-2.4s-1.5-0.9-2.7-0.9
				c-0.6,0-1.1,0.1-1.5,0.2s-0.8,0.4-1.2,0.6s-0.6,0.5-0.8,0.9s-0.3,0.7-0.3,1h-2.9c0-0.6,0.2-1.2,0.5-1.8c0.3-0.6,0.8-1.1,1.4-1.6
				s1.3-0.9,2.1-1.2s1.8-0.4,2.8-0.4c0.9,0,1.8,0.1,2.6,0.4s1.5,0.6,2,1.1s1,1.1,1.3,1.8c0.3,0.7,0.5,1.6,0.5,2.5v8
				c0,0.6,0.1,1.2,0.1,1.8c0.1,0.6,0.2,1.2,0.4,1.7v0.2L171.5,116.6L171.5,116.6z M166.6,114.3c0.5,0,1-0.1,1.5-0.2
				c0.5-0.1,0.9-0.3,1.3-0.6s0.7-0.5,1-0.8s0.5-0.6,0.7-0.9v-3.5h-2.4c-1.7,0-3,0.3-3.9,0.8s-1.4,1.3-1.4,2.4c0,0.4,0.1,0.8,0.2,1.2
				s0.4,0.7,0.6,0.9s0.6,0.5,1,0.6S166.1,114.3,166.6,114.3L166.6,114.3z"/>
			<path class="st1" d="M181.4,99.4l0.1,2.1c0.6-0.8,1.4-1.4,2.2-1.8c0.9-0.4,1.8-0.7,2.9-0.7c0.8,0,1.6,0.1,2.3,0.3
				s1.2,0.6,1.7,1.1s0.8,1.1,1.1,1.9c0.3,0.8,0.4,1.7,0.4,2.9v11.2h-2.9v-11.3c0-0.7-0.1-1.2-0.2-1.7s-0.4-0.9-0.7-1.1
				s-0.6-0.5-1.1-0.6s-0.9-0.2-1.5-0.2c-0.9,0-1.8,0.2-2.5,0.8c-0.7,0.5-1.3,1.2-1.7,2v12.2h-2.9V99.4L181.4,99.4L181.4,99.4z"/>
		</g>
		<path class="st1" d="M428.8,112.3l4-12.9h3.1l-6.9,19.8c-0.2,0.4-0.4,0.9-0.6,1.4c-0.2,0.5-0.6,1-1,1.4s-0.9,0.8-1.5,1.1
			s-1.2,0.4-2,0.4c-0.1,0-0.2,0-0.4,0s-0.3-0.1-0.5-0.1s-0.3-0.1-0.4-0.1s-0.2-0.1-0.3-0.1v-2.4c0,0,0.1,0,0.2,0s0.1,0,0.2,0
			s0.1,0,0.2,0s0.1,0,0.2,0c0.5,0,0.9-0.1,1.3-0.1s0.7-0.2,1-0.5s0.5-0.5,0.8-0.9s0.4-0.8,0.6-1.3l0.6-1.7l-6.1-16.9h3.2
			L428.8,112.3L428.8,112.3z"/>
	</g>
	<g>
		<g>
			<path class="st2" d="M216.9,111.8c-0.4,0.5-1,1-1.7,1.5c-0.7,0.5-1.6,0.7-2.5,0.7c-1.1,0-2-0.3-2.5-0.8c-0.5-0.5-0.8-1.2-0.8-2
				c0-0.8,0.3-1.4,0.9-1.8c0.6-0.5,1.5-0.7,2.6-0.7c1,0,1.8,0.1,2.4,0.2c0.6,0.1,1.1,0.3,1.5,0.5L216.9,111.8L216.9,111.8z
				 M219,99.4c-1.3-1.1-3.1-1.6-5.2-1.6c-1.4,0-2.6,0.1-3.6,0.4c-1,0.3-2,0.7-2.9,1.3c-0.1,0.1-0.2,0.2-0.1,0.4l1.4,2.8
				c0,0.1,0.1,0.1,0.2,0.1c0,0,0.1,0,0.1,0c0.1,0,0.1,0,0.1,0c0.7-0.4,1.4-0.7,2.2-0.9c0.7-0.2,1.6-0.3,2.5-0.3
				c1.1,0,1.9,0.2,2.4,0.8c0.5,0.5,0.8,1.2,0.8,2.1v1c-1-0.4-2.3-0.6-3.9-0.6c-1.1,0-2.1,0.1-3,0.4s-1.8,0.6-2.4,1.2
				c-0.7,0.5-1.2,1.2-1.6,2s-0.6,1.8-0.6,2.9c0,1.2,0.2,2.2,0.6,3.1c0.4,0.9,0.9,1.5,1.6,2.1c0.6,0.5,1.4,0.9,2.2,1.1
				c0.8,0.2,1.6,0.4,2.4,0.4c1.1,0,2.1-0.2,3-0.7c0.7-0.3,1.3-0.7,1.9-1.2v1.2c0,0.2,0.1,0.3,0.3,0.3h3.6c0.2,0,0.3-0.1,0.3-0.3
				v-12.9C221.1,102.1,220.4,100.4,219,99.4"/>
			<path class="st2" d="M236.6,112.5c-0.6,0.9-1.5,1.4-2.8,1.4c-0.4,0-0.9-0.1-1.2-0.2c-0.4-0.1-0.8-0.3-1.1-0.6
				c-0.4-0.2-0.7-0.5-1-0.8c-0.3-0.2-0.5-0.5-0.7-0.7V104c0.4-0.6,1-1.1,1.7-1.5c0.7-0.4,1.4-0.7,2.2-0.7c1.2,0,2.2,0.5,2.9,1.5
				c0.7,1,1,2.7,1,5C237.6,110.2,237.2,111.6,236.6,112.5 M239.7,100.2c-0.7-0.8-1.5-1.5-2.4-1.9c-0.9-0.4-1.9-0.6-2.9-0.6
				s-2,0.2-2.8,0.7c-0.6,0.3-1.2,0.7-1.8,1.2v-1.2c0-0.2-0.1-0.3-0.3-0.3h-3.6c-0.2,0-0.3,0.1-0.3,0.3v28.4c0,0.1,0.1,0.2,0.1,0.2
				c0.1,0,0.1,0,0.1,0c0.1,0,0.1,0,0.1,0l3.6-1.9c0.1-0.1,0.2-0.1,0.2-0.3v-8.8c0.4,0.4,1,0.8,1.6,1.1c0.9,0.4,1.8,0.7,2.8,0.7
				s2-0.2,2.9-0.6c0.9-0.4,1.8-1,2.4-1.8c0.7-0.8,1.3-1.8,1.7-3.1s0.6-2.6,0.6-4.3c0-1.8-0.2-3.4-0.6-4.7
				C240.9,102.1,240.4,101,239.7,100.2"/>
			<path class="st2" d="M255.1,98.1h-4.3v-7c0-0.1-0.1-0.2-0.1-0.2c-0.1,0-0.1,0-0.1,0c-0.1,0-0.1,0-0.1,0l-3.6,1.9
				c-0.1,0.1-0.2,0.1-0.2,0.3v5.1h-2.4c-0.2,0-0.3,0.1-0.3,0.3v3.4c0,0.2,0.1,0.3,0.3,0.3h2.4v10.6c0,1.8,0.4,3.1,1.2,4
				c0.8,0.9,1.9,1.3,3.3,1.3c0.8,0,1.5-0.1,2.1-0.2c0.6-0.2,1.2-0.4,1.7-0.7c0.1-0.1,0.1-0.1,0.1-0.2l0.4-3.3c0-0.1,0-0.2-0.1-0.3
				c-0.1,0-0.1-0.1-0.2-0.1s-0.1,0-0.1,0c-0.3,0.2-0.7,0.3-1.2,0.5c-0.5,0.1-0.9,0.2-1.4,0.2c-0.6,0-1-0.1-1.3-0.4
				c-0.2-0.2-0.4-0.6-0.4-1.6v-9.9h4.3c0.2,0,0.3-0.1,0.3-0.3v-3.4C255.4,98.3,255.3,98.1,255.1,98.1"/>
			<path class="st2" d="M291.9,109.7c-0.3-0.7-0.7-1.2-1.3-1.7c-0.5-0.5-1.2-0.9-2-1.3c-0.8-0.4-1.7-0.8-2.8-1.2
				c-0.7-0.3-1.3-0.5-1.7-0.8s-0.8-0.4-1-0.6c-0.2-0.2-0.4-0.4-0.5-0.5c-0.1-0.2-0.1-0.3-0.1-0.5c0-0.4,0.2-0.7,0.5-1
				c0.4-0.3,1-0.4,1.8-0.4s1.7,0.1,2.4,0.4s1.5,0.6,2.2,1.2c0.1,0.1,0.1,0.1,0.2,0.1c0.1,0,0.1-0.1,0.2-0.1l1.6-2.8
				c0.1-0.1,0-0.3-0.1-0.4c-0.9-0.6-1.9-1.2-3-1.6s-2.3-0.6-3.5-0.6c-1,0-1.8,0.1-2.6,0.3c-0.8,0.2-1.5,0.6-2.1,1
				c-0.6,0.5-1.1,1-1.4,1.7c-0.3,0.7-0.5,1.5-0.5,2.4c0,0.8,0.1,1.5,0.3,2.1c0.2,0.6,0.5,1.1,1,1.6c0.5,0.5,1,0.9,1.8,1.3
				c0.7,0.4,1.6,0.8,2.6,1.2c1.3,0.5,2.4,1,3.1,1.4c0.7,0.4,1,0.9,1,1.5c0,0.4,0,1.8-3.1,1.8c-0.8,0-1.7-0.1-2.6-0.4
				c-0.9-0.3-1.8-0.8-2.6-1.4c-0.1-0.1-0.1-0.1-0.2-0.1c-0.1,0-0.1,0.1-0.2,0.1l-1.7,2.8c-0.1,0.1,0,0.3,0.1,0.4
				c1,0.7,2.1,1.3,3.4,1.8c1.3,0.5,2.6,0.7,3.9,0.7c0.9,0,1.9-0.1,2.7-0.3c0.9-0.2,1.6-0.5,2.3-1c0.7-0.4,1.2-1.1,1.6-1.8
				s0.6-1.7,0.6-2.8C292.3,111.1,292.1,110.4,291.9,109.7"/>
			<path class="st2" d="M270.1,111.8c-0.8,1.3-2.1,2-3.4,2c-1.2,0-2.3-0.5-3.1-1.5c-0.9-1.1-1.4-2.8-1.4-4.5s0.4-3.3,1.3-4.4
				c0.8-1,2-1.6,3.2-1.6c1.3,0,2.5,0.6,3.3,1.8c0.8,1.1,1.2,2.6,1.2,4.2C271.1,109.3,270.8,110.8,270.1,111.8 M266.7,97.8
				c-2.3,0-4.6,1-6.1,2.7c-1.6,1.8-2.5,4.5-2.5,7.4s1,5.8,2.7,7.6c1.5,1.6,3.7,2.5,6,2.5c2.6,0,5.1-1.2,6.7-3.4c1.3-1.8,2-4.2,2-6.7
				c0-2.7-0.8-5.3-2.2-7.1C271.5,98.8,269.1,97.8,266.7,97.8"/>
		</g>
		<polygon class="st3" points="266.7,90.9 262.7,94.9 270.6,94.9 		"/>
	</g>
</g>
</svg>
