<svg width="300" height="229" viewBox="0 0 300 229" fill="none" xmlns="http://www.w3.org/2000/svg">
<g opacity="0.25">
<path d="M38.7197 133.101C60.1923 111.643 95.011 111.643 116.484 133.101C132.748 149.355 154.333 149.058 169.116 134.285C183.899 119.512 184.493 97.6443 168.229 81.3907L157.582 70.7513L200.455 27.9076L318.728 0.722992C343.72 25.6978 330.907 68.4182 296.296 75.5466L239.191 87.3021C255.158 122.17 248.058 162.356 222.337 188.06C182.125 228.245 122.988 227.656 78.0394 182.743L33.5396 138.273L38.7141 133.101H38.7197Z" fill="#761449"/>
<path d="M315.936 229L321.873 223.067C342.259 202.695 342.259 169.612 321.873 149.239L200.457 27.9041L157.581 70.7511L315.936 229Z" fill="#27B1A6"/>
<path d="M2.28982 107.038C-0.763272 110.089 -0.763272 115.036 2.28982 118.087C5.3429 121.138 10.2929 121.138 13.346 118.087C48.7764 82.68 106.426 82.68 141.851 118.087C144.904 121.138 149.854 121.138 152.907 118.087C155.96 115.036 155.96 110.089 152.907 107.038C111.382 65.5402 43.8152 65.5402 2.28982 107.038Z" fill="#F6C370"/>
<path d="M150.78 13.0831C155.215 13.0831 158.811 16.6764 158.811 21.1089C158.811 25.5415 155.215 29.1348 150.78 29.1348C146.344 29.1348 142.749 25.5415 142.749 21.1089C142.749 16.6764 146.344 13.0831 150.78 13.0831Z" fill="#761449"/>
</g>
</svg>
