<svg width="230" height="510" viewBox="0 0 230 510" fill="none" xmlns="http://www.w3.org/2000/svg">
<g opacity="0.25" clip-path="url(#clip0_156_1086)">
<path d="M265.402 486.83C189.685 486.83 128.089 425.302 128.089 349.67V69.7693C128.089 31.2959 96.7577 0 58.2496 0C51.8468 0 46.6514 5.18966 46.6514 11.5852C46.6514 17.9808 51.8468 23.1705 58.2496 23.1705C83.9688 23.1705 104.901 44.0705 104.901 69.7693V349.67C104.901 438.077 176.904 509.992 265.402 509.992C271.805 509.992 277 504.802 277 498.406C277 492.011 271.805 486.821 265.402 486.821V486.83Z" fill="#F6C370"/>
<path d="M180.201 99.834H202.523C237.226 99.834 265.402 127.978 265.402 162.642V436.446H243.08C208.377 436.446 180.201 408.302 180.201 373.638V99.834Z" fill="#27B1A6"/>
<path d="M180.201 312.967H265.402V212.044H180.201V99.834L52.7789 127.695V212.044H0V264.007C0 291.044 21.9392 312.959 49.0072 312.959H180.201V312.967Z" fill="#361D5C"/>
<path d="M52.7789 386.605C59.3591 386.605 64.6935 381.277 64.6935 374.704C64.6935 368.131 59.3591 362.803 52.7789 362.803C46.1986 362.803 40.8643 368.131 40.8643 374.704C40.8643 381.277 46.1986 386.605 52.7789 386.605Z" fill="#361D5C"/>
</g>
<defs>
<clipPath id="clip0_156_1086">
<rect width="277" height="510" fill="white"/>
</clipPath>
</defs>
</svg>
