<?xml version="1.0" encoding="utf-8"?>
<!-- Generator: Adobe Illustrator 27.1.1, SVG Export Plug-In . SVG Version: 6.00 Build 0)  -->
<svg version="1.1" id="Layer_2_00000016053310097924138650000015804404769495775362_"
	 xmlns="http://www.w3.org/2000/svg" xmlns:xlink="http://www.w3.org/1999/xlink" x="0px" y="0px" viewBox="0 0 401.7 624.6"
	 style="enable-background:new 0 0 401.7 624.6;" xml:space="preserve">
<style type="text/css">
	.st0{opacity:0.15;}
	.st1{clip-path:url(#SVGID_00000018930191973919773840000000815037231279790002_);}
	.st2{fill:#328780;}
	.st3{fill:#27ACA1;}
	.st4{fill:#F8D399;}
	.st5{fill:#361D5C;}
</style>
<g id="Layer_1-2">
	<g class="st0">
		<g>
			<defs>
				<rect id="SVGID_1_" width="401.7" height="624.6"/>
			</defs>
			<clipPath id="SVGID_00000127034473230870707520000015229716552438885307_">
				<use xlink:href="#SVGID_1_"  style="overflow:visible;"/>
			</clipPath>
			<g style="clip-path:url(#SVGID_00000127034473230870707520000015229716552438885307_);">
				<g>
					<path class="st2" d="M113,113c-29.6,6.9-57.8,18.9-82.1,29.9c-53.1,23.1-90.3,40.2-115.3,22.7c-1.2-45.3,14.2-91,46.3-127.1
						c2.4-2.7,4.9-5.4,7.5-8L0,0L113,113L113,113z"/>
					<path class="st3" d="M109.3,253.7l-88.4,88.5l-37-37c27-8.6,53.4-20.5,78.2-31.6C80.5,265.1,96,258.3,109.3,253.7L109.3,253.7z
						"/>
					<path class="st4" d="M269.1,590.5L-16.1,305.2c27-8.6,53.4-20.5,78.2-31.6c18.4-8.5,33.9-15.4,47.2-19.9l159.8,159.8
						c24.4,24.4,36.6,56.4,36.6,88.5C305.7,534,293.5,566,269.1,590.5L269.1,590.5z"/>
					<g>
						<path class="st5" d="M75.4,267.6c0.6-0.3,1.3-0.6,1.9-0.8c-0.4,0.2-0.8,0.4-1.2,0.5C75.8,267.4,75.6,267.5,75.4,267.6
							L75.4,267.6z"/>
						<path class="st5" d="M85.2,263.2c0.8-0.4,1.6-0.7,2.4-1c-0.4,0.2-0.8,0.3-1.1,0.5C86.1,262.9,85.6,263.1,85.2,263.2
							L85.2,263.2z"/>
						<path class="st5" d="M90.3,261.1c1-0.4,2-0.9,3-1.3c-1.5,0.6-2.9,1.2-4.4,1.9C89.4,261.5,89.9,261.3,90.3,261.1z"/>
						<path class="st5" d="M100.2,257.1c1.6-0.6,3.2-1.2,4.8-1.8c-0.6,0.2-1.3,0.5-1.9,0.7c-0.5,0.2-0.9,0.3-1.4,0.5
							C101.2,256.7,100.7,256.9,100.2,257.1L100.2,257.1z"/>
						<path class="st5" d="M113,113c-29.6,6.9-57.8,18.9-82.1,29.9c-53.1,23.1-90.3,40.2-115.3,22.7c1.2,45.4,19.1,90.5,53.8,125.2
							l14.4,14.4c27-8.6,53.4-20.5,78.2-31.6c1.5-0.7,2.9-1.4,4.4-2c0.4-0.2,0.8-0.4,1.2-0.5c1.3-0.6,2.5-1.1,3.8-1.7
							c0.2-0.1,0.4-0.2,0.6-0.3c1.1-0.5,2.2-1,3.3-1.5c0.6-0.3,1.3-0.6,1.9-0.8c0,0,0,0,0.1,0c1-0.4,2-0.9,3-1.3l1.2-0.5
							c0.2-0.1,0.4-0.2,0.5-0.2c0.9-0.4,1.8-0.8,2.6-1.1c0.1-0.1,0.3-0.1,0.4-0.2c0.1,0,0.1,0,0.2-0.1c0.8-0.4,1.6-0.7,2.4-1
							c0.4-0.2,0.9-0.4,1.3-0.5c1.5-0.6,3-1.3,4.4-1.9c0.1,0,0.2,0,0.2-0.1c0.5-0.2,1-0.4,1.4-0.6c0.7-0.3,1.4-0.6,2.1-0.9
							c0.5-0.2,1-0.4,1.5-0.6c0.5-0.2,1-0.4,1.5-0.6c1.6-0.6,3.2-1.2,4.8-1.8c0.5-0.2,1-0.4,1.4-0.5c0.5-0.2,1-0.4,1.4-0.5
							c0.5-0.2,0.9-0.3,1.4-0.5c12.8-4.4,23.6-6.7,32.8-6.2c9.2,0.5,16.9,3.8,23.6,10.5c14.1,14.1,14.1,33.2,2.3,54.4l92.4,92.4
							c72.9-89.9,69.5-187.4,4.2-252.7C217,104.6,162.9,101.5,113,113L113,113z"/>
					</g>
					<path class="st2" d="M74.6,595.5c38.8,38.8,102,38.8,140.9,0c5.4-5.4,5.4-14.3,0-19.7s-14.3-5.4-19.7,0c-28,28-73.5,28-101.5,0
						c-28-28-28-73.5,0-101.5c5.4-5.4,5.4-14.3,0-19.7L30.7,391c-5.4-5.4-14.3-5.4-19.7,0s-5.4,14.3,0,19.7l54.5,54.5
						C36.1,504.2,39.1,560,74.6,595.5z"/>
					<circle class="st5" cx="387.4" cy="403.4" r="14.3"/>
				</g>
			</g>
		</g>
	</g>
</g>
</svg>
