<?xml version="1.0" encoding="UTF-8"?><svg id="Layer_1" xmlns="http://www.w3.org/2000/svg" xmlns:xlink="http://www.w3.org/1999/xlink" viewBox="0 0 441.67 675.43"><defs><style>.cls-1{fill:none;}.cls-2{clip-path:url(#clippath);}.cls-3{fill:#c1bdf0;}.cls-4{fill:#361d5c;}.cls-5{fill:#27aca1;}.cls-6{fill:#6057bc;}.cls-7{opacity:.15;}</style><clipPath id="clippath"><rect class="cls-1" width="441.75" height="675.43"/></clipPath></defs><g class="cls-2"><g class="cls-7"><path class="cls-3" d="m319.55,553.22c32.04-7.41,62.48-20.43,88.83-32.32,57.42-24.94,97.65-43.44,124.64-24.56,1.32,48.99-15.38,98.37-50.05,137.38-2.61,2.94-5.33,5.82-8.15,8.64l-33.06,33.06-122.21-122.21Z"/><path class="cls-5" d="m323.58,401.05l95.65-95.65,39.97,39.97c-29.24,9.31-57.76,22.17-84.62,34.13-19.84,9.19-36.63,16.61-51,21.54Z"/><path class="cls-6" d="m150.76,36.93l308.44,308.44c-29.24,9.31-57.76,22.17-84.62,34.13-19.84,9.19-36.63,16.61-51,21.54l-172.82-172.82c-26.42-26.42-39.62-61.03-39.63-95.65,0-34.61,13.21-69.23,39.63-95.65Z"/><path class="cls-4" d="m360.26,386.06c-.68.3-1.37.61-2.05.91.44-.21.88-.39,1.33-.6.25-.11.47-.22.73-.31Z"/><path class="cls-4" d="m349.59,390.76c-.85.38-1.71.75-2.56,1.11.41-.18.81-.36,1.23-.54.44-.19.89-.38,1.33-.57Z"/><path class="cls-4" d="m344.08,393.11c-1.12.47-2.21.93-3.28,1.37,1.57-.65,3.18-1.32,4.8-2.01-.51.22-1.02.43-1.52.64Z"/><path class="cls-4" d="m333.44,397.43c-1.78.7-3.51,1.35-5.23,1.97.7-.27,1.4-.52,2.1-.79.5-.19,1-.37,1.51-.57.53-.2,1.07-.4,1.62-.62Z"/><path class="cls-4" d="m155.62,510.89c51.42,51.42,109.97,54.81,163.93,42.33,32.04-7.41,62.48-20.43,88.83-32.32,57.42-24.94,97.65-43.44,124.64-24.56-1.3-49.13-20.71-97.87-58.21-135.37l-15.6-15.6c-29.24,9.31-57.76,22.17-84.62,34.13-1.6.74-3.17,1.46-4.73,2.18-.43.2-.85.4-1.28.59-1.37.63-2.74,1.25-4.07,1.85-.22.1-.43.2-.65.29-1.21.56-2.41,1.1-3.6,1.64-.68.3-1.37.61-2.05.91-.02.02-.05.03-.08.04-1.08.47-2.15.95-3.2,1.41l-1.27.56c-.21.09-.4.19-.6.27-.95.42-1.89.83-2.83,1.24-.15.07-.3.13-.45.2-.07.03-.13.05-.2.08-.85.38-1.71.75-2.56,1.11-.48.21-.95.4-1.42.6-1.62.7-3.23,1.36-4.8,2.01-.09.03-.18.06-.26.1-.53.22-1.04.43-1.56.64-.78.32-1.54.64-2.31.93-.53.22-1.07.42-1.59.63-.54.23-1.09.44-1.65.65-1.78.7-3.51,1.35-5.23,1.97-.52.19-1.05.38-1.56.56-.51.2-1.03.38-1.55.55-.51.18-1.02.37-1.52.54-13.89,4.76-25.53,7.21-35.5,6.66-9.97-.55-18.27-4.1-25.49-11.32-15.21-15.21-15.28-35.87-2.52-58.86l-99.95-99.95c-78.86,97.19-75.17,202.64-4.5,273.3Z"/><path class="cls-3" d="m361.05,31.5c-42-42-110.33-42-152.33,0-5.88,5.88-5.88,15.42,0,21.3,5.88,5.88,15.42,5.88,21.3,0,30.25-30.25,79.47-30.25,109.73,0,30.25,30.25,30.25,79.47,0,109.73-5.88,5.88-5.88,15.42,0,21.3l68.77,68.77c5.88,5.88,15.42,5.88,21.3,0,5.88-5.88,5.88-15.42,0-21.3l-58.88-58.88c31.77-42.17,28.49-102.53-9.89-140.92Z"/><circle class="cls-4" cx="22.86" cy="239.23" r="15.47"/></g></g></svg>